<?xml version="1.0" encoding="utf-8"?>
<!-- Generator: Adobe Illustrator 25.4.0, SVG Export Plug-In . SVG Version: 6.00 Build 0)  -->
<svg version="1.1" xmlns="http://www.w3.org/2000/svg" xmlns:xlink="http://www.w3.org/1999/xlink" x="0px" y="0px"
	 viewBox="0 0 150 150" style="enable-background:new 0 0 150 150;" xml:space="preserve">
<style type="text/css">
	.st0{fill:#FCB040;stroke:#000000;stroke-width:0.5;stroke-linecap:round;stroke-linejoin:round;stroke-miterlimit:10;}
	.st1{fill:#FFFFFF;stroke:#000000;stroke-width:0.5;stroke-linecap:round;stroke-linejoin:round;stroke-miterlimit:10;}
	.st2{fill:#00AEEF;stroke:#000000;stroke-width:0.5;stroke-linecap:round;stroke-linejoin:round;stroke-miterlimit:10;}
	.st3{fill:none;stroke:#000000;stroke-width:0.5;stroke-linecap:round;stroke-linejoin:round;stroke-miterlimit:10;}
	.st4{fill:none;stroke:#00AEEF;stroke-width:0.5;stroke-linecap:round;stroke-linejoin:round;stroke-miterlimit:10;}
	.st5{fill:#FCB040;stroke:#00AEEF;stroke-width:0.5;stroke-linecap:round;stroke-linejoin:round;stroke-miterlimit:10;}
	.st6{fill:#FFFFFF;}
	.st7{fill:#00AEEF;}
	.st8{fill:none;stroke:#00AEEF;stroke-width:0.5;stroke-linecap:round;stroke-linejoin:round;}
	.st9{fill:#FFFFFF;stroke:#FCB040;stroke-width:0.5;stroke-linecap:round;stroke-linejoin:round;stroke-miterlimit:10;}
	.st10{fill:none;stroke:#FCB040;stroke-width:0.5;stroke-miterlimit:10;}
	.st11{fill:none;stroke:#FCB040;stroke-width:0.5;stroke-linecap:round;stroke-linejoin:round;stroke-miterlimit:10;}
	.st12{fill:#FCB040;}
	.st13{fill:none;stroke:#FCB040;stroke-width:0.3802;stroke-linejoin:round;stroke-dasharray:1.4817,1.4817;}
	.st14{fill:#FCB040;stroke:#000000;stroke-width:0.5;stroke-miterlimit:10;}
	.st15{fill:none;stroke:#72AED8;stroke-width:0.3802;stroke-linejoin:round;}
	.st16{fill:none;stroke:#72AED8;stroke-width:0.3802;stroke-linejoin:round;stroke-dasharray:1.4609,1.4609;}
	.st17{fill:#00AEEF;stroke:#000000;stroke-width:0.5;stroke-miterlimit:10;}
	.st18{fill:none;}
</style>
<g id="cores">
</g>
<g id="Cubo_atrás_1">
	<g id="cubo_atras_5">
		<polygon class="st0" points="78.2,21.1 80.8,25 85.6,24.7 82.9,20.7 		"/>
		<polygon class="st1" points="80.3,16.8 78.2,21.1 82.9,20.7 85,16.5 		"/>
		<polygon class="st2" points="87.7,20.4 85,16.5 82.9,20.7 85.6,24.7 		"/>
	</g>
</g>
<g id="Cubo_atrás_2">
	<g id="cubo_atras_4">
		<polygon class="st1" points="87.9,18.5 84.7,26.5 90.1,33.3 93.3,25.3 		"/>
		<polygon class="st2" points="96.5,17.2 87.9,18.5 93.3,25.3 101.8,24 		"/>
		<polygon class="st0" points="98.7,32 101.8,24 93.3,25.3 90.1,33.3 		"/>
	</g>
</g>
<g id="Cubo_atrás_3">
	<g id="cubo_atras_3">
		<polygon class="st2" points="26,76 23,82.4 27,88.2 30,81.8 		"/>
		<polygon class="st0" points="33,75.4 26,76 30,81.8 37,81.2 		"/>
		<polygon class="st1" points="34,87.6 37,81.2 30,81.8 27,88.2 		"/>
	</g>
</g>
<g id="Cubo_atrás_4">
	<g id="cubo_atras_2">
		<polygon class="st2" points="52.3,122.8 52.3,128.8 57.5,131.8 57.5,125.8 		"/>
		<polygon class="st0" points="57.5,119.8 52.3,122.8 57.5,125.8 62.7,122.8 		"/>
		<polygon class="st1" points="62.7,128.8 62.7,122.8 57.5,125.8 57.5,131.8 		"/>
	</g>
</g>
<g id="Mão">
	<g>
		<path class="st1" d="M64.7,134.9c-0.1,0.3-0.2,0.7-0.3,1c-0.1,0.6-0.2,1.8-0.2,1.8c-1.4,0.8-2.7,1.6-4.1,2.4c0-0.4,0-0.8,0-1.1
			c-0.1-0.7-0.7-0.9-1.1-1.2c-0.3-0.2-0.5-0.6-0.7-1c-0.2-0.5-0.3-1-0.4-1.5c-0.1-0.4-0.3-1.1-0.2-1.6c0-0.1,0.1-0.3,0.2-0.4
			c0.1-0.1,0.3-0.2,0.5-0.2c0.4,0,0.7,0.4,0.8,0.8c0.1,0.2,0.3,1,0.6,0.8c0.2-0.1,0.2-0.4,0.2-0.5c0.1-0.8,0.1-1.5,0.1-2.2
			c0-0.9,0-1.9,0-2.8c0-0.7,0-1.8,0.8-2.2c0.1-0.1,0.3-0.1,0.4,0c0.4,0.2,0.4,1.2,0.4,1.6c0,0.7,0,1.3,0,2c0-0.1,0.4-0.4,0.5-0.5
			c0.2-0.1,0.4-0.2,0.5-0.2c0.3,0,0.5,0.2,0.6,0.5c0.3-0.3,0.6-0.5,1-0.5c0.5,0,0.6,0.7,0.7,1.3c0,0,0,0.1,0,0.1
			C65.1,132.4,65,133.6,64.7,134.9z"/>
		<path class="st3" d="M61.7,130.5c0,0.7,0,0.9,0,1.7"/>
	</g>
</g>
<g id="Cubo_atrás_5">
	<g id="cubo_atras_1">
		<polygon class="st0" points="99.7,121.5 101.4,126.3 106.4,127.3 104.7,122.5 		"/>
		<polygon class="st1" points="103.1,117.7 99.7,121.5 104.7,122.5 108.1,118.6 		"/>
		<polygon class="st2" points="109.7,123.5 108.1,118.6 104.7,122.5 106.4,127.3 		"/>
	</g>
</g>
<g id="Cubo_atrás_6">
	<g>
		<polygon class="st0" points="17.5,54.3 19.1,58 23.2,58.4 21.5,54.7 		"/>
		<polygon class="st1" points="19.8,51 17.5,54.3 21.5,54.7 23.8,51.4 		"/>
		<polygon class="st2" points="25.5,55.1 23.8,51.4 21.5,54.7 23.2,58.4 		"/>
	</g>
</g>
<g id="Ecrã_curvas">
	<g id="ecran_curvas">
		<path class="st4" d="M134.6,66.4c-0.7,1-1.7,2.2-2.3,3.3c-0.5,0.9-0.8,1.9-0.9,2.9c-0.3-0.1-0.7,0-1.1,0.2
			c-2.3,1.3-2.3,5.6-4.6,6.9V73c0-0.8,0.6-1.8,1.3-2.2L134.6,66.4z"/>
		<path class="st5" d="M139.2,65.2v2.4c-2.1,1.4-2.2,5.5-4.4,6.8c-1.8,1.1-2.2-1.5-3.4-1.8c0.1-1,0.5-2,0.9-2.9
			c0.6-1.1,1.5-2.3,2.3-3.3l3.3-1.9C138.6,64,139.2,64.4,139.2,65.2z"/>
		<path class="st4" d="M132.2,78.6c-0.2,1.8-1,4-1.7,5.6l-3.5,2c-0.7,0.4-1.3,0.1-1.3-0.8v-5.9c2.3-1.3,2.3-5.6,4.6-6.9
			c0.5-0.3,0.8-0.3,1.1-0.2c-0.1,0.5-0.1,1,0,1.4C131.5,75.5,132.4,76.5,132.2,78.6z"/>
		<path class="st5" d="M139.2,67.6v10.1c0,0.8-0.6,1.8-1.3,2.2l-7.4,4.3c0.7-1.7,1.5-3.8,1.7-5.6c0.2-2.1-0.6-3.1-0.8-4.7
			c-0.1-0.5-0.1-0.9,0-1.4c1.2,0.4,1.6,2.9,3.4,1.8C137,73.1,137.1,69,139.2,67.6z"/>
	</g>
</g>
<g id="Cubo_frente_1">
	<g id="cubo_frente_2">
		<polygon class="st1" points="124.2,84.5 121.1,88.7 123.3,93.5 126.4,89.3 		"/>
		<polygon class="st2" points="129.4,85 124.2,84.5 126.4,89.3 131.6,89.8 		"/>
		<polygon class="st0" points="128.5,94.1 131.6,89.8 126.4,89.3 123.3,93.5 		"/>
	</g>
</g>
<g id="Ecrã_gráfico">
	<g id="ecran_grafico">
		<g>
			<path class="st6" d="M50.3,55.1c0,0.8-0.6,1.8-1.3,2.3L25,71.2c-0.7,0.4-1.3,0.1-1.3-0.7V44.2c0-0.8,0.6-1.8,1.3-2.3L49,28
				c0.7-0.4,1.3-0.1,1.3,0.7V55.1z"/>
			<path class="st4" d="M50.3,55.1c0,0.8-0.6,1.8-1.3,2.3L25,71.2c-0.7,0.4-1.3,0.1-1.3-0.7V44.2c0-0.8,0.6-1.8,1.3-2.3L49,28
				c0.7-0.4,1.3-0.1,1.3,0.7V55.1z"/>
		</g>
		<path class="st7" d="M27.5,66.2L26,67.1c-0.1,0.1-0.3,0-0.3-0.2v-2.3c0-0.2,0.1-0.4,0.3-0.5l1.5-0.9c0.1-0.1,0.3,0,0.3,0.2v2.3
			C27.8,65.9,27.7,66.1,27.5,66.2z"/>
		<path class="st7" d="M30.8,64.3l-1.6,0.9c-0.1,0.1-0.3,0-0.3-0.2v-5.1c0-0.2,0.1-0.4,0.3-0.5l1.6-0.9c0.1-0.1,0.3,0,0.3,0.2v5.1
			C31.1,64,31,64.2,30.8,64.3z"/>
		<g>
			<path class="st8" d="M25.4,61.6c0.7-1.4,1.4-2.8,2-4.2c0.3-0.5,0.6-1.1,1-1.3c0.3-0.1,0.6,0,0.8-0.3c0.1-0.1,0.2-0.2,0.2-0.4
				c0.5-1.1,1.1-2.1,1.6-3.2c0.3-0.5,0.7-1.2,1-1.1c0.2,0,0.3,0.2,0.5,0c0.1-0.1,0.1-0.2,0.2-0.3c0.4-0.8,1.2-2.5,1.8-3.8"/>
			<g>
				<polygon class="st7" points="35,47.6 35.2,45.9 34,47.3 				"/>
			</g>
		</g>
		<line class="st8" x1="25.7" y1="68.3" x2="34.4" y2="63.3"/>
		<g>
			<line class="st4" x1="26.3" y1="44.8" x2="31.7" y2="41.7"/>
			<line class="st4" x1="26.3" y1="46.2" x2="31.7" y2="43.1"/>
			<line class="st4" x1="26.3" y1="47.6" x2="31.7" y2="44.5"/>
			<line class="st4" x1="26.3" y1="49" x2="31.7" y2="45.9"/>
		</g>
		<g>
			<polygon class="st9" points="36.9,38.7 36.9,44.7 42.1,47.7 42.1,41.7 			"/>
			<polygon class="st9" points="42.1,35.7 36.9,38.7 42.1,41.7 47.2,38.7 			"/>
			<polygon class="st9" points="47.2,44.7 47.2,38.7 42.1,41.7 42.1,47.7 			"/>
		</g>
		<path class="st7" d="M34.2,62.4l-1.6,0.9c-0.1,0.1-0.3,0-0.3-0.2v-9.3c0-0.2,0.1-0.4,0.3-0.5l1.6-0.9c0.1-0.1,0.3,0,0.3,0.2v9.3
			C34.4,62.1,34.3,62.3,34.2,62.4z"/>
		<path class="st9" d="M40.4,58L40.4,58c-0.8,0.3-1.3-0.2-1.2-1.1v0c0.1-0.9,0.8-2,1.6-2.3h0c0.8-0.3,1.3,0.2,1.2,1.1v0
			C41.9,56.6,41.2,57.7,40.4,58z"/>
		<path class="st9" d="M44.8,55.6L44.8,55.6c-0.5,0.2-0.9-0.1-0.8-0.7v0c0.1-0.6,0.5-1.3,1-1.5l0,0c0.5-0.2,0.9,0.1,0.8,0.7v0
			C45.8,54.7,45.3,55.4,44.8,55.6z"/>
	</g>
</g>
<g id="Ecrã_quadrícula">
	<g id="ecran_quadricula">
		<g>
			<path class="st6" d="M121.1,42.8c0,0.8-0.6,1.8-1.3,2.2l-24,13.9c-0.7,0.4-1.3,0.1-1.3-0.8V33c0-0.8,0.6-1.8,1.3-2.3l24-13.9
				c0.7-0.4,1.3-0.1,1.3,0.8V42.8z"/>
			<path class="st4" d="M121.1,42.8c0,0.8-0.6,1.8-1.3,2.2l-24,13.9c-0.7,0.4-1.3,0.1-1.3-0.8V33c0-0.8,0.6-1.8,1.3-2.3l24-13.9
				c0.7-0.4,1.3-0.1,1.3,0.8V42.8z"/>
		</g>
		<g>
			<line class="st10" x1="103.1" y1="31.3" x2="103.1" y2="50.5"/>
			<line class="st10" x1="107.8" y1="28.6" x2="107.8" y2="47.7"/>
			<line class="st10" x1="112.5" y1="25.9" x2="112.5" y2="45"/>
			<line class="st10" x1="116.2" y1="28.4" x2="99.5" y2="38"/>
			<line class="st10" x1="116.2" y1="33.4" x2="99.5" y2="43"/>
			<line class="st10" x1="116.2" y1="38.3" x2="99.5" y2="48"/>
		</g>
	</g>
</g>
<g id="Ecrã_quadrados">
	<g id="ecran_3_quadrados">
		<g>
			<path class="st6" d="M45.9,98c0,0.8-0.6,1.8-1.3,2.2l-22.5,13c-0.7,0.4-1.3,0.1-1.3-0.8V92c0-0.8,0.6-1.8,1.3-2.2l22.5-13
				c0.7-0.4,1.3-0.1,1.3,0.8V98z"/>
			<path class="st11" d="M45.9,98c0,0.8-0.6,1.8-1.3,2.2l-22.5,13c-0.7,0.4-1.3,0.1-1.3-0.8V92c0-0.8,0.6-1.8,1.3-2.2l22.5-13
				c0.7-0.4,1.3-0.1,1.3,0.8V98z"/>
		</g>
		<line class="st4" x1="23.9" y1="105.4" x2="30.1" y2="101.8"/>
		<line class="st4" x1="23.9" y1="107" x2="30.1" y2="103.4"/>
		<line class="st4" x1="23.9" y1="108.7" x2="30.1" y2="105.1"/>
		<g>
			<path class="st12" d="M25.9,93.5c0,0.3-0.2,0.6-0.4,0.8L24.2,95c-0.2,0.1-0.4,0-0.4-0.2v-1.4c0-0.3,0.2-0.6,0.4-0.8l1.2-0.7
				c0.2-0.1,0.4,0,0.4,0.2V93.5z"/>
		</g>
		<g>
			<path class="st12" d="M25.9,97.1c0,0.3-0.2,0.6-0.4,0.8l-1.2,0.7c-0.2,0.1-0.4,0-0.4-0.2v-1.4c0-0.3,0.2-0.6,0.4-0.8l1.2-0.7
				c0.2-0.1,0.4,0,0.4,0.2V97.1z"/>
		</g>
		<g>
			<path class="st12" d="M25.9,100.7c0,0.3-0.2,0.6-0.4,0.8l-1.2,0.7c-0.2,0.1-0.4,0-0.4-0.2v-1.4c0-0.3,0.2-0.6,0.4-0.8l1.2-0.7
				c0.2-0.1,0.4,0,0.4,0.2V100.7z"/>
		</g>
	</g>
</g>
<g id="Tracejado_1">
	<path class="st13" d="M112.5,72.8c0,0,27.8-14.7,8.6-37.1"/>
</g>
<g id="Cobra_laranja_atrás">
	<g id="cobra_laranja_atrás_1_">
		<path class="st14" d="M123.1,74.4c0-0.1-0.1-0.2-0.2-0.3c-0.3-0.2-0.6-0.1-0.9,0c-0.8,0.2-1.5,0.5-2.3,0.5c-0.9,0-1.8-0.1-2.6-0.3
			c-1.1-0.3-2.1-0.8-3.1-1.2c-4-1.5-8.6-2-12.7-0.8c-0.5,0.2-1.1,0.4-1.6,0.6c-1.3,0.6-2.6,1.4-3.7,2.3c-0.6,0.4-1,1.1-1.2,2
			c-0.2,0.9-0.2,2,0.4,3.6c0.1,0.2,0.2,0.4,0.4,0.5l0.1,0c1.5,0.7,2.4,1,3.2,1.2c0.8,0.1,1.3,0.1,1.8-0.2c0.9-0.4,1.8-0.8,2.7-1.3
			c1.7-0.8,3.3-1.8,5.1-2.3c2-0.5,4-0.3,6-0.3c3,0,6.4-0.7,8.4-3.1C123,75.1,123.2,74.7,123.1,74.4z"/>
		<path class="st3" d="M39.7,89.2c0.5-0.4,1.5,0.7,2,0.3c0.6-0.4-0.4-1.6,0.2-2.1c0.6-0.5,1.5,0.7,2,0.3c0.5-0.4,0.6-0.9,0.4-1.4"/>
		<path class="st14" d="M68.9,92.2c-0.1,0.2-15,19-27.6,10.2c-2.2-1.5-4.1-4.9-2.2-7.4c0.4-0.6,0.9-1.1,1.5-1.5
			c2.2-1.4,2.5-4.4,0.8-6.2c-1.4-1.6-3.5-1.7-5.4-1c-4.6,1.8-6.8,6.8-6.6,11.5c0.2,4.7,2.7,9,6.8,11.9c4,2.8,8.2,4,12.3,4
			c11.6,0,22.4-9.4,27.6-16L68.9,92.2z"/>
		<circle class="st1" cx="38.3" cy="89.9" r="0.9"/>
	</g>
	<path d="M68.9,98.3c0,0,2.6,1.7,2.6,4.2l2-1.8L68.9,98.3z"/>
</g>
<g id="Tracejado_2">
	<g>
		<g>
			<path class="st15" d="M27,110.4c0,0,0.2,0.2,0.5,0.5"/>
			<path class="st16" d="M28.6,111.9c4.3,3.6,16.8,11.7,31.9,2.2"/>
			<path class="st15" d="M61.1,113.7c0.2-0.1,0.4-0.3,0.6-0.4"/>
		</g>
	</g>
</g>
<g id="Cobra_azul_atrás">
	<g id="cobra_azul_atrás_1_">
		<path class="st3" d="M97.5,39.4c0.7-0.1,0.8,1.4,1.5,1.4c0.7-0.1,0.6-1.5,1.3-1.6c0.7-0.1,0.8,1.4,1.5,1.4c0.6,0,1-0.4,1.1-0.9"/>
		<g id="cobra_azul_atrás">
			<path class="st17" d="M60.7,68.4c-0.2,0.2-0.4,0.2-0.5,0.3c-0.2,0.1-0.3,0.2-0.5,0.2c-0.3,0.1-0.6,0.3-0.9,0.4
				c-0.6,0.3-1.2,0.5-1.7,0.7c-0.6,0.2-1.2,0.3-1.8,0.5c-4.4,0.8-8.9,0.6-13-1.4c-0.3-0.2-0.6-0.3-0.9-0.5c-1.9-1.1-3.7-2.6-5-4.4
				c-0.4-0.5-0.8-1-1.1-1.6c-0.1-0.2-0.1-0.3-0.1-0.5c0-0.2,0.2-0.4,0.4-0.5c0.2-0.1,0.4-0.1,0.6-0.1c0.5,0,0.9,0.3,1.4,0.5
				c0.4,0.2,0.9,0.3,1.4,0.5c1,0.4,2.1,0.6,3.2,0.9c2.1,0.4,4.3,0.6,6.5,0.2c0.6-0.1,1.1-0.2,1.7-0.4c1.2-0.3,2.4-0.8,3.6-1.4
				c0.3-0.2,0.7-0.4,1-0.6c0.2-0.1,0.3-0.2,0.5-0.3c0.1,0,0.1-0.1,0.2-0.1c0.1,0,0.1-0.1,0.1-0.1c2.1-1.4,4.9-0.8,6.3,1.3
				C63.4,64.1,62.8,67,60.7,68.4z"/>
			<path class="st17" d="M107.4,33.9c-0.1,0-0.2,0-0.3,0c-2.7,0.1-6.4,0.8-6.4,4.6c0,1.7,1,2.8,2.5,3.5c1.6,0.8,3.5,0.2,5.1,1
				c4.4,2.1,3.7,10.8,1.2,14c-1.5,1.9-3.6,2.8-5.9,3.4v9c0,0,3.1-0.7,3.3-0.7c1.3-0.4,2.7-0.9,3.9-1.6c2.8-1.4,5.3-3.4,7-6
				C123.4,52.5,119.8,34,107.4,33.9z"/>
		</g>
		<circle class="st1" cx="105.2" cy="37.9" r="0.9"/>
	</g>
	<path d="M50.1,68c0,0-0.2,2.3-2.1,2.5c0,0,1.6,0.3,2.1,0.2V68z"/>
</g>
<g id="Cubo_rubik">
	<g id="cubo">
		<g>
			<polygon class="st1" points="68.1,66.8 68.1,77.1 76.9,82.2 76.9,72 			"/>
			<polygon class="st1" points="76.9,61.7 68.1,66.8 76.9,72 85.8,66.8 			"/>
			<polygon class="st1" points="85.8,77.1 85.8,66.8 76.9,72 76.9,82.2 			"/>
		</g>
		<g>
			<polygon class="st1" points="68.1,56.6 68.1,66.8 76.9,72 76.9,61.7 			"/>
			<polygon class="st1" points="76.9,51.5 68.1,56.6 76.9,61.7 85.8,56.6 			"/>
			<polygon class="st1" points="85.8,66.8 85.8,56.6 76.9,61.7 76.9,72 			"/>
		</g>
		<g>
			<polygon class="st1" points="68.1,46.4 68.1,56.6 76.9,61.7 76.9,51.5 			"/>
			<polygon class="st2" points="76.9,41.2 68.1,46.4 76.9,51.5 85.8,46.4 			"/>
			<polygon class="st1" points="85.8,56.6 85.8,46.4 76.9,51.5 76.9,61.7 			"/>
		</g>
		<g>
			<polygon class="st1" points="76.9,72 76.9,82.2 85.8,87.3 85.8,77.1 			"/>
			<polygon class="st1" points="85.8,66.8 76.9,72 85.8,77.1 94.6,72 			"/>
			<polygon class="st1" points="94.6,82.2 94.6,72 85.8,77.1 85.8,87.3 			"/>
		</g>
		<g>
			<polygon class="st1" points="76.9,61.7 76.9,72 85.8,77.1 85.8,66.8 			"/>
			<polygon class="st1" points="85.8,56.6 76.9,61.7 85.8,66.8 94.6,61.7 			"/>
			<polygon class="st1" points="94.6,72 94.6,61.7 85.8,66.8 85.8,77.1 			"/>
		</g>
		<g>
			<polygon class="st1" points="76.9,51.5 76.9,61.7 85.8,66.8 85.8,56.6 			"/>
			<polygon class="st1" points="85.8,46.4 76.9,51.5 85.8,56.6 94.6,51.5 			"/>
			<polygon class="st1" points="94.6,61.7 94.6,51.5 85.8,56.6 85.8,66.8 			"/>
		</g>
		<g>
			<polygon class="st1" points="85.8,77.1 85.8,87.3 94.6,92.4 94.6,82.2 			"/>
			<polygon class="st1" points="94.6,72 85.8,77.1 94.6,82.2 103.5,77.1 			"/>
			<polygon class="st0" points="103.5,87.3 103.5,77.1 94.6,82.2 94.6,92.4 			"/>
		</g>
		<g>
			<polygon class="st1" points="85.8,66.8 85.8,77.1 94.6,82.2 94.6,72 			"/>
			<polygon class="st1" points="94.6,61.7 85.8,66.8 94.6,72 103.5,66.8 			"/>
			<polygon class="st1" points="103.5,77.1 103.5,66.8 94.6,72 94.6,82.2 			"/>
		</g>
		<g>
			<polygon class="st1" points="85.8,56.6 85.8,66.8 94.6,72 94.6,61.7 			"/>
			<polygon class="st0" points="94.6,51.5 85.8,56.6 94.6,61.7 103.5,56.6 			"/>
			<polygon class="st2" points="103.5,66.8 103.5,56.6 94.6,61.7 94.6,72 			"/>
		</g>
		<g>
			<polygon class="st1" points="59.2,72 59.2,82.2 68.1,87.3 68.1,77.1 			"/>
			<polygon class="st1" points="68.1,66.8 59.2,72 68.1,77.1 76.9,72 			"/>
			<polygon class="st1" points="76.9,82.2 76.9,72 68.1,77.1 68.1,87.3 			"/>
		</g>
		<g>
			<polygon class="st1" points="59.2,61.7 59.2,72 68.1,77.1 68.1,66.8 			"/>
			<polygon class="st1" points="68.1,56.6 59.2,61.7 68.1,66.8 76.9,61.7 			"/>
			<polygon class="st1" points="76.9,72 76.9,61.7 68.1,66.8 68.1,77.1 			"/>
		</g>
		<g>
			<polygon class="st1" points="59.2,51.5 59.2,61.7 68.1,66.8 68.1,56.6 			"/>
			<polygon class="st1" points="68.1,46.4 59.2,51.5 68.1,56.6 76.9,51.5 			"/>
			<polygon class="st1" points="76.9,61.7 76.9,51.5 68.1,56.6 68.1,66.8 			"/>
		</g>
		<g>
			<polygon class="st1" points="68.1,77.1 68.1,87.3 76.9,92.4 76.9,82.2 			"/>
			<polygon class="st1" points="76.9,72 68.1,77.1 76.9,82.2 85.8,77.1 			"/>
			<polygon class="st1" points="85.8,87.3 85.8,77.1 76.9,82.2 76.9,92.4 			"/>
		</g>
		<g>
			<polygon class="st1" points="68.1,66.8 68.1,77.1 76.9,82.2 76.9,72 			"/>
			<polygon class="st1" points="76.9,61.7 68.1,66.8 76.9,72 85.8,66.8 			"/>
			<polygon class="st1" points="85.8,77.1 85.8,66.8 76.9,72 76.9,82.2 			"/>
		</g>
		<g>
			<polygon class="st1" points="68.1,56.6 68.1,66.8 76.9,72 76.9,61.7 			"/>
			<polygon class="st1" points="76.9,51.5 68.1,56.6 76.9,61.7 85.8,56.6 			"/>
			<polygon class="st1" points="85.8,66.8 85.8,56.6 76.9,61.7 76.9,72 			"/>
		</g>
		<g>
			<polygon class="st1" points="76.9,82.2 76.9,92.4 85.8,97.5 85.8,87.3 			"/>
			<polygon class="st1" points="85.8,77.1 76.9,82.2 85.8,87.3 94.6,82.2 			"/>
			<polygon class="st1" points="94.6,92.4 94.6,82.2 85.8,87.3 85.8,97.5 			"/>
		</g>
		<g>
			<polygon class="st1" points="76.9,72 76.9,82.2 85.8,87.3 85.8,77.1 			"/>
			<polygon class="st1" points="85.8,66.8 76.9,72 85.8,77.1 94.6,72 			"/>
			<polygon class="st1" points="94.6,82.2 94.6,72 85.8,77.1 85.8,87.3 			"/>
		</g>
		<g>
			<polygon class="st1" points="76.9,61.7 76.9,72 85.8,77.1 85.8,66.8 			"/>
			<polygon class="st1" points="85.8,56.6 76.9,61.7 85.8,66.8 94.6,61.7 			"/>
			<polygon class="st1" points="94.6,72 94.6,61.7 85.8,66.8 85.8,77.1 			"/>
		</g>
		<g>
			<polygon class="st1" points="59.2,72 59.2,82.2 68.1,87.3 68.1,77.1 			"/>
			<polygon class="st1" points="68.1,66.8 59.2,72 68.1,77.1 76.9,72 			"/>
			<polygon class="st1" points="76.9,82.2 76.9,72 68.1,77.1 68.1,87.3 			"/>
		</g>
		<g>
			<polygon class="st1" points="59.2,61.7 59.2,72 68.1,77.1 68.1,66.8 			"/>
			<polygon class="st1" points="68.1,56.6 59.2,61.7 68.1,66.8 76.9,61.7 			"/>
			<polygon class="st1" points="76.9,72 76.9,61.7 68.1,66.8 68.1,77.1 			"/>
		</g>
		<g>
			<polygon class="st1" points="59.2,51.5 59.2,61.7 68.1,66.8 68.1,56.6 			"/>
			<polygon class="st1" points="68.1,46.4 59.2,51.5 68.1,56.6 77,51.5 			"/>
			<polygon class="st1" points="76.9,61.7 76.9,51.5 68.1,56.6 68.1,66.8 			"/>
		</g>
		<g>
			<polygon class="st1" points="68.1,77.1 68.1,87.3 76.9,92.4 76.9,82.2 			"/>
			<polygon class="st1" points="76.9,72 68.1,77.1 76.9,82.2 85.8,77.1 			"/>
			<polygon class="st1" points="85.8,87.3 85.8,77.1 76.9,82.2 76.9,92.4 			"/>
		</g>
		<g>
			<polygon class="st1" points="68.1,66.8 68.1,77.1 76.9,82.2 76.9,72 			"/>
			<polygon class="st1" points="76.9,61.7 68.1,66.8 76.9,72 85.8,66.8 			"/>
			<polygon class="st1" points="85.8,77.1 85.8,66.8 76.9,72 76.9,82.2 			"/>
		</g>
		<g>
			<polygon class="st1" points="68.1,56.6 68.1,66.8 76.9,72 76.9,61.7 			"/>
			<polygon class="st1" points="76.9,51.5 68.1,56.6 76.9,61.7 85.8,56.6 			"/>
			<polygon class="st1" points="85.8,66.8 85.8,56.6 76.9,61.7 76.9,72 			"/>
		</g>
		<g>
			<polygon class="st1" points="76.9,82.2 76.9,92.4 85.8,97.5 85.8,87.3 			"/>
			<polygon class="st1" points="85.8,77.1 76.9,82.2 85.8,87.3 94.6,82.2 			"/>
			<polygon class="st1" points="94.6,92.4 94.6,82.2 85.8,87.3 85.8,97.5 			"/>
		</g>
		<g>
			<polygon class="st1" points="76.9,72 76.9,82.2 85.8,87.3 85.8,77.1 			"/>
			<polygon class="st1" points="85.8,66.8 76.9,72 85.8,77.1 94.6,72 			"/>
			<polygon class="st1" points="94.7,82.2 94.7,72 85.9,77.1 85.9,87.3 			"/>
		</g>
		<g>
			<polygon class="st1" points="76.9,61.7 76.9,72 85.8,77.1 85.8,66.8 			"/>
			<polygon class="st1" points="85.8,56.6 76.9,61.7 85.8,66.8 94.6,61.7 			"/>
			<polygon class="st0" points="94.6,72 94.6,61.7 85.8,66.8 85.8,77.1 			"/>
		</g>
		<g>
			<polygon class="st2" points="50.3,77.1 50.3,87.3 59.2,92.4 59.2,82.2 			"/>
			<polygon class="st1" points="59.2,72 50.3,77.1 59.2,82.2 68.1,77.1 			"/>
			<polygon class="st1" points="68.1,87.3 68.1,77.1 59.2,82.2 59.2,92.4 			"/>
		</g>
		<g>
			<polygon class="st1" points="50.3,66.8 50.3,77.1 59.2,82.2 59.2,72 			"/>
			<polygon class="st1" points="59.2,61.7 50.3,66.8 59.2,72 68.1,66.8 			"/>
			<polygon class="st1" points="68.1,77.1 68.1,66.8 59.2,72 59.2,82.2 			"/>
		</g>
		<g>
			<polygon class="st1" points="50.3,56.6 50.3,66.8 59.2,72 59.2,61.7 			"/>
			<polygon class="st2" points="59.2,51.5 50.3,56.6 59.2,61.7 68.1,56.6 			"/>
			<polygon class="st1" points="68.1,66.8 68.1,56.6 59.2,61.7 59.2,72 			"/>
		</g>
		<g>
			<polygon class="st0" points="59.2,82.2 59.2,92.4 68.1,97.5 68.1,87.3 			"/>
			<polygon class="st1" points="68.1,77.1 59.2,82.2 68.1,87.3 76.9,82.2 			"/>
			<polygon class="st1" points="76.9,92.4 76.9,82.2 68.1,87.3 68.1,97.5 			"/>
		</g>
		<g>
			<polygon class="st0" points="59.2,72 59.2,82.2 68.1,87.3 68.1,77.1 			"/>
			<polygon class="st1" points="68.1,66.8 59.2,72 68.1,77.1 76.9,72 			"/>
			<polygon class="st1" points="76.9,82.2 76.9,72 68.1,77.1 68.1,87.3 			"/>
		</g>
		<g>
			<polygon class="st2" points="59.2,61.7 59.2,72 68.1,77.1 68.1,66.8 			"/>
			<polygon class="st1" points="68.1,56.6 59.2,61.7 68.1,66.8 76.9,61.7 			"/>
			<polygon class="st1" points="76.9,72 76.9,61.7 68.1,66.8 68.1,77.1 			"/>
		</g>
		<g>
			<polygon class="st1" points="68.1,87.3 68.1,97.5 76.9,102.7 76.9,92.4 			"/>
			<polygon class="st1" points="76.9,82.2 68.1,87.3 76.9,92.4 85.8,87.3 			"/>
			<polygon class="st2" points="85.8,97.5 85.8,87.3 76.9,92.4 76.9,102.7 			"/>
		</g>
		<g>
			<polygon class="st1" points="68.1,77.1 68.1,87.3 76.9,92.4 76.9,82.2 			"/>
			<polygon class="st1" points="76.9,72 68.1,77.1 76.9,82.2 85.8,77.1 			"/>
			<polygon class="st0" points="85.8,87.3 85.8,77.1 76.9,82.2 76.9,92.4 			"/>
		</g>
		<g>
			<polygon class="st1" points="68.1,66.8 68.1,77.1 76.9,82.2 76.9,72 			"/>
			<polygon class="st0" points="76.9,61.7 68.1,66.8 76.9,72 85.8,66.8 			"/>
			<polygon class="st1" points="85.8,77.1 85.8,66.8 76.9,72 76.9,82.2 			"/>
		</g>
	</g>
</g>
<g id="Cobra_laranja_frente">
</g>
<g id="Cobra_azul_frente">
</g>
<g id="Ecrã_código">
	<g id="ecran_codigo">
		<g>
			<path class="st6" d="M119.3,112.4c0,0.8-0.6,1.8-1.3,2.2l-29.5,17c-0.7,0.4-1.3,0.1-1.3-0.8v-29.2c0-0.8,0.6-1.8,1.3-2.2l29.5-17
				c0.7-0.4,1.3-0.1,1.3,0.8V112.4z"/>
			<path class="st11" d="M119.3,112.4c0,0.8-0.6,1.8-1.3,2.2l-29.5,17c-0.7,0.4-1.3,0.1-1.3-0.8v-29.2c0-0.8,0.6-1.8,1.3-2.2
				l29.5-17c0.7-0.4,1.3-0.1,1.3,0.8V112.4z"/>
		</g>
		<polyline class="st4" points="91.9,124 100.8,115.1 109.2,112.1 		"/>
		<ellipse transform="matrix(0.5054 -0.8629 0.8629 0.5054 -61.5152 140.6372)" class="st5" cx="91.9" cy="124" rx="2.4" ry="1.4"/>
		<ellipse transform="matrix(0.5054 -0.8629 0.8629 0.5054 -61.5152 140.6372)" class="st6" cx="91.9" cy="124" rx="0.6" ry="0.3"/>

			<ellipse transform="matrix(0.5054 -0.8629 0.8629 0.5054 -49.4584 143.8699)" class="st5" cx="100.8" cy="115.1" rx="2.4" ry="1.4"/>

			<ellipse transform="matrix(0.5054 -0.8629 0.8629 0.5054 -42.672 149.6782)" class="st5" cx="109.2" cy="112.1" rx="2.4" ry="1.4"/>
		<path class="st5" d="M116.6,89l-2.8,2.6l0.6-3.7C115.5,87.5,116.3,87.9,116.6,89z"/>
		<path class="st5" d="M116.8,89.8c0,0.2,0,0.4,0,0.6l-2.9,1.1l2.8-2.6C116.7,89.2,116.8,89.5,116.8,89.8z"/>
		<path class="st5" d="M116.7,90.5c-0.2,1.7-1.5,3.6-2.9,4.5c-1.6,0.9-3,0.2-3-1.7s1.3-4.2,3-5.1c0.2-0.1,0.4-0.2,0.6-0.3l-0.6,3.7
			L116.7,90.5z"/>

			<ellipse transform="matrix(0.5054 -0.8629 0.8629 0.5054 -49.4584 143.8699)" class="st6" cx="100.8" cy="115.1" rx="0.6" ry="0.3"/>

			<ellipse transform="matrix(0.5054 -0.8629 0.8629 0.5054 -42.672 149.6782)" class="st6" cx="109.2" cy="112.1" rx="0.6" ry="0.3"/>
		<path class="st5" d="M115.6,102.2c-0.5,0.7-1.1,1.3-1.8,1.7c-1.6,0.9-3,0.2-3-1.7c0-1.9,1.3-4.2,3-5.1c0.2-0.1,0.5-0.2,0.7-0.3
			l-0.7,3.7L115.6,102.2z"/>
		<path class="st5" d="M116.8,98.7l-3,1.9l0.7-3.7C115.8,96.5,116.7,97.2,116.8,98.7z"/>
		<path class="st5" d="M116.8,98.8c0,0.7-0.2,1.5-0.5,2.2l-2.4-0.5l3-1.9C116.8,98.7,116.8,98.8,116.8,98.8z"/>
		<path class="st5" d="M116.2,101.1c-0.2,0.4-0.4,0.8-0.6,1.2l-1.8-1.7L116.2,101.1z"/>
		<g>
			<line class="st4" x1="90.9" y1="103.8" x2="101.2" y2="97.9"/>
			<line class="st11" x1="90.9" y1="111" x2="97" y2="107.4"/>
			<line class="st11" x1="97.9" y1="106.9" x2="100.4" y2="105.5"/>
			<line class="st4" x1="101.3" y1="105" x2="106.9" y2="101.8"/>
			<line class="st11" x1="94.1" y1="103.7" x2="102.5" y2="98.9"/>
			<line class="st11" x1="103.6" y1="98.3" x2="108.3" y2="95.6"/>
			<line class="st11" x1="102" y1="97.4" x2="105.4" y2="95.4"/>
			<line class="st11" x1="94.1" y1="105.5" x2="99.9" y2="102.2"/>
			<line class="st4" x1="101" y1="101.6" x2="103.6" y2="100.1"/>
			<line class="st11" x1="92" y1="101.9" x2="93.3" y2="101.2"/>
			<line class="st11" x1="104.7" y1="99.4" x2="107.3" y2="97.9"/>
			<line class="st11" x1="96.2" y1="106.1" x2="107.8" y2="99.4"/>
			<line class="st11" x1="94.1" y1="110.9" x2="99.2" y2="108"/>
			<line class="st4" x1="99.9" y1="107.6" x2="101.8" y2="106.5"/>
			<line class="st11" x1="102.6" y1="106" x2="103.6" y2="105.4"/>
		</g>
	</g>
</g>
<g id="Cubo_frente_2">
	<g id="cubo_frente_1">
		<polygon class="st0" points="100.5,64.4 98.5,71 103.2,75.9 105.2,69.4 		"/>
		<polygon class="st1" points="107.1,62.9 100.5,64.4 105.2,69.4 111.8,67.8 		"/>
		<polygon class="st2" points="109.9,74.3 111.8,67.8 105.2,69.4 103.2,75.9 		"/>
	</g>
</g>
</svg>
