<?xml version="1.0" encoding="utf-8"?>
<!-- Generator: Adobe Illustrator 25.4.0, SVG Export Plug-In . SVG Version: 6.00 Build 0)  -->
<svg version="1.1" xmlns="http://www.w3.org/2000/svg" xmlns:xlink="http://www.w3.org/1999/xlink" x="0px" y="0px"
	 viewBox="0 0 150 150" style="enable-background:new 0 0 150 150;" xml:space="preserve">
<style type="text/css">
	.st0{fill:none;stroke:#000000;stroke-width:0.5;stroke-linecap:round;stroke-linejoin:round;stroke-miterlimit:10;}
	.st1{fill:#00AEEF;stroke:#000000;stroke-width:0.5;stroke-miterlimit:10;}
	.st2{stroke:#000000;stroke-width:0.5;stroke-linecap:round;stroke-linejoin:round;stroke-miterlimit:10;}
	.st3{fill:#FFFFFF;stroke:#000000;stroke-width:0.5;stroke-linecap:round;stroke-linejoin:round;stroke-miterlimit:10;}
	.st4{fill:none;stroke:#00AEEF;stroke-width:0.5;stroke-linecap:round;stroke-linejoin:round;stroke-miterlimit:10;}
	.st5{fill:#FCB040;stroke:#000000;stroke-width:0.5;stroke-miterlimit:10;}
	.st6{fill:#FCB040;stroke:#000000;stroke-width:0.5;stroke-linecap:round;stroke-linejoin:round;stroke-miterlimit:10;}
	.st7{fill:#00AEEF;stroke:#000000;stroke-width:0.5;stroke-linecap:round;stroke-linejoin:round;stroke-miterlimit:10;}
	.st8{fill:none;stroke:#FCB040;stroke-width:0.5;stroke-miterlimit:10;}
	.st9{fill:#FFFFFF;stroke:#00AEEF;stroke-width:0.3802;stroke-linejoin:round;stroke-dasharray:2,2;}
	.st10{fill:#FFFFFF;stroke:#00AEEF;stroke-width:0.5;stroke-miterlimit:10;}
	.st11{fill:#FCB040;}
	.st12{fill:none;stroke:#FCB040;stroke-width:0.5;stroke-linecap:round;stroke-linejoin:round;stroke-miterlimit:10;}
	.st13{fill:#FFFFFF;stroke:#FCB040;stroke-width:0.3802;stroke-linejoin:round;stroke-dasharray:2,2;}
	.st14{fill:#FFFFFF;stroke:#FCB040;stroke-width:0.5;stroke-miterlimit:10;}
	.st15{fill:#00AEEF;}
	.st16{fill:#FFFFFF;stroke:#FCB040;stroke-width:0.5;stroke-linecap:round;stroke-linejoin:round;stroke-miterlimit:10;}
	.st17{fill:#00AEEF;stroke:#000000;stroke-width:0.2724;stroke-linecap:round;stroke-linejoin:round;stroke-miterlimit:10;}
	.st18{fill:#FFFFFF;stroke:#000000;stroke-width:0.2724;stroke-linecap:round;stroke-linejoin:round;stroke-miterlimit:10;}
	.st19{fill:#FCB040;stroke:#000000;stroke-width:0.2724;stroke-linecap:round;stroke-linejoin:round;stroke-miterlimit:10;}
	.st20{fill:#00AEEF;stroke:#000000;stroke-width:0.3981;stroke-linecap:round;stroke-linejoin:round;stroke-miterlimit:10;}
	.st21{fill:#FFFFFF;stroke:#000000;stroke-width:0.3981;stroke-linecap:round;stroke-linejoin:round;stroke-miterlimit:10;}
	.st22{fill:#FCB040;stroke:#000000;stroke-width:0.3981;stroke-linecap:round;stroke-linejoin:round;stroke-miterlimit:10;}
</style>
<g id="Cores">
</g>
<g id="Cobra_azul">
	<g>
		<path class="st0" d="M43.9,119.2c0.7,0.2,0.3,1.6,0.9,1.8c0.7,0.2,1.1-1.2,1.8-1c0.7,0.2,0.3,1.6,0.9,1.8c0.6,0.2,1,0,1.4-0.5"/>
		<path class="st1" d="M47.2,109.2c1.5-0.3,3-0.4,4.5-0.3c0.2,0,0.5,0,0.5,0c0-1.5,0-6.8,0-6.8c-2.2,0-4.5,0.3-6.6,0.8
			c-5.3,1.3-10.7,5-10.2,11.1c0.1,1.4,0.5,2.9,1.4,4c1.5,1.8,4,3.5,6.5,3.4c1.2,0,2.5-0.5,3.1-1.7c0.6-1.1,0.5-2.7-0.3-3.7
			c-0.4-0.4-0.9-0.8-1.4-1c-0.7-0.4-1.9-0.6-2.4-1.2c-0.6-0.7-0.6-1.6,0-2.2C43.6,110.3,45.4,109.6,47.2,109.2z"/>
		<path class="st2" d="M51.7,108.9l-2.7,0.1c3-0.9,2.6-3.6,2.6-3.6L51.7,108.9z"/>
		<circle class="st3" cx="43" cy="117.9" r="0.9"/>
	</g>
	<g>
		<path class="st4" d="M39.9,102.2c-1.4,0.7-2.6,1.6-3.6,2.7"/>
		<path class="st4" d="M38.3,101.4c-0.8,0.4-1.4,0.9-2,1.5"/>
	</g>
	<g>
		<path class="st1" d="M55.8,141c-1.2-2.5-0.4-5.2,1.9-6.8c1.2-0.8,2.7-1.2,3.9-2c1.6-1.2,2-3.1,2.5-4.9c0.6-2.2,2.9-3.5,5.2-2.9
			c2.2,0.6,3.5,2.9,2.9,5.2c-0.1,0.4-0.3,0.7-0.5,1.1l-0.1,0.1c-1,1.6-2.1,3.2-3.8,4.7c-1.9,1.5-4.1,2.2-6.5,2.3
			c-0.7,0-1.3,0-1.9,0.2c-1.2,0.4-1.7,1.2-1.7,2.4c0,0.5,0.1,1-0.3,1.4C56.7,142.4,56.1,141.6,55.8,141z"/>
		<path class="st2" d="M66.7,132.7c0,0,1.4,1.4,0.8,3l1.7-1.6L66.7,132.7z"/>
	</g>
</g>
<g id="Cobra_laranja_atrás">
	<path class="st5" d="M56.4,86.4c0.1,0.3,0.1,0.6,0,0.9c-0.1,0.5-0.3,1-0.3,1.5c0,2,1.9,3.1,3.5,3.7c0.2,0.1,2.6,1,2.6,1
		c-0.1,0-0.3,0.2-0.3,0.3c-0.2,0.2-0.5,0.3-0.7,0.5c-0.7,0.5-1.4,0.9-2.1,1.4c-0.7,0.4-1.3,0.8-2,1.2c-0.2,0.1-0.3,0.3-0.5,0.3
		c-0.3,0.1-0.7-0.3-0.9-0.5c-2.2-1.8-3.2-4.8-2.6-7.5c0.1-0.5,0.3-0.9,0.5-1.3c0.4-0.7,1.2-1.8,2.1-1.9C56,85.8,56.3,86.1,56.4,86.4
		z"/>
</g>
<g id="Cubo_rubik">
	<g id="cubo_2_">
		<g>
			<polygon class="st3" points="65.6,108 65.8,116.2 73,120 72.7,111.9 			"/>
			<polygon class="st3" points="72.5,103.7 65.6,108 72.7,111.9 79.7,107.6 			"/>
			<polygon class="st3" points="79.9,115.8 79.7,107.6 72.7,111.9 73,120 			"/>
		</g>
		<g>
			<polygon class="st3" points="65.3,99.9 65.6,108 72.7,111.9 72.5,103.7 			"/>
			<polygon class="st3" points="72.3,95.6 65.3,99.9 72.5,103.7 79.4,99.5 			"/>
			<polygon class="st3" points="79.7,107.6 79.4,99.5 72.5,103.7 72.7,111.9 			"/>
		</g>
		<g>
			<polygon class="st3" points="65.1,91.7 65.3,99.9 72.5,103.7 72.3,95.6 			"/>
			<polygon class="st3" points="72,87.5 65.1,91.7 72.3,95.6 79.2,91.3 			"/>
			<polygon class="st3" points="79.4,99.5 79.2,91.3 72.3,95.6 72.5,103.7 			"/>
		</g>
		<g>
			<polygon class="st3" points="72.7,111.9 73,120 80.2,123.9 79.9,115.8 			"/>
			<polygon class="st3" points="79.7,107.6 72.7,111.9 79.9,115.8 86.9,111.5 			"/>
			<polygon class="st3" points="87.1,119.6 86.9,111.5 79.9,115.8 80.2,123.9 			"/>
		</g>
		<g>
			<polygon class="st3" points="72.5,103.7 72.7,111.9 79.9,115.8 79.7,107.6 			"/>
			<polygon class="st3" points="79.4,99.5 72.5,103.7 79.7,107.6 86.6,103.3 			"/>
			<polygon class="st3" points="86.9,111.5 86.6,103.3 79.7,107.6 79.9,115.8 			"/>
		</g>
		<g>
			<polygon class="st3" points="72.3,95.6 72.5,103.7 79.7,107.6 79.4,99.5 			"/>
			<polygon class="st3" points="79.2,91.3 72.3,95.6 79.4,99.5 86.4,95.2 			"/>
			<polygon class="st3" points="86.6,103.3 86.4,95.2 79.4,99.5 79.7,107.6 			"/>
		</g>
		<g>
			<polygon class="st3" points="79.9,115.8 80.2,123.9 87.3,127.8 87.1,119.6 			"/>
			<polygon class="st3" points="86.9,111.5 79.9,115.8 87.1,119.6 94,115.3 			"/>
			<polygon class="st6" points="94.3,123.5 94,115.3 87.1,119.6 87.3,127.8 			"/>
		</g>
		<g>
			<polygon class="st3" points="79.7,107.6 79.9,115.8 87.1,119.6 86.9,111.5 			"/>
			<polygon class="st3" points="86.6,103.3 79.7,107.6 86.9,111.5 93.8,107.2 			"/>
			<polygon class="st3" points="94,115.3 93.8,107.2 86.9,111.5 87.1,119.6 			"/>
		</g>
		<g>
			<polygon class="st3" points="79.4,99.5 79.7,107.6 86.9,111.5 86.6,103.3 			"/>
			<polygon class="st7" points="86.4,95.2 79.4,99.5 86.6,103.3 93.6,99.1 			"/>
			<polygon class="st6" points="93.8,107.2 93.6,99.1 86.6,103.3 86.9,111.5 			"/>
		</g>
		<g>
			<polygon class="st3" points="58.6,112.3 58.9,120.4 66.1,124.3 65.8,116.2 			"/>
			<polygon class="st3" points="65.6,108 58.6,112.3 65.8,116.2 72.7,111.9 			"/>
			<polygon class="st3" points="73,120 72.7,111.9 65.8,116.2 66.1,124.3 			"/>
		</g>
		<g>
			<polygon class="st3" points="58.4,104.2 58.6,112.3 65.8,116.2 65.6,108 			"/>
			<polygon class="st3" points="65.3,99.9 58.4,104.2 65.6,108 72.5,103.7 			"/>
			<polygon class="st3" points="72.7,111.9 72.5,103.7 65.6,108 65.8,116.2 			"/>
		</g>
		<g>
			<polygon class="st3" points="58.2,96 58.4,104.2 65.6,108 65.3,99.9 			"/>
			<polygon class="st3" points="65.1,91.7 58.2,96 65.3,99.9 72.3,95.6 			"/>
			<polygon class="st3" points="72.5,103.7 72.3,95.6 65.3,99.9 65.6,108 			"/>
		</g>
		<g>
			<polygon class="st3" points="65.8,116.2 66.1,124.3 73.2,128.2 73,120 			"/>
			<polygon class="st3" points="72.7,111.9 65.8,116.2 73,120 79.9,115.8 			"/>
			<polygon class="st3" points="80.2,123.9 79.9,115.8 73,120 73.2,128.2 			"/>
		</g>
		<g>
			<polygon class="st3" points="65.6,108 65.8,116.2 73,120 72.7,111.9 			"/>
			<polygon class="st3" points="72.5,103.7 65.6,108 72.7,111.9 79.7,107.6 			"/>
			<polygon class="st3" points="79.9,115.8 79.7,107.6 72.7,111.9 73,120 			"/>
		</g>
		<g>
			<polygon class="st3" points="65.3,99.9 65.6,108 72.7,111.9 72.5,103.7 			"/>
			<polygon class="st3" points="72.3,95.6 65.3,99.9 72.5,103.7 79.4,99.5 			"/>
			<polygon class="st3" points="79.7,107.6 79.4,99.5 72.5,103.7 72.7,111.9 			"/>
		</g>
		<g>
			<polygon class="st3" points="73,120 73.2,128.2 80.4,132 80.2,123.9 			"/>
			<polygon class="st3" points="79.9,115.8 73,120 80.2,123.9 87.1,119.6 			"/>
			<polygon class="st3" points="87.3,127.8 87.1,119.6 80.2,123.9 80.4,132 			"/>
		</g>
		<g>
			<polygon class="st3" points="72.7,111.9 73,120 80.2,123.9 79.9,115.8 			"/>
			<polygon class="st3" points="79.7,107.6 72.7,111.9 79.9,115.8 86.9,111.5 			"/>
			<polygon class="st3" points="87.1,119.6 86.9,111.5 79.9,115.8 80.2,123.9 			"/>
		</g>
		<g>
			<polygon class="st3" points="72.5,103.7 72.7,111.9 79.9,115.8 79.7,107.6 			"/>
			<polygon class="st3" points="79.4,99.5 72.5,103.7 79.7,107.6 86.6,103.3 			"/>
			<polygon class="st3" points="86.9,111.5 86.6,103.3 79.7,107.6 79.9,115.8 			"/>
		</g>
		<g>
			<polygon class="st3" points="58.6,112.3 58.9,120.4 66.1,124.3 65.8,116.2 			"/>
			<polygon class="st3" points="65.6,108 58.6,112.3 65.8,116.2 72.7,111.9 			"/>
			<polygon class="st3" points="73,120 72.7,111.9 65.8,116.2 66.1,124.3 			"/>
		</g>
		<g>
			<polygon class="st3" points="58.4,104.2 58.6,112.3 65.8,116.2 65.6,108 			"/>
			<polygon class="st3" points="65.3,99.9 58.4,104.2 65.6,108 72.5,103.7 			"/>
			<polygon class="st3" points="72.7,111.9 72.5,103.7 65.6,108 65.8,116.2 			"/>
		</g>
		<g>
			<polygon class="st3" points="58.2,96 58.4,104.2 65.6,108 65.3,99.9 			"/>
			<polygon class="st6" points="65.1,91.7 58.2,96 65.4,99.9 72.3,95.6 			"/>
			<polygon class="st3" points="72.5,103.7 72.3,95.6 65.3,99.9 65.6,108 			"/>
		</g>
		<g>
			<polygon class="st3" points="65.8,116.2 66.1,124.3 73.2,128.2 73,120 			"/>
			<polygon class="st3" points="72.7,111.9 65.8,116.2 73,120 79.9,115.8 			"/>
			<polygon class="st3" points="80.2,123.9 79.9,115.8 73,120 73.2,128.2 			"/>
		</g>
		<g>
			<polygon class="st3" points="65.6,108 65.8,116.2 73,120 72.7,111.9 			"/>
			<polygon class="st3" points="72.5,103.7 65.6,108 72.7,111.9 79.7,107.6 			"/>
			<polygon class="st3" points="79.9,115.8 79.7,107.6 72.7,111.9 73,120 			"/>
		</g>
		<g>
			<polygon class="st3" points="65.3,99.9 65.6,108 72.7,111.9 72.5,103.7 			"/>
			<polygon class="st3" points="72.3,95.6 65.3,99.9 72.5,103.7 79.4,99.5 			"/>
			<polygon class="st3" points="79.7,107.6 79.4,99.5 72.5,103.7 72.7,111.9 			"/>
		</g>
		<g>
			<polygon class="st3" points="73,120 73.2,128.2 80.4,132 80.2,123.9 			"/>
			<polygon class="st3" points="79.9,115.8 73,120 80.2,123.9 87.1,119.6 			"/>
			<polygon class="st3" points="87.3,127.8 87.1,119.6 80.2,123.9 80.4,132 			"/>
		</g>
		<g>
			<polygon class="st3" points="72.7,111.9 73,120 80.2,123.9 79.9,115.8 			"/>
			<polygon class="st3" points="79.7,107.6 72.7,111.9 79.9,115.8 86.9,111.5 			"/>
			<polygon class="st3" points="87.2,119.6 86.9,111.5 80,115.7 80.2,123.9 			"/>
		</g>
		<g>
			<polygon class="st3" points="72.5,103.7 72.7,111.9 79.9,115.8 79.7,107.6 			"/>
			<polygon class="st3" points="79.4,99.5 72.5,103.7 79.7,107.6 86.6,103.3 			"/>
			<polygon class="st7" points="86.9,111.5 86.6,103.3 79.7,107.6 79.9,115.8 			"/>
		</g>
		<g>
			<polygon class="st7" points="51.7,116.6 51.9,124.7 59.1,128.6 58.9,120.4 			"/>
			<polygon class="st3" points="58.6,112.3 51.7,116.6 58.9,120.4 65.8,116.2 			"/>
			<polygon class="st3" points="66.1,124.3 65.8,116.2 58.9,120.4 59.1,128.6 			"/>
		</g>
		<g>
			<polygon class="st3" points="51.5,108.4 51.7,116.6 58.9,120.4 58.6,112.3 			"/>
			<polygon class="st3" points="58.4,104.2 51.5,108.4 58.6,112.3 65.6,108 			"/>
			<polygon class="st3" points="65.8,116.2 65.6,108 58.6,112.3 58.9,120.4 			"/>
		</g>
		<g>
			<polygon class="st7" points="51.2,100.3 51.5,108.4 58.6,112.3 58.4,104.2 			"/>
			<polygon class="st3" points="58.2,96 51.2,100.3 58.4,104.2 65.3,99.9 			"/>
			<polygon class="st3" points="65.6,108 65.3,99.9 58.4,104.2 58.6,112.3 			"/>
		</g>
		<g>
			<polygon class="st3" points="58.9,120.4 59.1,128.6 66.3,132.4 66.1,124.3 			"/>
			<polygon class="st3" points="65.8,116.2 58.9,120.4 66.1,124.3 73,120 			"/>
			<polygon class="st3" points="73.2,128.2 73,120 66.1,124.3 66.3,132.4 			"/>
		</g>
		<g>
			<polygon class="st6" points="58.6,112.3 58.9,120.4 66.1,124.3 65.8,116.2 			"/>
			<polygon class="st3" points="65.6,108 58.6,112.3 65.8,116.2 72.7,111.9 			"/>
			<polygon class="st3" points="73,120 72.7,111.9 65.8,116.2 66.1,124.3 			"/>
		</g>
		<g>
			<polygon class="st3" points="58.4,104.2 58.6,112.3 65.8,116.2 65.6,108 			"/>
			<polygon class="st6" points="65.3,99.9 58.4,104.2 65.6,108 72.5,103.7 			"/>
			<polygon class="st3" points="72.7,111.9 72.5,103.7 65.6,108 65.8,116.2 			"/>
		</g>
		<g>
			<polygon class="st6" points="66.1,124.3 66.3,132.4 73.5,136.3 73.2,128.2 			"/>
			<polygon class="st3" points="73,120 66.1,124.3 73.2,128.2 80.2,123.9 			"/>
			<polygon class="st7" points="80.4,132 80.2,123.9 73.2,128.2 73.5,136.3 			"/>
		</g>
		<g>
			<polygon class="st3" points="65.8,116.2 66.1,124.3 73.2,128.2 73,120 			"/>
			<polygon class="st3" points="72.7,111.9 65.8,116.2 73,120 79.9,115.8 			"/>
			<polygon class="st6" points="80.2,123.9 79.9,115.8 73,120 73.2,128.2 			"/>
		</g>
		<g>
			<polygon class="st3" points="65.6,108 65.8,116.2 73,120 72.7,111.9 			"/>
			<polygon class="st7" points="72.5,103.7 65.6,108 72.7,111.9 79.7,107.6 			"/>
			<polygon class="st3" points="79.9,115.8 79.7,107.6 72.7,111.9 73,120 			"/>
		</g>
	</g>
	<ellipse transform="matrix(0.999 -4.553725e-02 4.553725e-02 0.999 -4.4635 3.4)" cx="72.4" cy="99.7" rx="1.4" ry="0.8"/>
</g>
<g id="Cobra_laranja_frente">
	<g>
		<path class="st0" d="M102.9,90.3c0.7-0.1,0.4-1.6,1.1-1.7c0.7-0.1,1,1.3,1.7,1.2c0.9-0.2,0.3-1.7,1.3-1.8c0.5,0,0.9,0.2,1.1,0.6"
			/>
		<path class="st5" d="M103.2,99.8c-0.4-1.3-0.7-2.6-0.9-3.9c-0.1-1.7,1.3-2.3,2.3-3.4c0.7-0.8,1.2-1.8,1.1-2.8
			c-0.1-1.6-1.4-2.8-2.9-3.1c-3.2-0.6-6.6,1.7-7.5,4.8c-0.5,1.8-0.4,3.8,0,5.6c0.4,1.8,0.8,3.6,1.2,5.4c0.3,1.3,0.7,2.8,0.4,4.1
			c-0.2,1.1-0.8,2.2-1.6,3c-0.8,0.9-1.7,1.6-2.6,2.3c-1.1,0.7-2.3,1.4-3.5,1.8c-1.3,0.5-2.5,0.8-3.9,0.9c-0.9,0.1-1.9,0.3-2.6,0.9
			c-0.7,0.6-1.2,1.4-1.4,2.2c-0.3,1.2-0.3,2.7,0.7,3.6c0.7,0.6,1.9,0.6,2.8,0.6c1.4,0,2.7-0.3,4-0.7c2.5-0.8,4.9-1.7,7.2-3
			c2-1.2,3.9-2.7,5.3-4.5c0.3-0.4,0.6-0.8,0.9-1.3c0.9-1.6,1.5-3.3,1.7-5.2C104.2,104.4,103.8,102.1,103.2,99.8z"/>
		<circle class="st3" cx="101.7" cy="89.8" r="0.9"/>
	</g>
	<g>
		<path class="st8" d="M104.2,113.2c0.8-1.3,1.3-2.8,1.6-4.3"/>
		<path class="st8" d="M106.2,113.1c0.5-0.8,0.8-1.7,1-2.6"/>
	</g>
</g>
<g id="SciPy">
	<line class="st4" x1="41" y1="67.6" x2="72.4" y2="99.7"/>
	<circle class="st9" cx="41" cy="68.1" r="10"/>
	<circle class="st10" cx="41" cy="68.1" r="8.5"/>
	<g>
		<g>
			<g>
				<path class="st11" d="M37.6,70.4c0.2,0,0.4,0,0.6,0.2c0.1,0.1,0.2,0.2,0.2,0.4c0,0,0,0.1,0,0.1c-0.1,0-0.2,0.1-0.4,0.1
					c0,0-0.1,0-0.1-0.1c-0.1-0.2-0.3-0.3-0.5-0.2c-0.1,0-0.2,0.1-0.1,0.2c0,0.1,0.1,0.2,0.2,0.2c0.2,0.1,0.4,0.1,0.6,0.2
					c0.3,0.1,0.4,0.3,0.4,0.6c0,0.4-0.4,0.7-0.8,0.7c-0.2,0-0.5,0-0.7-0.1c-0.2-0.1-0.3-0.3-0.3-0.5c0,0,0-0.1,0-0.1
					c0.1,0,0.3,0,0.4-0.1c0,0,0,0,0.1,0c0.1,0.3,0.4,0.4,0.7,0.3c0.1,0,0.1-0.1,0.1-0.2c0-0.1,0-0.2-0.1-0.2
					c-0.1-0.1-0.3-0.1-0.4-0.1c-0.2-0.1-0.4-0.2-0.5-0.4c-0.1-0.3,0-0.6,0.2-0.8C37.1,70.4,37.3,70.4,37.6,70.4z"/>
				<path class="st11" d="M42.4,70.4c0.2,0,0.4,0,0.6,0c0.4,0,0.6,0.3,0.6,0.6c0,0.2-0.1,0.4-0.2,0.6c-0.2,0.2-0.4,0.2-0.6,0.2
					c-0.2,0-0.3,0-0.5,0c-0.1,0-0.1,0-0.1,0.1c0,0.2-0.1,0.5-0.1,0.7c0,0.1,0,0.1-0.1,0.1c-0.1,0-0.2,0-0.4,0c0,0-0.1,0-0.1-0.1
					c0.1-0.5,0.2-0.9,0.2-1.4c0-0.3,0.1-0.5,0.1-0.8c0-0.1,0-0.1,0.1-0.1C42.1,70.4,42.2,70.4,42.4,70.4
					C42.4,70.4,42.4,70.4,42.4,70.4z M42.6,70.8C42.6,70.8,42.6,70.8,42.6,70.8c-0.1,0-0.1,0-0.1,0c0,0-0.1,0-0.1,0
					c0,0.2-0.1,0.4-0.1,0.5c0,0,0,0.1,0,0.1c0.1,0,0.3,0,0.4,0c0.2,0,0.3-0.1,0.3-0.2c0-0.1,0-0.3-0.2-0.3
					C42.8,70.8,42.7,70.8,42.6,70.8z"/>
				<path class="st11" d="M44.4,72C44.5,72,44.5,72,44.4,72c0.2-0.4,0.3-0.6,0.4-0.9c0,0,0-0.1,0.1-0.1c0.1,0,0.2,0,0.3,0
					c0,0,0,0,0,0.1c-0.3,0.6-0.6,1.2-0.9,1.8c-0.1,0.1-0.1,0.2-0.2,0.3c-0.1,0.1-0.3,0.1-0.5,0.1c-0.2,0-0.2,0-0.2-0.2
					c0-0.1,0-0.1,0-0.2c0-0.1,0-0.1,0.1-0.1c0.1,0,0.2,0,0.3,0c0.1,0,0.2-0.2,0.2-0.3c-0.1-0.5-0.2-1-0.4-1.5c0-0.1,0-0.1,0.1-0.1
					c0.1,0,0.3,0,0.4,0c0.1,0,0.1,0,0.1,0.1C44.3,71.4,44.4,71.6,44.4,72C44.4,71.9,44.4,72,44.4,72C44.4,72,44.4,72,44.4,72z"/>
				<path class="st11" d="M40.1,71.7C40,71.7,40,71.7,40.1,71.7c-0.2,0-0.2,0-0.2-0.1c0-0.1-0.1-0.2-0.2-0.2c-0.1,0-0.2,0-0.3,0.1
					c-0.1,0.1-0.1,0.3-0.1,0.4c0,0.1,0,0.1,0,0.2c0,0.1,0.1,0.2,0.2,0.3c0.1,0,0.3,0,0.3-0.1c0,0,0-0.1,0.1-0.1c0,0,0-0.1,0.1,0
					c0.1,0,0.2,0,0.3,0c0,0,0.1,0,0,0.1c-0.1,0.2-0.2,0.4-0.5,0.5c-0.5,0.2-1,0-1.1-0.7c0-0.4,0.1-0.7,0.4-0.9
					c0.2-0.2,0.7-0.2,1-0.1c0.2,0.1,0.3,0.3,0.3,0.5c0,0,0,0,0,0C40.2,71.6,40.1,71.6,40.1,71.7z"/>
				<path class="st11" d="M41,71c0.1,0,0.1,0,0.2,0c0,0,0.1,0,0,0.1c-0.1,0.5-0.2,1-0.3,1.6c0,0.1,0,0.1-0.1,0.1c-0.1,0-0.2,0-0.3,0
					c-0.1,0-0.1,0-0.1-0.1c0.1-0.5,0.2-0.9,0.2-1.4c0,0,0-0.1,0-0.1c0-0.1,0-0.1,0.2-0.1C40.9,71,41,71,41,71L41,71z"/>
			</g>
			<path class="st11" d="M41.1,70.4c0.1,0,0.1,0,0.2,0c0,0,0.1,0,0,0.1c0,0.1,0,0.3-0.1,0.4c0,0,0,0-0.1,0c-0.1,0-0.3,0-0.4,0
				c0,0-0.1,0,0-0.1c0-0.1,0-0.3,0.1-0.4c0,0,0-0.1,0.1-0.1C41,70.4,41.1,70.4,41.1,70.4L41.1,70.4z"/>
		</g>
		<path class="st11" d="M37.9,68c-0.1-0.2-0.2-0.4-0.2-0.6c-0.1-0.4-0.2-0.9-0.1-1.4c0.2-1.1,0.7-1.9,1.7-2.5
			c0.3-0.2,0.7-0.3,1.1-0.4c0.4-0.1,0.7-0.1,1.1,0c0.4,0.1,0.9,0.2,1.2,0.4c0.4,0.3,0.8,0.6,1.1,1c0.1,0.1,0.2,0.3,0.2,0.4
			c0,0.1,0.1,0.1,0.1,0.1c0.1,0,0.1-0.1,0.2-0.2c0-0.1,0-0.1,0.1-0.2c0,0,0-0.1,0.1-0.1c0.1,0,0.1,0.1,0,0.1c0,0.1,0,0.1-0.1,0.2
			c0,0.1,0,0.1,0.1,0.1c0.1,0,0.1,0.1,0.2,0.1c0,0,0.1,0.1,0,0.1c0,0-0.1,0-0.1,0c-0.1,0-0.2-0.1-0.3-0.1c0,0-0.2,0-0.2,0
			c0,0,0,0.1,0,0.1c0.1,0.3,0.2,0.6,0.2,1c0,0.3,0,0.5-0.1,0.8c-0.1,0.5-0.3,1-0.7,1.4c-0.4,0.5-0.8,0.8-1.4,1
			c-0.6,0.2-1.2,0.3-1.7,0.2c-0.6-0.1-1.2-0.3-1.7-0.7c-0.2-0.2-0.3-0.4-0.5-0.5c0,0,0-0.1,0-0.1c0.2-0.2,0.5-0.4,0.7-0.5
			c0.1-0.1,0.2-0.2,0.3-0.2c0.2-0.1,0.3-0.1,0.4,0.1c0.2,0.2,0.3,0.4,0.4,0.6c0.5,0.7,1.3,0.7,1.9,0.2c0.4-0.4,0.5-0.8,0.3-1.3
			c-0.1-0.3-0.3-0.5-0.6-0.6c-0.2-0.1-0.5-0.2-0.7-0.2c-0.2-0.1-0.5-0.1-0.7-0.2c-0.1,0-0.2-0.1-0.2-0.2c-0.2-0.3-0.2-0.6,0-0.9
			c0.3-0.5,1-0.6,1.4-0.1c0.2,0.2,0.4,0.5,0.5,0.7c0.2,0.2,0.3,0.4,0.6,0.4c0.2,0,0.3,0,0.5-0.1c0,0,0,0,0.1,0c0.1,0,0.2-0.1,0.2,0
			c0,0.1,0.1,0,0.1,0c0,0,0.1,0,0.1-0.1c0.1-0.1,0.2-0.2,0.3-0.3c0.1-0.1,0.1-0.1,0-0.2c0,0,0,0,0-0.1c-0.1-0.1-0.1-0.2-0.3-0.2
			c-0.1,0-0.3,0-0.4,0c-0.1,0-0.1,0-0.1,0.2c0,0,0,0.1,0,0.1c-0.1,0.1-0.2,0.2-0.4,0.1c-0.2,0-0.3-0.1-0.3-0.3
			c-0.2-0.3-0.4-0.5-0.6-0.8c-0.4-0.4-1.1-0.6-1.6-0.2c-0.3,0.2-0.5,0.5-0.6,0.8c-0.1,0.4,0,0.7,0.2,1c0.2,0.3,0.4,0.4,0.7,0.5
			c0.3,0.1,0.6,0.1,0.8,0.2c0.2,0.1,0.4,0.1,0.5,0.3c0.2,0.2,0.2,0.6,0.1,0.8c-0.2,0.5-1,0.6-1.3,0.1c-0.2-0.2-0.3-0.4-0.5-0.7
			c-0.2-0.3-0.4-0.4-0.7-0.3c-0.1,0-0.2,0.1-0.3,0.1C38.7,67.5,38.3,67.7,37.9,68C38,68,38,68,37.9,68z"/>
	</g>
</g>
<g id="Jupyter">
	<line class="st12" x1="72.4" y1="99.7" x2="54.5" y2="42.8"/>
	<circle class="st13" cx="54.5" cy="42.7" r="14.2"/>
	<circle class="st14" cx="54.5" cy="42.8" r="12.2"/>
	<g>
		<path class="st15" d="M48.3,44.8c0.1,0.1,0.2,0.2,0.2,0.2c0.4,0.4,1,0.8,1.5,1.1c0.7,0.4,1.4,0.6,2.2,0.7c0.5,0.1,1.1,0.2,1.6,0.2
			c0.6,0,1.1,0,1.7-0.1c1-0.1,2-0.4,3-0.9c0.6-0.3,1.1-0.7,1.6-1.2c0,0,0.1-0.1,0.1-0.1c0,0.3-0.7,1.5-1.2,2
			c-0.5,0.6-1.2,1.1-1.9,1.4c-0.7,0.4-1.5,0.6-2.3,0.6C51.6,49.1,49.1,47,48.3,44.8z"/>
		<path class="st15" d="M48.4,40.4c0.7-2.1,2.8-4,5.6-4.1c3.1-0.2,5.5,1.9,6.3,4.1c0-0.1-0.1-0.1-0.1-0.1c-0.5-0.5-1.1-0.9-1.7-1.2
			c-0.7-0.3-1.4-0.6-2.2-0.7c-0.7-0.1-1.5-0.2-2.2-0.2c-0.4,0-0.9,0-1.3,0.1c-0.8,0.1-1.6,0.3-2.3,0.7c-0.7,0.3-1.4,0.8-2,1.4
			C48.4,40.3,48.4,40.4,48.4,40.4C48.4,40.4,48.4,40.4,48.4,40.4z"/>
		<path class="st15" d="M48.4,49.7c0-0.6,0.5-1.2,1.2-1.2c0.7,0,1.2,0.5,1.2,1.2c0,0.7-0.5,1.2-1.2,1.2
			C48.9,50.9,48.4,50.4,48.4,49.7z"/>
		<path class="st15" d="M59,36.9c-0.5,0-1-0.4-1-1c0-0.5,0.4-1,1-1c0.5,0,0.9,0.4,0.9,1C59.9,36.5,59.5,36.9,59,36.9z"/>
		<path class="st15" d="M51.9,41.9c0.1-0.1,0.2-0.2,0.3-0.3c0.4-0.2,0.9-0.1,1.2,0.4c0.2,0.4,0.2,0.8,0,1.2
			c-0.3,0.5-0.8,0.6-1.2,0.4c-0.1-0.1-0.2-0.1-0.3-0.2c0,0,0,0,0,0.1c0,0.3,0,0.7,0,1c0,0,0,0.1-0.1,0.1c-0.1,0-0.2,0-0.3,0
			c0,0-0.1,0-0.1-0.1c0-0.5,0-1.1,0-1.6c0-0.4,0-0.7,0-1.1c0,0,0-0.1,0-0.1c0-0.1,0-0.1,0.1-0.1c0.1,0,0.1,0,0.2,0
			c0.1,0,0.1,0,0.1,0.1C51.9,41.7,51.9,41.8,51.9,41.9z M52,42.6c0,0.1,0,0.1,0,0.2c0,0.3,0.2,0.5,0.4,0.5c0.3,0.1,0.5,0,0.7-0.3
			c0.2-0.3,0.2-0.6,0-0.9c-0.1-0.2-0.2-0.3-0.5-0.3c-0.3,0-0.6,0.2-0.6,0.5C52,42.4,52,42.5,52,42.6z"/>
		<path class="st15" d="M58.8,42.7c-0.2,0-0.5,0-0.7,0c0,0-0.1,0-0.1,0.1c0,0.4,0.3,0.7,0.7,0.7c0.2,0,0.4,0,0.6-0.1c0,0,0,0,0,0
			c0,0.1,0,0.1,0.1,0.2c0,0,0,0,0,0c-0.2,0.1-0.5,0.1-0.7,0.1c-0.2,0-0.4,0-0.5-0.1c-0.3-0.2-0.5-0.5-0.5-0.9c0-0.2,0-0.4,0.1-0.6
			c0.2-0.5,0.8-0.7,1.3-0.5c0.2,0.1,0.3,0.3,0.4,0.6c0,0.1,0,0.3,0,0.4c0,0,0,0.1-0.1,0.1C59.2,42.7,59,42.7,58.8,42.7z M58.6,42.4
			c0.2,0,0.3,0,0.5,0c0,0,0,0,0,0c0-0.3-0.2-0.6-0.5-0.6c-0.3,0-0.6,0.3-0.6,0.6c0,0,0,0,0,0C58.3,42.4,58.4,42.4,58.6,42.4z"/>
		<path class="st15" d="M50.5,43.3c-0.1,0.2-0.3,0.3-0.5,0.4c-0.3,0.1-0.5,0-0.7-0.2c-0.1-0.1-0.2-0.3-0.2-0.5c0-0.2,0-0.3,0-0.5
			c0-0.3,0-0.6,0-0.9c0,0,0-0.1,0.1-0.1c0.1,0,0.2,0,0.3,0c0,0,0.1,0,0.1,0.1c0,0.4,0,0.7,0,1.1c0,0.1,0,0.2,0,0.3
			c0.1,0.3,0.3,0.4,0.6,0.3c0.2-0.1,0.4-0.3,0.4-0.5c0-0.4,0-0.8,0-1.2c0-0.1,0-0.1,0.1-0.1c0.1,0,0.2,0,0.3,0c0,0,0.1,0,0.1,0.1
			c0,0.5,0,0.9,0,1.4c0,0.2,0,0.4,0,0.6c0,0,0,0,0,0c-0.1,0-0.2,0-0.3,0c0,0,0,0,0,0C50.5,43.5,50.5,43.4,50.5,43.3z"/>
		<path class="st15" d="M54.8,43.2c0.1-0.2,0.1-0.4,0.2-0.6c0.1-0.3,0.2-0.7,0.3-1c0,0,0-0.1,0.1,0c0.1,0,0.2,0,0.3,0c0,0,0,0,0,0
			c-0.3,0.7-0.5,1.5-0.9,2.2c-0.1,0.2-0.2,0.4-0.4,0.6c-0.1,0.1-0.2,0.2-0.4,0.2c0,0,0,0-0.1,0c0-0.1,0-0.2-0.1-0.3c0,0,0,0,0,0
			c0.3-0.1,0.5-0.3,0.6-0.6c0-0.1,0-0.1,0-0.2c-0.2-0.5-0.4-1-0.6-1.6c0-0.1-0.1-0.2-0.1-0.3c0,0,0,0,0,0c0.1,0,0.2,0,0.3,0
			c0,0,0,0,0.1,0C54.5,42.1,54.7,42.7,54.8,43.2C54.8,43.2,54.8,43.2,54.8,43.2z"/>
		<path class="st15" d="M49.3,37.2c0,0.4-0.3,0.7-0.7,0.7c-0.4,0-0.7-0.3-0.7-0.7c0-0.4,0.3-0.7,0.7-0.7
			C49,36.5,49.3,36.8,49.3,37.2z"/>
		<path class="st15" d="M56.8,41c0,0,0,0.1,0,0.1c0,0.1,0,0.3,0,0.4c0,0,0,0.1,0.1,0.1c0.1,0,0.3,0,0.4,0c0,0,0.1,0,0.1,0.1
			c0,0.1,0,0.1,0,0.2c0,0,0,0,0,0c-0.2,0-0.3,0-0.5,0c0,0-0.1,0-0.1,0.1c0,0.4,0,0.7,0,1.1c0,0.1,0,0.1,0,0.2c0,0.1,0.1,0.2,0.2,0.2
			c0.1,0,0.1,0,0.2,0c0,0,0,0,0,0c0,0.1,0,0.1,0,0.2c0,0,0,0,0,0c-0.2,0.1-0.4,0.1-0.6,0c-0.2-0.1-0.3-0.3-0.3-0.5
			c0-0.2,0-0.3,0-0.5c0-0.3,0-0.5,0-0.8c0,0,0-0.1-0.1-0.1c-0.1,0-0.2,0-0.2,0c0,0,0,0,0,0c0-0.1,0-0.1,0-0.2c0,0,0,0,0,0
			c0.1,0,0.1,0,0.2,0c0.1,0,0.1,0,0.1-0.1c0-0.1,0-0.3,0-0.4c0,0,0-0.1,0-0.1C56.6,41,56.7,41,56.8,41z"/>
		<path class="st15" d="M48.4,42.7c0,0.2,0,0.6,0,0.9c0,0.3-0.1,0.5-0.2,0.7c-0.1,0.1-0.3,0.2-0.4,0.2c-0.1,0-0.1,0-0.2,0
			c0,0,0,0,0,0c0-0.1,0-0.1,0-0.2c0,0,0,0,0,0c0.1,0,0.2,0,0.3-0.1c0.1-0.1,0.2-0.2,0.2-0.3c0-0.1,0-0.2,0-0.4c0-0.6,0-1.2,0-1.8
			c0-0.1,0-0.1,0.1-0.1c0.1,0,0.2,0,0.3,0c0,0,0.1,0,0.1,0.1C48.4,42,48.4,42.3,48.4,42.7z"/>
		<path class="st15" d="M60.4,42C60.5,42,60.5,41.9,60.4,42c0.1-0.3,0.4-0.5,0.6-0.5c0,0,0.1,0,0.1,0.1c0,0.1,0,0.2,0,0.3
			c0,0,0,0.1-0.1,0.1c-0.3,0-0.5,0.1-0.6,0.4c0,0.1,0,0.2,0,0.3c0,0.3,0,0.7,0,1c0,0.1,0,0.1-0.1,0.1c-0.1,0-0.2,0-0.3,0
			c0,0-0.1,0-0.1-0.1c0-0.4,0-0.9,0-1.3c0-0.2,0-0.4,0-0.7c0,0,0,0,0,0c0.1,0,0.2,0,0.3,0c0,0,0,0,0,0C60.4,41.7,60.4,41.8,60.4,42
			C60.4,41.9,60.4,42,60.4,42z"/>
	</g>
</g>
<g id="xlwings">
	<line class="st12" x1="77.2" y1="22.6" x2="72.4" y2="99.7"/>
	<circle class="st13" cx="77.2" cy="22.6" r="11.5"/>
	<circle class="st14" cx="77.2" cy="22.6" r="9.8"/>
	<g>
		<path class="st15" d="M82,23.2c0-0.1,0-0.1,0-0.2c0.2,0,0.3,0,0.5,0c0,0,0,0,0,0.1c0,0.7,0,1.5,0,2.2c0,0.2,0,0.5-0.2,0.7
			c-0.2,0.2-0.4,0.3-0.7,0.4c-0.3,0-0.5,0-0.7-0.1c-0.2-0.2-0.4-0.4-0.4-0.7c0,0,0,0,0-0.1c0.1,0,0.3,0,0.4,0c0,0,0,0,0,0.1
			c0.1,0.4,0.7,0.5,0.9,0.3c0.1-0.1,0.2-0.2,0.2-0.4c0-0.2,0-0.3,0-0.5c0,0,0,0,0,0c0,0,0,0-0.1,0c-0.5,0.4-1.3,0.3-1.5-0.4
			c-0.2-0.5-0.1-0.9,0.2-1.3C81,22.8,81.6,22.8,82,23.2C82,23.2,82,23.2,82,23.2C82,23.2,82,23.2,82,23.2z M80.8,24.1
			c0,0.1,0,0.2,0.1,0.3c0.1,0.2,0.2,0.4,0.5,0.4c0.2,0,0.4,0,0.6-0.2c0.2-0.3,0.2-0.6,0-0.9c-0.2-0.4-0.7-0.4-1-0.1
			C80.9,23.7,80.8,23.9,80.8,24.1z"/>
		<path class="st15" d="M73.4,23c0.2,0,0.3,0,0.5,0c0,0,0.1,0,0.1,0.1c0.2,0.4,0.3,0.7,0.5,1.1c0,0,0,0,0,0c0,0,0,0,0,0c0,0,0,0,0,0
			c0.1-0.2,0.2-0.4,0.3-0.6c0.1-0.2,0.2-0.5,0.3-0.8c0,0.1,0.1,0.2,0.1,0.3c0.2,0.4,0.3,0.7,0.5,1.1c0,0,0,0,0,0c0,0,0,0,0-0.1
			c0.2-0.4,0.3-0.7,0.5-1.1c0-0.1,0.1-0.1,0.1-0.1c0.1,0,0.3,0,0.4,0c-0.4,0.8-0.7,1.5-1.1,2.3c0-0.1-0.1-0.2-0.1-0.2
			c-0.2-0.4-0.3-0.7-0.5-1.1c0,0,0,0,0-0.1c0,0,0,0,0,0.1c-0.2,0.4-0.4,0.8-0.5,1.3c0,0,0,0,0,0C74.1,24.5,73.7,23.7,73.4,23z"/>
		<path class="st15" d="M79.4,25.1c0-0.4,0-0.8,0-1.2c0-0.1,0-0.2,0-0.2c0-0.3-0.2-0.4-0.5-0.4c-0.2,0-0.3,0.1-0.3,0.3
			c0,0.1,0,0.3,0,0.4c0,0.3,0,0.7,0,1c0,0.1,0,0.1-0.1,0.1c-0.1,0-0.2,0-0.3,0c0,0-0.1,0-0.1-0.1c0-0.7,0-1.4,0-2.1c0,0,0,0,0,0
			c0.2,0,0.3,0,0.5,0c0,0.1,0,0.1,0,0.2c0,0,0.1,0,0.1-0.1c0.3-0.3,0.9-0.3,1.1,0.1c0.1,0.1,0.1,0.3,0.1,0.5c0,0.4,0,0.9,0,1.3
			c0,0.2,0,0.2-0.2,0.2C79.7,25.1,79.6,25.1,79.4,25.1C79.5,25.1,79.5,25.1,79.4,25.1z"/>
		<path class="st15" d="M72.4,25.1c-0.2,0-0.4,0-0.5,0c0,0-0.1,0-0.1,0c-0.2-0.2-0.4-0.5-0.5-0.7c0-0.1-0.1-0.1-0.1,0
			c-0.2,0.2-0.4,0.5-0.6,0.7c0,0-0.1,0.1-0.1,0.1c-0.2,0-0.3,0-0.5,0c0.1-0.1,0.2-0.2,0.2-0.3c0.2-0.3,0.4-0.5,0.7-0.8
			c0,0,0-0.1,0-0.1c-0.2-0.3-0.4-0.6-0.7-0.9c0,0,0,0-0.1-0.1c0,0,0,0,0.1,0c0.1,0,0.3,0,0.4,0c0,0,0.1,0,0.1,0.1
			c0.1,0.2,0.3,0.3,0.4,0.5c0,0.1,0.1,0.1,0.1,0c0.1-0.2,0.3-0.3,0.4-0.5c0-0.1,0.1-0.1,0.2-0.1c0.2,0,0.3,0,0.5,0
			c-0.1,0.1-0.1,0.1-0.2,0.2c-0.2,0.2-0.4,0.5-0.6,0.7c0,0.1,0,0.1,0,0.1C71.8,24.4,72.1,24.7,72.4,25.1
			C72.4,25.1,72.4,25.1,72.4,25.1z"/>
		<path class="st15" d="M78.8,18.7c-0.9,0.7-1.4,1.6-1.6,2.7c-0.5-0.8-1.2-1.3-2.2-1.3c0.3-0.2,0.7-0.3,1-0.2c0.4,0,0.7,0.2,1,0.4
			C77.3,19.5,77.9,18.9,78.8,18.7z"/>
		<path class="st15" d="M82.9,24.7c0.1-0.1,0.3-0.1,0.4-0.2c0,0,0.1,0.1,0.1,0.1c0.1,0.1,0.2,0.2,0.3,0.2c0.1,0,0.2,0,0.2-0.1
			c0-0.1,0-0.2-0.1-0.3c-0.1-0.1-0.2-0.1-0.3-0.2c-0.1,0-0.2-0.1-0.2-0.1c-0.2-0.1-0.3-0.3-0.3-0.6c0-0.3,0.3-0.5,0.6-0.5
			c0.3,0,0.5,0.1,0.7,0.4c-0.1,0.1-0.2,0.1-0.4,0.2c0,0-0.1-0.1-0.1-0.1c-0.1-0.1-0.2-0.1-0.3,0c-0.1,0.1-0.1,0.2,0,0.2
			c0.1,0.1,0.2,0.1,0.3,0.2c0.1,0.1,0.2,0.1,0.4,0.2c0.2,0.1,0.2,0.3,0.2,0.5c-0.1,0.5-0.5,0.7-0.9,0.6c-0.2,0-0.4-0.2-0.5-0.4
			C82.9,24.8,82.9,24.7,82.9,24.7C82.9,24.7,82.9,24.7,82.9,24.7z"/>
		<path class="st15" d="M73.1,21.9c0,1.1,0,2.2,0,3.3c-0.2,0-0.3,0-0.5,0c0,0,0,0,0,0c0,0,0,0,0,0c0-1,0-2.1,0-3.1c0,0,0,0,0-0.1
			C72.8,21.9,73,21.9,73.1,21.9z"/>
		<path class="st15" d="M77.1,23c0.1,0,0.3,0,0.4,0c0.1,0,0.1,0,0.1,0.1c0,0.2,0,0.3,0,0.5c0,0.5,0,1,0,1.5c0,0.1,0,0.1-0.1,0.1
			c-0.1,0-0.2,0-0.3,0c0,0-0.1,0-0.1-0.1C77.1,24.4,77.1,23.7,77.1,23C77.1,23,77.1,23,77.1,23z"/>
		<path class="st15" d="M78.9,20.6c0,0.2,0,0.4,0,0.6c0,0,0,0,0,0.1c-0.3,0.2-0.6,0.4-0.9,0.5c0,0,0,0,0,0c0-0.1,0-0.3,0-0.4
			c0-0.1,0-0.2,0.2-0.2C78.3,21,78.6,20.8,78.9,20.6C78.8,20.6,78.8,20.6,78.9,20.6z"/>
		<path class="st15" d="M77.9,22.4c0-0.2,0-0.3,0-0.5c0,0,0,0,0,0c0.3-0.1,0.6-0.3,0.9-0.5c0,0,0,0,0,0c0,0.2,0,0.4,0,0.6
			c0,0,0,0,0,0.1C78.5,22.2,78.2,22.3,77.9,22.4C77.9,22.4,77.9,22.4,77.9,22.4z"/>
		<path class="st15" d="M77.9,21.1c0-0.2,0-0.4,0-0.5c0,0,0-0.1,0.1-0.1c0.2-0.1,0.4-0.2,0.6-0.4c0.1-0.1,0.2-0.1,0.3-0.2
			c0,0.1,0,0.1,0,0.2c0,0.1,0,0.2,0,0.4c0,0,0,0.1,0,0.1C78.6,20.8,78.2,21,77.9,21.1z"/>
		<path class="st15" d="M76.8,22.6c0-0.2,0-0.4,0-0.5c0.3,0,0.7-0.1,1-0.1c0,0.1,0,0.1,0,0.2c0,0.1,0,0.1,0,0.2c0,0.1,0,0.1-0.1,0.2
			C77.4,22.5,77.1,22.5,76.8,22.6C76.8,22.6,76.8,22.6,76.8,22.6z"/>
		<path class="st15" d="M75.7,21.8c0.1,0,0.2,0.1,0.3,0.1c0.2,0,0.4,0.1,0.5,0.1c0.1,0,0.1,0,0.1,0.1c0,0.1,0,0.3,0,0.4
			c-0.3,0-0.7-0.1-1-0.2c0,0,0,0,0-0.1C75.7,22.1,75.7,22,75.7,21.8z"/>
		<path class="st15" d="M75.7,21.2c0.1,0,0.3,0.1,0.4,0.1c0.2,0,0.4,0.1,0.5,0.1c0.1,0,0.1,0,0.1,0.1c0,0.1,0,0.3,0,0.4
			c0,0.1,0,0.1-0.1,0.1c-0.3,0-0.6-0.1-0.9-0.2c0,0,0,0,0-0.1C75.7,21.5,75.7,21.3,75.7,21.2z"/>
		<path class="st15" d="M77.3,21.6c0-0.1,0-0.2,0-0.2c0,0,0-0.1,0-0.1c0.1,0,0.3-0.1,0.4-0.1c0,0.1,0,0.3,0,0.4c0,0.2,0,0.2-0.2,0.2
			c-0.3,0-0.5,0.1-0.8,0.1c0,0,0,0-0.1,0c0-0.2,0-0.4,0-0.6c0.1,0,0.2,0,0.3,0c0,0,0,0,0.1,0.1C77.2,21.5,77.2,21.6,77.3,21.6
			C77.3,21.6,77.3,21.6,77.3,21.6z"/>
		<path class="st15" d="M75.7,20.5c0.1,0,0.2,0.1,0.2,0.1c0.2,0,0.4,0.1,0.6,0.1c0.1,0,0.2,0.1,0.2,0.2c0,0.1,0,0.2,0,0.3
			c0,0,0,0.1-0.1,0.1c-0.3,0-0.6-0.1-0.9-0.2c0,0,0,0,0-0.1C75.7,20.8,75.7,20.7,75.7,20.5z"/>
		<path class="st15" d="M77.4,21.2c0-0.2,0.1-0.3,0.1-0.4c0-0.2,0.1-0.2,0.3-0.2c0,0.2,0,0.3,0,0.5c0,0,0,0,0,0
			C77.6,21.2,77.5,21.2,77.4,21.2z"/>
		<path class="st15" d="M77,21.3c-0.1,0-0.1,0-0.2,0c0,0-0.1,0-0.1-0.1c0-0.1,0-0.2,0-0.2C76.9,21.1,77,21.2,77,21.3z"/>
	</g>
</g>
<g id="Pandas">
	<line class="st4" x1="93" y1="49.3" x2="72.4" y2="99.7"/>
	<circle class="st9" cx="93" cy="49.3" r="12.1"/>
	<circle class="st10" cx="93" cy="49.3" r="10.3"/>
	<g>
		<g>
			<path class="st11" d="M91.3,45.3c0.2,0,0.4,0,0.6,0c0,1.4,0,2.7,0,4.1c-0.2,0-0.4,0-0.6,0C91.3,48.1,91.3,46.7,91.3,45.3z"/>
			<path class="st11" d="M94.7,48.1c-0.2,0-0.4,0-0.6,0c0-1.4,0-2.7,0-4.1c0.2,0,0.4,0,0.6,0C94.7,45.4,94.7,46.7,94.7,48.1z"/>
			<path class="st11" d="M92.3,44.3c0.2,0,0.4,0,0.6,0c0,0.4,0,0.8,0,1.2c-0.2,0-0.4,0-0.6,0C92.3,45.1,92.3,44.7,92.3,44.3z"/>
			<path class="st11" d="M92.3,45.9c0.2,0,0.4,0,0.6,0c0,0.2,0,0.4,0,0.6c-0.2,0-0.4,0-0.6,0C92.3,46.3,92.3,46.1,92.3,45.9z"/>
			<path class="st11" d="M93.2,46.9c0.2,0,0.4,0,0.6,0c0,0.2,0,0.4,0,0.6c-0.2,0-0.4,0-0.6,0C93.2,47.3,93.2,47.1,93.2,46.9z"/>
			<path class="st11" d="M92.3,46.9c0.2,0,0.4,0,0.6,0c0,0.4,0,0.8,0,1.2c-0.2,0-0.4,0-0.6,0C92.3,47.7,92.3,47.3,92.3,46.9z"/>
			<path class="st11" d="M93.2,45.3c0.2,0,0.4,0,0.6,0c0,0.4,0,0.8,0,1.2c-0.2,0-0.4,0-0.6,0C93.2,46.1,93.2,45.7,93.2,45.3z"/>
			<path class="st11" d="M93.2,47.9c0.2,0,0.4,0,0.6,0c0,0.4,0,0.8,0,1.2c-0.2,0-0.4,0-0.6,0C93.2,48.7,93.2,48.3,93.2,47.9z"/>
			<path class="st11" d="M93.2,46.9c0.2,0,0.3,0,0.5,0c0,0,0,0,0.1,0c0,0.2,0,0.4,0,0.6c0,0,0,0-0.1,0c-0.1,0-0.3,0-0.4,0
				c0,0-0.1,0-0.1-0.1C93.2,47.3,93.2,47.1,93.2,46.9z"/>
		</g>
		<g>
			<path class="st11" d="M86.2,51c0.2,0,0.3,0,0.5,0c0,0.1,0,0.2,0,0.3c0,0,0,0,0,0c0.2-0.3,0.6-0.4,0.9-0.3
				c0.4,0.1,0.6,0.3,0.6,0.7c0.1,0.4,0,0.8-0.3,1.1c-0.3,0.3-0.9,0.3-1.2,0c0,0,0,0,0,0c0,0,0,0,0,0c0,0.4,0,0.7,0,1.1
				c-0.2,0-0.3,0-0.5,0C86.2,52.9,86.2,51.9,86.2,51z M87.8,52c0-0.1,0-0.1,0-0.2c-0.1-0.3-0.3-0.4-0.5-0.4c-0.3,0-0.5,0.1-0.5,0.4
				c0,0.1,0,0.3,0,0.4c0,0.3,0.2,0.5,0.5,0.5c0.3,0,0.5-0.1,0.6-0.4C87.8,52.1,87.8,52,87.8,52z"/>
			<path class="st11" d="M95,52.9c0-0.1,0-0.2,0-0.3c0,0,0,0,0,0c-0.5,0.5-1.3,0.4-1.5-0.3c-0.2-0.4-0.1-0.8,0.1-1.1
				c0.3-0.4,0.9-0.4,1.3-0.1c0,0,0,0,0.1,0.1c0-0.3,0-0.7,0-1c0.2,0,0.3,0,0.5,0c0,0.9,0,1.8,0,2.7C95.3,52.9,95.2,52.9,95,52.9z
				 M95,51.9c0,0,0-0.1,0-0.2c-0.1-0.3-0.3-0.4-0.5-0.4c-0.3,0-0.5,0.2-0.5,0.4c0,0.2,0,0.3,0,0.4c0.1,0.4,0.5,0.5,0.8,0.3
				C94.9,52.4,95,52.2,95,51.9z"/>
			<path class="st11" d="M90.3,51.3c0-0.1,0-0.2,0-0.3c0.2,0,0.3,0,0.5,0c0,0.6,0,1.3,0,1.9c-0.2,0-0.3,0-0.5,0c0-0.1,0-0.2,0-0.3
				c0,0,0,0,0,0c-0.4,0.5-1.2,0.5-1.5-0.3c-0.2-0.4-0.1-0.8,0.2-1.2C89.3,50.8,89.9,50.9,90.3,51.3C90.2,51.3,90.3,51.3,90.3,51.3z
				 M90.3,51.9c0,0,0-0.1,0-0.2c-0.1-0.3-0.3-0.4-0.5-0.4c-0.3,0-0.5,0.2-0.5,0.4c0,0.2,0,0.3,0,0.4c0.1,0.4,0.5,0.5,0.8,0.3
				C90.2,52.3,90.3,52.2,90.3,51.9z"/>
			<path class="st11" d="M97.4,51.3c0-0.1,0-0.2,0-0.3c0.2,0,0.3,0,0.5,0c0,0.6,0,1.3,0,1.9c-0.1,0-0.3,0-0.5,0c0-0.1,0-0.2,0-0.3
				c0,0,0,0,0,0c-0.5,0.5-1.3,0.4-1.5-0.3c-0.2-0.4-0.1-0.8,0.2-1.1C96.4,50.8,97,50.8,97.4,51.3C97.4,51.2,97.4,51.3,97.4,51.3z
				 M97.4,52c0,0,0-0.1,0-0.1c0-0.3-0.2-0.5-0.5-0.5c-0.3,0-0.5,0.2-0.6,0.4c0,0.1,0,0.2,0,0.3c0,0.4,0.5,0.7,0.8,0.4
				C97.3,52.4,97.4,52.2,97.4,52z"/>
			<path class="st11" d="M91.2,52.9c0-0.6,0-1.3,0-1.9c0.2,0,0.3,0,0.5,0c0,0.1,0,0.2,0,0.3c0,0,0-0.1,0.1-0.1
				c0.2-0.3,0.6-0.4,0.9-0.3c0.3,0.1,0.4,0.3,0.4,0.5c0,0.1,0,0.2,0,0.3c0,0.4,0,0.7,0,1.1c0,0,0,0,0,0.1c-0.2,0-0.3,0-0.5,0
				c0,0,0,0,0-0.1c0-0.3,0-0.6,0-0.9c0-0.1,0-0.2,0-0.3c0-0.2-0.2-0.4-0.5-0.3c-0.2,0.1-0.4,0.3-0.4,0.5c0,0.3,0,0.7,0,1
				C91.5,52.9,91.4,52.9,91.2,52.9z"/>
			<path class="st11" d="M99.6,51.4c-0.1,0-0.3-0.1-0.4-0.1c-0.1,0-0.2,0-0.3,0c-0.1,0-0.1,0.1-0.2,0.1c0,0.1,0,0.2,0.1,0.2
				c0.1,0,0.2,0.1,0.3,0.1c0.1,0,0.3,0.1,0.4,0.1c0.5,0.2,0.3,0.8,0,1C99.4,53,99.2,53,98.9,53c-0.2,0-0.5-0.1-0.7-0.2
				c0-0.1,0.1-0.2,0.1-0.3c0.1,0,0.2,0.1,0.3,0.1c0.2,0.1,0.4,0.1,0.6,0.1c0.1,0,0.1-0.1,0.2-0.2c0-0.1,0-0.2-0.1-0.2
				c-0.1,0-0.2-0.1-0.3-0.1c-0.1,0-0.2-0.1-0.4-0.1c-0.2-0.1-0.3-0.3-0.3-0.5c0-0.2,0.1-0.4,0.3-0.5c0.4-0.1,0.7-0.1,1,0.1
				c0,0,0,0,0,0.1C99.7,51.3,99.7,51.3,99.6,51.4z"/>
		</g>
	</g>
</g>
<g id="NumPy">
	<line class="st16" x1="101.9" y1="72.4" x2="72.4" y2="99.7"/>
	<circle class="st13" cx="101.9" cy="72.2" r="8.4"/>
	<circle class="st14" cx="101.9" cy="72.4" r="6.8"/>
	<g>
		<path class="st15" d="M99.9,71.5c0,0.5,0,1,0,1.5c0,0,0,0,0,0c-0.2-0.1-0.4-0.2-0.6-0.3c0,0,0,0,0-0.1c0-0.9,0-1.9,0-2.8
			c0,0,0,0,0,0c0.2,0.1,0.4,0.2,0.6,0.3c0,0,0.1,0.1,0.1,0.1c0.3,0.7,0.6,1.3,1,2c0,0,0,0,0,0c0,0,0,0,0-0.1c0-0.5,0-1,0-1.5
			c0-0.1,0-0.1,0.1,0c0.2,0.1,0.4,0.2,0.7,0.3c0,0,0,0,0,0.1c0,0.9,0,1.9,0,2.8c0,0.1,0,0.1,0,0c-0.2-0.1-0.4-0.2-0.6-0.4
			c-0.1-0.1-0.2-0.2-0.2-0.3C100.5,72.7,100.2,72.1,99.9,71.5C99.9,71.5,99.9,71.5,99.9,71.5z"/>
		<path class="st15" d="M99.2,75.5c0-0.3,0-0.7,0-1c0,0,0,0,0,0c0.1,0,0.2,0,0.3,0c0,0,0,0,0,0c0,0.3,0,0.6,0,0.9c0,0.3,0,0.5,0,0.8
			c0,0,0,0.1,0,0c0,0-0.1,0-0.1,0c-0.1,0-0.1,0-0.2-0.1c-0.2-0.3-0.5-0.6-0.8-1c0,0,0,0,0,0c0,0,0,0.1,0,0.1c0,0.3,0,0.6,0,0.9
			c0,0,0,0,0,0c-0.1,0-0.2,0-0.3,0c0,0,0,0,0,0c0-0.5,0-1.1,0-1.6c0,0,0,0,0,0c0.1,0,0.1,0,0.2,0c0.1,0,0.1,0,0.1,0.1
			c0.2,0.3,0.5,0.6,0.7,0.9C99.2,75.4,99.2,75.5,99.2,75.5z"/>
		<path class="st15" d="M102,75.1c0.1-0.2,0.3-0.2,0.5-0.2c0.2,0,0.3,0.2,0.3,0.3c0,0,0,0.1,0,0.1c0,0.2,0,0.5,0,0.7c0,0,0,0,0,0
			c-0.1,0-0.2,0-0.3,0c0,0-0.1,0,0,0c0-0.2,0-0.5,0-0.7c0,0,0,0,0-0.1c0-0.1-0.1-0.1-0.2-0.1c-0.1,0-0.1,0.1-0.2,0.1c0,0,0,0,0,0.1
			c0,0.2,0,0.5,0,0.7c0,0,0,0.1,0,0.1c-0.1,0-0.2,0-0.3,0c0,0,0,0,0-0.1c0-0.2,0-0.5,0-0.7c0,0,0,0,0,0c0-0.1,0-0.1-0.1-0.2
			c-0.1,0-0.2,0-0.2,0.1c0,0,0,0,0,0.1c0,0.3,0,0.5,0,0.8c0,0,0,0.1-0.1,0.1c-0.1,0-0.2,0-0.3,0c0,0,0,0,0,0c0-0.4,0-0.8,0-1.1
			c0,0,0,0,0,0c0.1,0,0.1,0,0.2,0c0.1,0,0.1,0,0.1,0.1c0,0,0,0,0,0c0.1-0.1,0.1-0.1,0.2-0.1C101.9,74.9,102,75,102,75.1z"/>
		<path class="st15" d="M103.2,72.1C103.2,72.1,103.2,72.2,103.2,72.1c0,0.4,0,0.8,0,1.2c0,0,0,0.1,0,0.1c-0.3,0.2-0.7,0.3-1,0.5
			c0,0,0,0,0,0c0-0.4,0-0.8,0-1.2c0,0,0,0,0-0.1C102.5,72.5,102.8,72.3,103.2,72.1C103.2,72.1,103.2,72.1,103.2,72.1z"/>
		<path class="st15" d="M103.2,70.4C103.2,70.5,103.2,70.5,103.2,70.4c0,0.4,0,0.8,0,1.2c0,0,0,0.1,0,0.1c-0.3,0.2-0.7,0.3-1,0.5
			c0,0,0,0,0,0c0-0.4,0-0.8,0-1.1c0,0,0,0,0-0.1C102.5,70.8,102.8,70.6,103.2,70.4C103.2,70.4,103.2,70.4,103.2,70.4z"/>
		<path class="st15" d="M103.1,75.3c0-0.3,0-0.5,0-0.8c0,0,0,0,0,0c0.2,0,0.4,0,0.6,0c0.1,0,0.2,0,0.3,0c0.3,0.1,0.4,0.3,0.4,0.6
			c0,0.3-0.2,0.5-0.5,0.5c-0.1,0-0.1,0-0.2,0c-0.1,0-0.1,0-0.2,0c0,0,0,0.1,0,0.2c0,0.1,0,0.2,0,0.4c0,0,0,0,0,0c-0.1,0-0.2,0-0.3,0
			c0,0-0.1,0-0.1-0.1C103.1,75.8,103.1,75.6,103.1,75.3z M103.5,75c0,0.1,0,0.2,0,0.2c0,0,0,0,0,0c0.1,0,0.1,0,0.2,0
			c0.2,0,0.2-0.1,0.3-0.2c0-0.2,0-0.3-0.2-0.3c-0.1,0-0.2,0-0.2,0c0,0,0,0,0,0C103.5,74.9,103.5,74.9,103.5,75z"/>
		<path class="st15" d="M104.5,72.1c0,0.2,0,0.4,0,0.6c0,0,0,0,0,0.1c-0.3,0.1-0.6,0.3-0.9,0.4c0,0,0,0,0,0c0-0.4,0-0.8,0-1.2
			c0,0,0,0,0-0.1c0.3-0.1,0.6-0.3,0.9-0.4c0,0,0,0,0.1,0C104.5,71.7,104.5,71.9,104.5,72.1z"/>
		<path class="st15" d="M103.6,70.9c0-0.2,0-0.4,0-0.6c0,0,0,0,0-0.1c0.3-0.1,0.6-0.3,0.9-0.4c0,0,0,0,0,0c0,0.4,0,0.8,0,1.1
			c0,0,0,0,0,0.1c-0.3,0.1-0.6,0.3-0.9,0.4c0,0-0.1,0-0.1,0C103.6,71.2,103.6,71.1,103.6,70.9z"/>
		<path class="st15" d="M102.9,70.1C102.9,70.1,102.9,70.1,102.9,70.1c-0.4,0.2-0.7,0.3-1,0.5c0,0,0,0-0.1,0
			c-0.3-0.2-0.6-0.3-0.9-0.5c0,0,0,0,0,0c0,0,0.1,0,0.1-0.1c0.3-0.1,0.6-0.3,0.8-0.4c0,0,0,0,0.1,0C102.3,69.8,102.6,70,102.9,70.1
			C102.9,70.1,102.9,70.1,102.9,70.1z"/>
		<path class="st15" d="M101.5,69.4c-0.1,0.1-0.3,0.2-0.4,0.2c-0.2,0.1-0.4,0.2-0.6,0.3c0,0,0,0-0.1,0c-0.3-0.2-0.6-0.3-0.9-0.5
			c0,0,0,0,0,0c0,0,0,0,0,0c0.3-0.2,0.6-0.3,0.9-0.5c0,0,0.1,0,0.1,0C100.9,69.1,101.2,69.2,101.5,69.4z"/>
		<path class="st15" d="M100.5,76c-0.1,0.1-0.2,0.1-0.3,0.1c-0.3,0-0.5-0.1-0.5-0.4c0-0.2,0-0.4,0-0.6c0-0.1,0-0.1,0-0.2
			c0,0,0,0,0,0c0.1,0,0.2,0,0.3,0c0,0,0,0,0,0c0,0.2,0,0.5,0,0.7c0,0,0,0,0,0c0,0.2,0.1,0.2,0.2,0.2c0,0,0,0,0,0
			c0.1,0,0.1-0.1,0.1-0.2c0-0.2,0-0.5,0-0.7c0,0,0-0.1,0.1-0.1c0.1,0,0.2,0,0.3,0c0,0,0,0,0,0c0,0.4,0,0.8,0,1.1c0,0,0,0,0,0
			c-0.1,0-0.1,0-0.2,0C100.6,76.2,100.6,76.1,100.5,76C100.5,76,100.5,76,100.5,76z"/>
		<path class="st15" d="M104.3,69.4c-0.1,0-0.1,0.1-0.2,0.1c-0.2,0.1-0.5,0.2-0.7,0.4c0,0,0,0-0.1,0c-0.3-0.2-0.6-0.3-0.9-0.5
			c0,0,0,0,0,0c0.1-0.1,0.2-0.1,0.3-0.2c0.2-0.1,0.4-0.2,0.5-0.3c0,0,0,0,0.1,0C103.6,69.1,103.9,69.3,104.3,69.4
			C104.3,69.4,104.3,69.4,104.3,69.4z"/>
		<path class="st15" d="M105.7,74.9c-0.1,0.1-0.1,0.2-0.1,0.3c-0.2,0.4-0.3,0.8-0.5,1.2c0,0.1-0.1,0.1-0.1,0.1c-0.1,0-0.1,0-0.2,0
			c-0.1,0-0.1,0,0,0c0.1-0.1,0.1-0.3,0.2-0.4c0,0,0-0.1,0-0.1c-0.1-0.3-0.3-0.7-0.4-1c0,0,0,0,0-0.1c0.1,0,0.2,0,0.3,0
			c0,0,0.1,0,0.1,0.1c0.1,0.2,0.2,0.4,0.2,0.6c0,0,0,0,0,0c0.1-0.2,0.1-0.4,0.2-0.5c0.1-0.2,0.1-0.2,0.2-0.2
			C105.6,74.9,105.6,74.9,105.7,74.9z"/>
		<path class="st15" d="M101,68.7c0.1,0,0.1-0.1,0.2-0.1c0.2-0.1,0.5-0.2,0.7-0.4c0,0,0,0,0.1,0c0.2,0.1,0.4,0.2,0.6,0.3
			c0.1,0,0.2,0.1,0.3,0.1c0,0-0.1,0-0.1,0.1c-0.2,0.1-0.5,0.3-0.7,0.4c0,0,0,0-0.1,0C101.6,69,101.3,68.9,101,68.7
			C101,68.7,101,68.7,101,68.7z"/>
	</g>
</g>
<g id="Cubo_1">
	<g>
		<polygon class="st6" points="116.4,52.5 113.1,56.4 114.9,61.2 118.2,57.3 		"/>
		<polygon class="st3" points="121.4,53.4 116.4,52.5 118.2,57.3 123.2,58.1 		"/>
		<polygon class="st7" points="119.9,62 123.2,58.1 118.2,57.3 114.9,61.2 		"/>
	</g>
</g>
<g id="Cubo_2">
	<g>
		<polygon class="st17" points="96.1,15.1 95.8,17.3 97.5,18.6 97.8,16.5 		"/>
		<polygon class="st18" points="98.2,14.3 96.1,15.1 97.8,16.5 99.9,15.7 		"/>
		<polygon class="st19" points="99.6,17.8 99.9,15.7 97.8,16.5 97.5,18.6 		"/>
	</g>
</g>
<g id="Cubo_3">
	<g>
		<polygon class="st7" points="30.2,34.9 26.5,36.5 26.1,40.5 29.8,38.9 		"/>
		<polygon class="st3" points="33.5,37.2 30.2,34.9 29.8,38.9 33.1,41.2 		"/>
		<polygon class="st6" points="29.4,42.9 33.1,41.2 29.8,38.9 26.1,40.5 		"/>
	</g>
</g>
<g id="Cubo_4">
	<g>
		<polygon class="st20" points="71.4,64.6 69.2,62.2 66.1,62.9 68.2,65.2 		"/>
		<polygon class="st21" points="70.4,67.6 71.4,64.6 68.2,65.2 67.2,68.3 		"/>
		<polygon class="st22" points="65.1,65.9 67.2,68.3 68.2,65.2 66.1,62.9 		"/>
	</g>
</g>
<g id="Cubo_5">
	<g>
		<polygon class="st6" points="37.4,86.6 35.7,91.2 38.8,95 40.5,90.3 		"/>
		<polygon class="st3" points="42.2,85.7 37.4,86.6 40.5,90.3 45.4,89.5 		"/>
		<polygon class="st7" points="43.7,94.1 45.4,89.5 40.5,90.3 38.8,95 		"/>
	</g>
</g>
</svg>
