<?xml version="1.0" encoding="utf-8"?>
<!-- Generator: Adobe Illustrator 25.4.0, SVG Export Plug-In . SVG Version: 6.00 Build 0)  -->
<svg version="1.1" xmlns="http://www.w3.org/2000/svg" xmlns:xlink="http://www.w3.org/1999/xlink" x="0px" y="0px"
	 viewBox="0 0 150 150" style="enable-background:new 0 0 150 150;" xml:space="preserve"><style type="text/css">
	.st0{fill:#FCB040;stroke:#000000;stroke-width:0.5;stroke-linecap:round;stroke-linejoin:round;stroke-miterlimit:10;}
	.st1{fill:none;stroke:#000000;stroke-width:0.5;stroke-linecap:round;stroke-linejoin:round;stroke-miterlimit:10;}
	.st2{fill:#FFFFFF;stroke:#000000;stroke-width:0.5;stroke-linecap:round;stroke-linejoin:round;stroke-miterlimit:10;}
	.st3{fill:none;stroke:#FCB040;stroke-width:0.5;stroke-miterlimit:10;}
	.st4{fill:#00AEEF;stroke:#000000;stroke-width:0.5;stroke-miterlimit:10;}
	.st5{fill:none;stroke:#00AEEF;stroke-width:0.5;stroke-miterlimit:10;}
	.st6{fill:#FFFFFF;stroke:#00AEEF;stroke-linecap:round;stroke-linejoin:round;stroke-miterlimit:10;}
	.st7{fill:#FFFFFF;stroke:#00AEEF;stroke-width:0.75;stroke-linecap:round;stroke-linejoin:round;stroke-miterlimit:10;}
	.st8{fill:#00AEEF;stroke:#000000;stroke-width:0.5;stroke-linecap:round;stroke-linejoin:round;stroke-miterlimit:10;}

		.st9{fill:none;stroke:#FCB040;stroke-width:0.5;stroke-linecap:round;stroke-linejoin:round;stroke-miterlimit:10;stroke-dasharray:10;}

		.st10{fill:none;stroke:#FCB040;stroke-width:0.5;stroke-linecap:round;stroke-linejoin:round;stroke-miterlimit:10;stroke-dasharray:2;}
	.st11{fill:none;stroke:#00AEEF;stroke-width:0.5;stroke-linecap:round;stroke-linejoin:round;stroke-miterlimit:10;}

		.st12{fill:none;stroke:#FCB040;stroke-width:0.5;stroke-linecap:round;stroke-linejoin:round;stroke-miterlimit:10;stroke-dasharray:8;}

		.st13{fill:none;stroke:#FCB040;stroke-width:0.5;stroke-linecap:round;stroke-linejoin:round;stroke-miterlimit:10;stroke-dasharray:1;}
	.st14{fill:#FFFFFF;stroke:#00AEEF;stroke-width:0.5;stroke-linecap:round;stroke-linejoin:round;stroke-miterlimit:10;}
	.st15{fill:#00AEEF;}

		.st16{fill:none;stroke:#FCB040;stroke-width:0.5;stroke-linecap:round;stroke-linejoin:round;stroke-miterlimit:10;stroke-dasharray:12;}
	.st17{fill:#00AEEF;stroke:#1D1D1B;stroke-width:0.5;stroke-miterlimit:10;}
	.st18{fill:none;stroke:#1D1D1B;stroke-width:0.5;stroke-linecap:round;stroke-linejoin:round;stroke-miterlimit:10;}
	.st19{fill:#1D1D1B;}
	.st20{fill:none;stroke:#FCB040;stroke-width:0.5;stroke-linecap:round;stroke-linejoin:round;stroke-dasharray:12.656,12.656;}
	.st21{fill:none;stroke:#FCB040;stroke-width:0.5;stroke-linecap:round;stroke-linejoin:round;stroke-dasharray:1.9471,1.9471;}
	.st22{fill:none;stroke:#1D1D1B;stroke-width:0.5;stroke-miterlimit:10;}
	.st23{fill:#FCB040;stroke:#000000;stroke-width:0.5;stroke-miterlimit:10;}
	.st24{fill:none;stroke:#FCB040;stroke-width:0.5;stroke-linecap:round;stroke-linejoin:round;stroke-dasharray:14.1529,14.1529;}
	.st25{fill:none;stroke:#FCB040;stroke-width:0.5;stroke-linecap:round;stroke-linejoin:round;stroke-dasharray:2.0218,2.0218;}
	.st26{fill:#FFFFFF;stroke:#FCB040;stroke-width:0.5;stroke-linecap:round;stroke-linejoin:round;stroke-miterlimit:10;}
</style>
<g id="Cores">
</g>
<g id="Cobra_laranja">
	<g>
		<path class="st0" d="M60.8,78.4c-2.7-1-6.1-4.8-6.5-8.8c-0.3-3,1-5.7,3.8-7.5c5.7-3.7,11.1-0.1,13.3,3.3l-4.1,2.8
			c-0.5-0.7-3-4-6.5-1.8c-1.5,1-1.6,1.9-1.5,2.7c0.2,2.1,2.4,4.4,3.2,4.7L60.8,78.4z"/>
	</g>
	<path class="st0" d="M99.1,72.2c-0.2,0.3-0.2,0.7-0.4,1c-0.2,0.5-0.4,0.9-0.8,1.2c-1,1-2.6,0.9-3.9,0.6c-0.2,0-2.3-0.5-2.3-0.5
		c0,0,0.1,0.3,0.1,0.3c0.1,0.2,0.2,0.5,0.3,0.7c0.3,0.7,0.6,1.3,0.9,1.9c0.3,0.6,0.5,1.2,0.8,1.8c0.1,0.1,0.1,0.3,0.2,0.5
		c0.2,0.2,0.6,0.1,0.9,0.1c2.3-0.2,4.5-1.9,5.3-4.1c0.1-0.4,0.2-0.8,0.3-1.2c0.1-0.7,0.1-2.1-0.6-2.5c-0.2-0.1-0.5-0.2-0.7,0
		C99.2,72,99.1,72.1,99.1,72.2z"/>
	<g>
		<path class="st1" d="M84.3,50.2c-0.4,0.5-0.8,0-1-0.4c-0.1-0.2-0.1-0.4-0.3-0.5c-0.3-0.1-0.6,0.1-0.8,0.3
			c-0.2,0.2-0.4,0.5-0.7,0.6c-0.2,0-0.5-0.1-0.6-0.4c-0.1-0.2-0.1-0.5-0.1-0.7"/>
		<path class="st0" d="M92.2,50c-1.5-1.9-3.9-3.1-6.4-3.2c-1.2-0.1-2.6,0.4-3,1.7c-0.2,0.6-0.1,1.4,0.2,2c0.3,0.6,0.9,1.1,1.5,1.3
			c1.2,0.5,2.7,0.4,3.7,1.2c0.9,0.8,1.2,2.2,1.2,3.3c0,0.5-0.1,1-0.3,1.4c-0.7,1.9-3.1,4.9-5.8,7.1l3.2,3.8c1.6-1.4,3.1-2.9,4.4-4.5
			c1.6-2,3-4.3,3.3-6.9C94.6,54.5,93.8,51.9,92.2,50z"/>
		<circle class="st2" cx="85.6" cy="49.1" r="0.7"/>
	</g>
	<g>
		<path class="st3" d="M96.3,54c-0.2-1-0.5-2-1-2.9"/>
		<path class="st3" d="M97.2,52.9c-0.1-0.6-0.3-1.1-0.6-1.6"/>
	</g>
</g>
<g id="Círculo_cubo">
	<line class="st5" x1="64.3" y1="126.4" x2="87.6" y2="132.3"/>
	<line class="st5" x1="77.3" y1="80.5" x2="87.6" y2="132.3"/>
	<line class="st5" x1="100.4" y1="115.2" x2="87.6" y2="132.3"/>
	<circle class="st6" cx="87.6" cy="132.3" r="7.1"/>
	<circle class="st7" cx="100.4" cy="115.2" r="1.9"/>
	<circle class="st7" cx="64.3" cy="126.4" r="2.7"/>
	<g>
		<polygon class="st0" points="84.3,134.1 87.6,136 90.8,134.1 87.6,132.3 		"/>
		<polygon class="st2" points="84.3,130.4 84.3,134.1 87.6,132.3 87.6,128.6 		"/>
		<polygon class="st8" points="90.8,130.4 87.6,128.6 87.6,132.3 90.8,134.1 		"/>
	</g>
</g>
<g id="Círculo_folha_de_cálculo">
	<line class="st5" x1="132.5" y1="90.3" x2="113" y2="97.6"/>
	<line class="st5" x1="77.3" y1="80.5" x2="113" y2="97.6"/>
	<circle class="st6" cx="113" cy="97.6" r="8"/>
	<circle class="st9" cx="113" cy="97.6" r="6.3"/>
	<circle class="st10" cx="113" cy="97.6" r="6.3"/>
	<circle class="st7" cx="132.5" cy="90.3" r="2.3"/>
	<g>
		<path class="st1" d="M111.8,94.5l-1.2,1.2v5.5c0,0.1,0.1,0.2,0.2,0.2h5c0.1,0,0.2-0.1,0.2-0.2v-6.5c0-0.1-0.1-0.2-0.2-0.2H111.8z"
			/>
		<path class="st2" d="M111,93.8l-1.2,1.2v5.5c0,0.1,0.1,0.2,0.2,0.2h5c0.1,0,0.2-0.1,0.2-0.2V94c0-0.1-0.1-0.2-0.2-0.2H111z"/>
		<line class="st11" x1="111.8" y1="95" x2="113.2" y2="95"/>
		<g>
			<line class="st11" x1="110.6" y1="96.8" x2="114.4" y2="96.8"/>
			<line class="st11" x1="110.6" y1="97.7" x2="114.4" y2="97.7"/>
			<line class="st11" x1="110.6" y1="98.7" x2="114.4" y2="98.7"/>
		</g>
		<line class="st11" x1="111.6" y1="95.8" x2="111.6" y2="99.7"/>
		<line class="st11" x1="113.2" y1="95.8" x2="113.2" y2="99.7"/>
		<path class="st2" d="M111,93.8l0,1.1c0,0.1-0.1,0.2-0.2,0.2h-1.1L111,93.8z"/>
		<rect x="110.6" y="95.8" class="st11" width="3.8" height="3.9"/>
	</g>
</g>
<g id="Círculo_gráfico_barras">
	<line class="st5" x1="106.2" y1="59.9" x2="77.3" y2="80.5"/>
	<line class="st5" x1="117.1" y1="37.5" x2="106.2" y2="59.9"/>
	<line class="st5" x1="132.9" y1="64.5" x2="106.2" y2="59.9"/>
	<line class="st5" x1="110.2" y1="79.6" x2="106.2" y2="59.9"/>
	<circle class="st6" cx="106.2" cy="59.9" r="6.2"/>
	<circle class="st12" cx="106.2" cy="59.9" r="4.7"/>
	<circle class="st13" cx="106.2" cy="59.9" r="4.7"/>
	<circle class="st7" cx="117.1" cy="37.5" r="2"/>
	<circle class="st7" cx="132.9" cy="64.5" r="2.7"/>
	<circle class="st14" cx="110.2" cy="79.6" r="4.2"/>
	<g>
		<polygon class="st8" points="110.4,77.3 108.3,78.2 108.1,80.5 110.2,79.5 		"/>
		<polygon class="st2" points="112.3,78.6 110.4,77.3 110.2,79.5 112,80.9 		"/>
		<polygon class="st0" points="110,81.8 112,80.9 110.2,79.5 108.1,80.5 		"/>
	</g>
	<g>
		<rect x="103.6" y="60.5" class="st15" width="1.2" height="1.5"/>
		<rect x="105.4" y="59.3" class="st15" width="1.2" height="2.7"/>
		<rect x="107.2" y="57.1" class="st15" width="1.2" height="4.9"/>
		<line class="st3" x1="103.6" y1="62.6" x2="108.4" y2="62.6"/>
	</g>
</g>
<g id="Círculo_nuvem">
	<line class="st5" x1="76.6" y1="35.5" x2="77.3" y2="80.5"/>
	<line class="st11" x1="59.1" y1="10.9" x2="76.6" y2="35.5"/>
	<line class="st11" x1="102.2" y1="26.2" x2="76.6" y2="35.5"/>
	<line class="st11" x1="61.2" y1="54.8" x2="76.6" y2="35.5"/>
	<circle class="st6" cx="76.6" cy="35.5" r="8.4"/>
	<circle class="st16" cx="76.6" cy="35.5" r="6.8"/>
	<circle class="st10" cx="76.6" cy="35.5" r="6.8"/>
	<circle class="st7" cx="61.2" cy="54.8" r="2.5"/>
	<circle class="st7" cx="102.2" cy="26.2" r="4.2"/>
	<circle class="st7" cx="59.1" cy="10.9" r="3.7"/>
	<g>
		<polygon class="st8" points="104.3,25.3 102.5,24 100.4,24.9 102.3,26.3 		"/>
		<polygon class="st2" points="104.1,27.6 104.3,25.3 102.3,26.3 102,28.5 		"/>
		<polygon class="st0" points="100.2,27.2 102,28.5 102.3,26.3 100.4,24.9 		"/>
	</g>
	<g>
		<polygon class="st8" points="58.6,9.2 57.3,10.4 57.8,12.2 59.1,10.9 		"/>
		<polygon class="st2" points="60.4,9.7 58.6,9.2 59.1,10.9 60.8,11.4 		"/>
		<polygon class="st0" points="59.5,12.7 60.8,11.4 59.1,10.9 57.8,12.2 		"/>
	</g>
	<g>
		<path class="st17" d="M79.5,34.1c-0.2,0-0.3,0-0.5,0.1c-0.1-0.7-0.7-1.3-1.4-1.3c-0.2,0-0.5,0.1-0.7,0.2c-0.3-0.5-0.9-0.8-1.5-0.8
			c-1,0-1.8,0.8-1.8,1.8c0,0.1,0,0.1,0,0.2c0,0,0,0,0,0c-1,0-1.8,0.8-1.8,1.8c0,1,0.8,1.8,1.8,1.8h5.8c1,0,1.8-0.8,1.8-1.8
			C81.3,34.9,80.5,34.1,79.5,34.1z"/>
		<g>
			<path class="st18" d="M75.2,35.9c0.1,0.3,0.4,0.6,1,0.6"/>
			<path class="st18" d="M77.1,35.9c-0.1,0.4-0.4,0.6-1,0.6"/>
		</g>
		<circle class="st19" cx="75.1" cy="34.6" r="0.4"/>
		<circle class="st19" cx="77.2" cy="34.6" r="0.4"/>
	</g>
</g>
<g id="Círculo_gráfico_derivação">
	<line class="st11" x1="15.2" y1="52.6" x2="39" y2="56.1"/>
	<line class="st11" x1="37.8" y1="56.1" x2="77.3" y2="80.5"/>
	<line class="st11" x1="41.5" y1="36" x2="37.8" y2="56.1"/>
	<circle class="st6" cx="37.8" cy="56.1" r="9.8"/>
	<g>
		<circle class="st20" cx="37.8" cy="56.1" r="8.1"/>
	</g>
	<g>
		<circle class="st21" cx="37.8" cy="56.1" r="8.1"/>
	</g>
	<circle class="st7" cx="15.2" cy="52.6" r="3.4"/>
	<circle class="st7" cx="41.5" cy="36" r="1.9"/>
	<g>
		<polygon class="st8" points="16.8,53 16.4,51.4 14.8,51 15.2,52.6 		"/>
		<polygon class="st2" points="15.7,54.2 16.8,53 15.2,52.6 14.1,53.8 		"/>
		<polygon class="st0" points="13.6,52.2 14.1,53.8 15.2,52.6 14.8,51 		"/>
	</g>
	<g>
		<line class="st22" x1="34.6" y1="55.1" x2="41" y2="55.1"/>
		<line class="st18" x1="34.6" y1="57.2" x2="34.6" y2="55.2"/>
		<line class="st18" x1="33.1" y1="59.2" x2="33.1" y2="57.2"/>
		<line class="st18" x1="36.1" y1="59.2" x2="36.1" y2="57.2"/>
		<line class="st18" x1="39.5" y1="59.2" x2="39.5" y2="57.2"/>
		<line class="st18" x1="42.5" y1="59.2" x2="42.5" y2="57.2"/>
		<line class="st18" x1="33.1" y1="57.2" x2="36.1" y2="57.2"/>
		<line class="st18" x1="39.5" y1="57.2" x2="42.5" y2="57.2"/>
		<line class="st22" x1="37.8" y1="54.4" x2="37.8" y2="52.4"/>
		<line class="st18" x1="41" y1="57.2" x2="41" y2="55.2"/>
		<path class="st23" d="M38.7,55.1c0,0.5-0.4,0.9-0.9,0.9c-0.5,0-0.9-0.4-0.9-0.9s0.4-0.9,0.9-0.9C38.3,54.2,38.7,54.6,38.7,55.1z"
			/>
		<path class="st4" d="M38.7,51.9c0,0.5-0.4,0.9-0.9,0.9c-0.5,0-0.9-0.4-0.9-0.9c0-0.5,0.4-0.9,0.9-0.9C38.3,51,38.7,51.4,38.7,51.9
			z"/>
		<circle class="st23" cx="34.6" cy="55.1" r="0.9"/>
		<circle class="st4" cx="33.1" cy="59.2" r="0.9"/>
		<circle class="st4" cx="36.1" cy="59.2" r="0.9"/>
		<circle class="st4" cx="39.5" cy="59.2" r="0.9"/>
		<circle class="st4" cx="42.5" cy="59.2" r="0.9"/>
		<circle class="st23" cx="41" cy="55.1" r="0.9"/>
	</g>
</g>
<g id="Círculo_rodas_dentadas">
	<line class="st11" x1="42.2" y1="107.7" x2="77.3" y2="80.5"/>
	<line class="st11" x1="18.3" y1="92.3" x2="42.2" y2="107.7"/>
	<line class="st11" x1="29.9" y1="77.8" x2="18.3" y2="92.3"/>
	<circle class="st6" cx="42.2" cy="107.7" r="10.8"/>
	<circle class="st14" cx="18.3" cy="92.3" r="5.3"/>
	<circle class="st7" cx="18.3" cy="92.3" r="5.3"/>
	<circle class="st7" cx="29.9" cy="77.8" r="1.9"/>
	<g>
		<polygon class="st0" points="20.8,93.3 20.4,90.6 17.9,89.6 18.3,92.3 		"/>
		<polygon class="st2" points="18.7,95 20.8,93.3 18.3,92.3 16.2,94 		"/>
		<polygon class="st8" points="15.8,91.3 16.2,94 18.3,92.3 17.9,89.6 		"/>
	</g>
	<g>
		<path class="st4" d="M46.6,103.2l-0.3,0.1c-0.1,0-0.1,0-0.2,0c0,0,0,0-0.1-0.1c0,0-0.1-0.1,0-0.2l0.1-0.3c0.1-0.1,0-0.2-0.1-0.3
			l-0.9-0.4c-0.1-0.1-0.2,0-0.3,0.1l-0.1,0.3c0,0.1-0.1,0.1-0.2,0.1c0,0-0.1,0-0.1,0c-0.1,0-0.1,0-0.1-0.1l-0.1-0.3
			c0-0.1-0.2-0.2-0.3-0.1l-0.9,0.3c-0.1,0-0.2,0.2-0.1,0.3l0.1,0.3c0,0.1,0,0.1,0,0.2c0,0,0,0-0.1,0.1c0,0-0.1,0.1-0.2,0l-0.3-0.1
			c-0.1-0.1-0.2,0-0.3,0.1l-0.4,0.9c-0.1,0.1,0,0.2,0.1,0.3l0.3,0.1c0.1,0,0.1,0.1,0.1,0.2c0,0,0,0.1,0,0.1c0,0.1,0,0.1-0.1,0.1
			l-0.3,0.1c-0.1,0-0.2,0.2-0.1,0.3l0.3,0.9c0,0.1,0.2,0.2,0.3,0.1l0.3-0.1c0.1,0,0.1,0,0.2,0c0,0,0,0,0.1,0.1c0,0,0.1,0.1,0,0.2
			l-0.1,0.3c-0.1,0.1,0,0.2,0.1,0.3l0.9,0.4c0.1,0.1,0.2,0,0.3-0.1l0.1-0.3c0-0.1,0.1-0.1,0.2-0.1c0,0,0.1,0,0.1,0
			c0.1,0,0.1,0,0.1,0.1l0.1,0.3c0,0.1,0.2,0.2,0.3,0.1l0.9-0.3c0.1,0,0.2-0.2,0.1-0.3l-0.1-0.3c0-0.1,0-0.1,0-0.2c0,0,0,0,0.1-0.1
			c0,0,0.1-0.1,0.2,0l0.3,0.1c0.1,0.1,0.2,0,0.3-0.1l0.4-0.9c0.1-0.1,0-0.2-0.1-0.3l-0.3-0.1c-0.1,0-0.1-0.1-0.1-0.2
			c0,0,0-0.1,0-0.1c0-0.1,0-0.1,0.1-0.1l0.3-0.1c0.1,0,0.2-0.2,0.1-0.3l-0.3-0.9C46.9,103.2,46.7,103.2,46.6,103.2z M44.8,105.7
			c-0.5,0.2-1.1-0.1-1.3-0.6s0.1-1.1,0.6-1.3c0.5-0.2,1.1,0.1,1.3,0.6S45.3,105.5,44.8,105.7z"/>
		<path class="st23" d="M44.5,110.2l-0.3,0c-0.1,0-0.1,0-0.2-0.1c0,0,0-0.1,0-0.1c0-0.1,0-0.1,0-0.2l0.2-0.2c0.1-0.1,0.1-0.3,0-0.3
			l-0.8-0.8c-0.1-0.1-0.3-0.1-0.3,0l-0.2,0.2c-0.1,0.1-0.1,0.1-0.2,0.1c0,0-0.1,0-0.1,0c-0.1,0-0.1-0.1-0.1-0.2l0-0.3
			c0-0.1-0.1-0.2-0.3-0.2l-1.1,0.1c-0.1,0-0.2,0.1-0.2,0.3l0,0.3c0,0.1,0,0.1-0.1,0.2c0,0-0.1,0-0.1,0c-0.1,0-0.1,0-0.2,0l-0.2-0.2
			c-0.1-0.1-0.3-0.1-0.3,0l-0.8,0.8c-0.1,0.1-0.1,0.3,0,0.3l0.2,0.2c0.1,0.1,0.1,0.1,0.1,0.2c0,0,0,0.1,0,0.1c0,0.1-0.1,0.1-0.2,0.1
			l-0.3,0c-0.1,0-0.2,0.1-0.2,0.3l0.1,1.1c0,0.1,0.1,0.2,0.3,0.2l0.3,0c0.1,0,0.1,0,0.2,0.1c0,0,0,0.1,0,0.1c0,0.1,0,0.1,0,0.2
			l-0.2,0.2c-0.1,0.1-0.1,0.3,0,0.3l0.8,0.8c0.1,0.1,0.3,0.1,0.3,0l0.2-0.2c0.1-0.1,0.1-0.1,0.2-0.1c0,0,0.1,0,0.1,0
			c0.1,0,0.1,0.1,0.1,0.2l0,0.3c0,0.1,0.1,0.2,0.3,0.2l1.1-0.1c0.1,0,0.2-0.1,0.2-0.3l0-0.3c0-0.1,0-0.1,0.1-0.2c0,0,0.1,0,0.1,0
			c0.1,0,0.1,0,0.2,0l0.2,0.2c0.1,0.1,0.3,0.1,0.3,0l0.8-0.8c0.1-0.1,0.1-0.3,0-0.3l-0.2-0.2c-0.1-0.1-0.1-0.1-0.1-0.2
			c0,0,0-0.1,0-0.1c0-0.1,0.1-0.1,0.2-0.1l0.3,0c0.1,0,0.2-0.1,0.2-0.3l-0.1-1.1C44.7,110.3,44.6,110.2,44.5,110.2z M41.7,112.3
			c-0.6,0-1.2-0.4-1.2-1.1c0-0.6,0.4-1.2,1.1-1.2c0.6,0,1.2,0.4,1.2,1.1C42.8,111.7,42.3,112.3,41.7,112.3z"/>
		<path class="st23" d="M40.6,105.3l-0.2,0c0,0-0.1,0-0.1-0.1c0,0,0,0,0-0.1c0,0,0-0.1,0.1-0.1l0.2-0.1c0.1-0.1,0.1-0.2,0-0.2
			l-0.4-0.6c-0.1-0.1-0.2-0.1-0.2,0l-0.2,0.1c0,0-0.1,0-0.1,0c0,0,0,0-0.1,0c0,0-0.1-0.1-0.1-0.1l0-0.2c0-0.1,0-0.2-0.1-0.2
			l-0.7-0.1c-0.1,0-0.2,0-0.2,0.1l0,0.2c0,0,0,0.1-0.1,0.1c0,0,0,0-0.1,0c0,0-0.1,0-0.1-0.1l-0.1-0.2c-0.1-0.1-0.2-0.1-0.2,0
			l-0.6,0.4c-0.1,0.1-0.1,0.2,0,0.2l0.1,0.2c0,0,0,0.1,0,0.1c0,0,0,0,0,0.1c0,0-0.1,0.1-0.1,0.1l-0.2,0c-0.1,0-0.2,0-0.2,0.1
			l-0.1,0.7c0,0.1,0,0.2,0.1,0.2l0.2,0c0,0,0.1,0,0.1,0.1c0,0,0,0,0,0.1c0,0,0,0.1-0.1,0.1l-0.2,0.1c-0.1,0.1-0.1,0.2,0,0.2l0.4,0.6
			c0.1,0.1,0.2,0.1,0.2,0l0.2-0.1c0,0,0.1,0,0.1,0c0,0,0,0,0.1,0c0,0,0.1,0.1,0.1,0.1l0,0.2c0,0.1,0,0.2,0.1,0.2l0.7,0.1
			c0.1,0,0.2,0,0.2-0.1l0-0.2c0,0,0-0.1,0.1-0.1c0,0,0,0,0.1,0c0,0,0.1,0,0.1,0.1l0.1,0.2c0.1,0.1,0.2,0.1,0.2,0l0.6-0.4
			c0.1-0.1,0.1-0.2,0-0.2l-0.1-0.2c0,0,0-0.1,0-0.1c0,0,0,0,0-0.1c0,0,0.1-0.1,0.1-0.1l0.2,0c0.1,0,0.2,0,0.2-0.1l0.1-0.7
			C40.7,105.4,40.7,105.3,40.6,105.3z M38.5,106.3c-0.4-0.1-0.7-0.5-0.6-0.9s0.5-0.7,0.9-0.6c0.4,0.1,0.7,0.5,0.6,0.9
			C39.3,106.1,38.9,106.3,38.5,106.3z"/>
	</g>
	<g>
		<circle class="st24" cx="42.2" cy="107.7" r="9"/>
	</g>
	<g>
		<circle class="st25" cx="42.2" cy="107.7" r="9"/>
	</g>
</g>
<g id="Cobra_azul">
	<g>
		<path class="st1" d="M57.7,115.2c0-0.7,0.7-0.6,1.1-0.4c0.2,0.1,0.5,0.2,0.7,0.1c0.2-0.1,0.2-0.4,0.2-0.6c0-0.2-0.1-0.5-0.1-0.7
			c0-0.2,0.2-0.3,0.3-0.4c0.2-0.1,0.3-0.2,0.5-0.2"/>
		<path class="st4" d="M65.8,103.5c-0.5-2.5-2.1-4.5-3.3-6.7c-1-1.9-2.7-5.2-2.2-7.9c0.6-2.7,3.3-4.7,3.3-4.7l-1.4-2.1l-1.4-2.1
			c-0.5,0.3-4.5,3.1-5.4,7.8c-0.9,4.4,1.4,8.8,2.7,11.2c0.5,0.9,1,1.8,1.6,2.7c0.5,0.8,1,1.6,1.2,2.6c0.2,1.1,0.1,2.4-0.3,3.5
			c-0.3,0.9-1.3,1.3-1.8,2.1c-0.5,0.9-0.5,2,0.1,2.9c0.7,1,2,1.2,3.2,0.9c1.8-0.5,2.7-2.2,3.2-3.9C66,107.8,66.2,105.6,65.8,103.5z"
			/>
		<circle class="st2" cx="61.4" cy="111.1" r="0.7"/>
	</g>
	<path d="M58.8,82.4c0,0,1.1-1.1,2.1-0.2c0,0-0.5-1.3-0.5-1.6C60.4,80.5,59.5,81.5,58.8,82.4z"/>
	<path class="st4" d="M88.2,92c0.3-0.4,0.6-0.9,1-1.1c0.5-0.4,1.2,0.1,1.5,0.5c0.5,0.5,1,1,1.4,1.6c1.5,2.2,1.7,5.3,0.7,7.7
		c-0.5,1.2-1.4,2.2-2.3,3.1c-0.2,0.2-0.6,0.4-0.9,0.3c-0.4-0.1-0.6-0.5-0.6-1c0-0.1,0.1-0.2,0.1-0.3c0.1-0.4,0.3-0.7,0.4-1.1
		c0.3-1.1,0.4-2.4,0-3.5c-0.4-1.3-1.4-2.1-2.4-3c-0.2-0.2-0.3-0.3-0.5-0.4c-0.1-0.1-0.2-0.1-0.2-0.2c-0.1-0.3,0.6-1,0.8-1.2
		c0.3-0.4,0.6-0.8,0.9-1.2C88.1,92.1,88.2,92,88.2,92z"/>
	<g>
		<path class="st11" d="M95.6,96c0.3,1.3,0.1,2.7-0.3,3.9"/>
		<path class="st11" d="M97,96.8c0.1,1,0.1,1.7-0.2,2.6"/>
	</g>
	<path d="M88.2,95.9c0,0-1.3-1.4-0.2-3l-1.6,1.5L88.2,95.9z"/>
	<path class="st11" d="M53,88.1c-0.3,1.5-0.2,3,0.1,4.4"/>
	<g>
		<path class="st11" d="M51.7,89c-0.2,0.9-0.1,1.8,0,2.6"/>
	</g>
</g>
<g id="Cubo_rubik">
	<circle class="st6" cx="77.4" cy="80.5" r="17.1"/>
	<circle class="st26" cx="77.4" cy="80.5" r="14.7"/>
	<g>
		<g>
			<polygon class="st0" points="73.2,82.7 71.6,87 74.6,87 76.2,82.7 			"/>
			<polygon class="st0" points="74.8,78.3 71.7,78.3 70.2,82.6 73.2,82.7 			"/>
			<polygon class="st0" points="76.2,82.7 77.8,78.3 74.8,78.3 73.2,82.7 			"/>
			<polygon class="st0" points="74.6,87 77.7,87 79.3,82.7 76.2,82.7 			"/>
			<polygon class="st0" points="77.8,78.3 76.2,82.7 79.3,82.7 80.9,78.3 			"/>
			<polygon class="st0" points="73.3,73.9 71.7,78.3 74.8,78.3 76.4,73.9 			"/>
			<polygon class="st0" points="76.4,73.9 74.8,78.3 77.8,78.3 79.5,73.9 			"/>
			<polygon class="st0" points="79.5,73.9 77.8,78.3 80.9,78.3 82.5,73.9 			"/>
			<polygon class="st2" points="70.2,82.6 68.6,87 71.6,87 73.2,82.7 			"/>
			<polygon class="st0" points="65.4,85.2 68.6,87 70.2,82.6 67,80.8 			"/>
			<polygon class="st8" points="73.3,73.9 70.2,72 68.6,76.5 71.7,78.3 			"/>
			<polygon class="st2" points="68.6,76.5 67,80.8 70.2,82.6 71.7,78.3 			"/>
			<polygon class="st8" points="70.2,72 73.3,73.9 76.4,73.9 73.2,72 			"/>
			<polygon class="st2" points="79.3,72 76.3,72 79.5,73.9 82.5,73.9 			"/>
			<polygon class="st0" points="73.2,72 76.4,73.9 79.5,73.9 76.3,72 			"/>
		</g>
		<g>
			<g>
				<polygon class="st0" points="77.5,81.5 77.5,85.4 80.9,87.4 80.9,83.5 				"/>
				<polygon class="st0" points="80.9,79.6 77.5,81.5 80.9,83.5 84.3,81.5 				"/>
				<polygon class="st0" points="84.3,85.4 84.3,81.5 80.9,83.5 80.9,87.4 				"/>
			</g>
			<g>
				<polygon class="st0" points="77.5,77.6 77.5,81.5 80.9,83.5 80.9,79.6 				"/>
				<polygon class="st0" points="80.9,75.6 77.5,77.6 80.9,79.6 84.3,77.6 				"/>
				<polygon class="st0" points="84.3,81.5 84.3,77.6 80.9,79.6 80.9,83.5 				"/>
			</g>
			<g>
				<polygon class="st0" points="77.5,73.7 77.5,77.6 80.9,79.6 80.9,75.6 				"/>
				<polygon class="st8" points="80.9,71.7 77.5,73.7 80.9,75.6 84.3,73.7 				"/>
				<polygon class="st0" points="84.3,77.6 84.3,73.7 80.9,75.6 80.9,79.6 				"/>
			</g>
			<g>
				<polygon class="st0" points="74.1,83.5 74.1,87.4 77.5,89.4 77.5,85.4 				"/>
				<polygon class="st0" points="77.5,81.5 74.1,83.5 77.5,85.4 80.9,83.5 				"/>
				<polygon class="st0" points="80.9,87.4 80.9,83.5 77.5,85.4 77.5,89.4 				"/>
			</g>
			<g>
				<polygon class="st0" points="74.1,79.6 74.1,83.5 77.5,85.4 77.5,81.5 				"/>
				<polygon class="st0" points="77.5,77.6 74.1,79.6 77.5,81.5 80.9,79.6 				"/>
				<polygon class="st0" points="80.9,83.5 80.9,79.6 77.5,81.5 77.5,85.4 				"/>
			</g>
			<g>
				<polygon class="st0" points="74.1,75.6 74.1,79.6 77.5,81.5 77.5,77.6 				"/>
				<polygon class="st0" points="77.5,73.7 74.1,75.6 77.5,77.6 80.9,75.6 				"/>
				<polygon class="st0" points="80.9,79.6 80.9,75.6 77.5,77.6 77.5,81.5 				"/>
			</g>
			<g>
				<polygon class="st0" points="70.7,85.4 70.7,89.4 74.1,91.3 74.1,87.4 				"/>
				<polygon class="st0" points="74.1,83.5 70.7,85.4 74.1,87.4 77.5,85.4 				"/>
				<polygon class="st0" points="77.5,89.4 77.5,85.4 74.1,87.4 74.1,91.3 				"/>
			</g>
			<g>
				<polygon class="st2" points="70.7,81.5 70.7,85.4 74.1,87.4 74.1,83.5 				"/>
				<polygon class="st0" points="74.1,79.6 70.7,81.5 74.1,83.5 77.5,81.5 				"/>
				<polygon class="st0" points="77.5,85.4 77.5,81.5 74.1,83.5 74.1,87.4 				"/>
			</g>
			<g>
				<polygon class="st0" points="70.7,77.6 70.7,81.5 74.1,83.5 74.1,79.6 				"/>
				<polygon class="st2" points="74.1,75.6 70.7,77.6 74.1,79.6 77.5,77.6 				"/>
				<polygon class="st8" points="77.5,81.5 77.5,77.6 74.1,79.6 74.1,83.5 				"/>
			</g>
		</g>
		<g>
			<polygon class="st0" points="80.2,86.5 78.6,90.8 81.6,90.8 83.2,86.5 			"/>
			<polygon class="st8" points="81.7,82.1 78.7,82.1 77.1,86.4 80.2,86.5 			"/>
			<polygon class="st0" points="83.2,86.5 84.8,82.1 81.7,82.1 80.2,86.5 			"/>
			<polygon class="st2" points="81.6,90.8 84.7,90.8 86.2,86.5 83.2,86.5 			"/>
			<polygon class="st8" points="84.8,82.1 83.2,86.5 86.2,86.5 87.8,82.1 			"/>
			<polygon class="st0" points="80.3,77.7 78.7,82.1 81.7,82.1 83.3,77.7 			"/>
			<polygon class="st2" points="83.3,77.7 81.7,82.1 84.8,82.1 86.4,77.7 			"/>
			<polygon class="st0" points="86.4,77.7 84.8,82.1 87.8,82.1 89.4,77.7 			"/>
			<polygon class="st2" points="77.1,86.4 75.5,90.8 78.6,90.8 80.2,86.5 			"/>
			<polygon class="st8" points="72.4,89 75.5,90.8 77.1,86.4 74,84.6 			"/>
			<polygon class="st2" points="80.3,77.7 77.1,75.8 75.5,80.3 78.7,82.1 			"/>
			<polygon class="st0" points="75.5,80.3 74,84.6 77.1,86.4 78.7,82.1 			"/>
			<polygon class="st8" points="77.1,75.8 80.3,77.7 83.3,77.7 80.2,75.8 			"/>
			<polygon class="st8" points="86.2,75.8 83.2,75.8 86.4,77.7 89.4,77.7 			"/>
			<polygon class="st0" points="80.2,75.8 83.3,77.7 86.4,77.7 83.2,75.8 			"/>
		</g>
	</g>
</g>
</svg>
