<?xml version="1.0" encoding="utf-8"?>
<!-- Generator: Adobe Illustrator 25.4.0, SVG Export Plug-In . SVG Version: 6.00 Build 0)  -->
<svg version="1.1" xmlns="http://www.w3.org/2000/svg" xmlns:xlink="http://www.w3.org/1999/xlink" x="0px" y="0px"
	 viewBox="0 0 150 150" style="enable-background:new 0 0 150 150;" xml:space="preserve">
<style type="text/css">
	.st0{fill:#00AEEF;}
	.st1{fill:#FCB040;stroke:#000000;stroke-width:0.5;stroke-linecap:round;stroke-linejoin:round;stroke-miterlimit:10;}
	.st2{fill:none;stroke:#000000;stroke-width:0.5;stroke-linecap:round;stroke-linejoin:round;stroke-miterlimit:10;}
	.st3{stroke:#000000;stroke-width:0.5;stroke-linecap:round;stroke-linejoin:round;stroke-miterlimit:10;}
	.st4{fill:#00AEEF;stroke:#000000;stroke-width:0.5;stroke-linecap:round;stroke-linejoin:round;stroke-miterlimit:10;}
	.st5{fill:#FFFFFF;stroke:#000000;stroke-width:0.5;stroke-linecap:round;stroke-linejoin:round;stroke-miterlimit:10;}
	.st6{fill:none;stroke:#000000;stroke-width:0.5;stroke-miterlimit:10;}
	.st7{fill:none;stroke:#FCB040;stroke-width:0.5;stroke-linecap:round;stroke-linejoin:round;stroke-miterlimit:10;}
	.st8{fill:none;stroke:#00AEEF;stroke-width:0.5;stroke-linecap:round;stroke-linejoin:round;stroke-miterlimit:10;}
	.st9{fill:#FCB040;stroke:#FCB040;stroke-width:0.5;stroke-linecap:round;stroke-linejoin:round;stroke-miterlimit:10;}
	.st10{fill:#FFFFFF;stroke:#00AEEF;stroke-width:0.5;stroke-linecap:round;stroke-linejoin:round;stroke-miterlimit:10;}
	.st11{fill:#FCB040;stroke:#000000;stroke-width:0.5;stroke-miterlimit:10;}
	.st12{fill:#FFFFFF;stroke:#00AEEF;stroke-width:0.5;stroke-miterlimit:10;}
	.st13{fill:#00AEEF;stroke:#00AEEF;stroke-width:0.5;stroke-linecap:round;stroke-linejoin:round;stroke-miterlimit:10;}
	.st14{fill:#FFFFFF;stroke:#FCB040;stroke-width:0.5;stroke-linecap:round;stroke-linejoin:round;stroke-miterlimit:10;}
	.st15{fill:#FCB040;stroke:#FCB040;stroke-width:0.1;stroke-linecap:round;stroke-linejoin:round;stroke-miterlimit:10;}
	.st16{fill:#00AEEF;stroke:#1D1D1B;stroke-width:0.5;stroke-linecap:round;stroke-linejoin:round;stroke-miterlimit:10;}
	.st17{fill:none;stroke:#FFFFFF;stroke-width:0.5;stroke-linecap:round;stroke-linejoin:round;stroke-miterlimit:10;}
	.st18{fill:#00AEEF;stroke:#00AEEF;stroke-width:0.4451;stroke-linecap:round;stroke-linejoin:round;stroke-miterlimit:10;}
	.st19{fill:#FFFFFF;stroke:#FCB040;stroke-width:0.4451;stroke-linecap:round;stroke-linejoin:round;stroke-miterlimit:10;}
	.st20{fill:#FCB040;stroke:#FCB040;stroke-width:0.4183;stroke-linecap:round;stroke-linejoin:round;stroke-miterlimit:10;}
	.st21{fill:#FFFFFF;stroke:#00AEEF;stroke-width:0.4183;stroke-linecap:round;stroke-linejoin:round;stroke-miterlimit:10;}
	.st22{fill:none;stroke:#FCB040;stroke-width:0.5;stroke-miterlimit:10;}
	.st23{fill:#00AEEF;stroke:#000000;stroke-width:0.5;stroke-miterlimit:10;}
</style>
<g id="Cores">
</g>
<g id="Homem">
	<ellipse transform="matrix(1 -6.291624e-03 6.291624e-03 1 -0.8538 0.187)" class="st0" cx="29.3" cy="135.8" rx="14.1" ry="8.1"/>
	<g>
		<path class="st1" d="M42,74.9C42,74.9,42,75,42,74.9c-0.3,0.3-0.5,0.6-0.7,0.9c-0.1,0.2-0.2,0.4-0.2,0.6c0,0.5,0.2,0.9,0.3,1.4
			c0.1,0.8-0.2,1.6-0.5,2.3c-0.6,1.6-1.2,3.1-1.7,4.6c-0.2,0.5-0.4,1-0.8,1.4c-0.3,0.3-0.7,0.5-1,0.8c-1,0.6-1.9,1.3-2.7,2
			c0.2,0.6,0.5,1.2,0.7,1.8c0.2,0.3,0.3,0.7,0.5,1c0.1,0.2,0.3,0.4,0.4,0.7c1.3-0.7,2.5-1.5,3.4-2.7c0.2-0.3,0.5-0.7,0.7-1
			c0.3-0.3,0.6-0.7,0.9-1c0.9-1.1,1.4-2.5,1.7-4c0.1-0.7,0.3-1.3,0.5-2c0.1-0.5,0.2-1.2,0.5-1.7c0.1-0.2,0.3-0.3,0.4-0.5
			c0.6-0.6,0.9-1.6,0.7-2.4c-0.1-0.6-0.3-1-0.1-1.6c0.2-0.5,0.5-1,0.5-1.5c0-0.3,0-0.6-0.3-0.6c-0.1,0-0.3,0-0.4,0.1
			c-0.1,0.1-0.2,0.2-0.2,0.3c-0.2,0.4-0.4,0.9-0.7,1.1c-0.1,0.1-0.2,0.1-0.3,0.1c-0.1-0.6,0.2-1.1,0.4-1.7c0.1-0.4,0.1-0.8,0-1.2
			c0-0.3-0.2-0.6-0.6-0.6c-0.1,0-0.2,0.1-0.2,0.1C43,72,43,72.2,43,72.4c0,0.3-0.1,0.6-0.2,0.9"/>
		<path class="st2" d="M36.4,92.7c0,0.5-1.1,0.9-1.5,1.1c-0.6,0.4-1.3,0.8-1.9,1.1c-0.2,0.1-0.4,0.2-0.5,0.4
			c-0.1,0.1-0.2,0.3-0.2,0.5c-0.7,2.6-0.6,5.3-1,7.9c-0.1,0.7-0.2,1.3-0.7,1.8c-0.1,0.1-0.2,0.2-0.2,0.2c-1.7,1.5-5.3,0.9-7.3,0.6
			c-0.2,0-0.4-0.1-0.6-0.2c-0.4-0.2-0.9-0.5-1.2-0.8c-0.1-0.1-0.1-0.1-0.2-0.2c-0.2-0.2-0.3-0.4-0.3-0.6c0-0.1,0-0.3,0.1-0.4
			c0.4-1.3,1.2-2.5,1.5-3.8c0.3-1.2,0.7-2.6,0.8-3.8c-0.4,0-0.7,0.3-1,0.6c-0.4,0.4-0.7,0.8-1.3,0.8c-0.2,0-0.4-0.1-0.6-0.2
			c-0.4-0.2-0.7-0.6-1-1c-0.4-0.4-0.8-0.9-0.9-1.4c0-0.1-0.1-0.2-0.1-0.3c0-0.1,0-0.3,0-0.4c0-0.1,0.1-0.2,0.2-0.2
			c1.3-1.2,2.6-2.5,4.1-3.4c1.1-0.6,2.4-0.9,3.7-0.9h0.1c0,0.1,0,0.1,0,0.2c0,0.1,0,0.2,0,0.2c0,0.1,0.1,0.2,0.2,0.3
			c0.5,0.7,1.4,1.5,2.3,1.3c0.7-0.2,1.3-0.9,1.1-1.6c0-0.1-0.1-0.2-0.1-0.3c0.5,0,1,0,1.5-0.1c1.2-0.2,2.3-0.8,3.3-1.4
			c0,0.1,0.1,0.1,0.1,0.2c0.2,0.6,0.5,1.2,0.7,1.8c0.2,0.3,0.3,0.7,0.5,1c0.1,0.2,0.3,0.4,0.4,0.7C36.4,92.5,36.4,92.7,36.4,92.7z"
			/>
		<path class="st1" d="M20.2,97.7c-0.8,1.2-1.9,2.1-2.5,3.3c-0.2,0.3-0.3,0.7-0.4,1.1c-0.6,1.6-1.8,3-2.5,4.5
			c-0.5,1-0.5,1.8,0.1,2.8c0.2,0.3,0.4,0.7,0.4,1.1c0,0.2,0,0.4,0,0.6c0,0.2,0.1,0.3,0,0.5c0,0.1-0.1,0.2-0.2,0.2
			c-0.1,0-0.2,0-0.2,0c-0.1,0-0.1,0-0.2,0c-0.1,0-0.1-0.1-0.2-0.2c-0.3-0.3-0.6-0.7-0.9-1.1c-0.1-0.1-0.1-0.1-0.2-0.1
			c-0.1,0-0.2,0.2-0.2,0.3c-0.1,0.7-0.2,1.4-0.2,2.1c0,0.7,0,1.4-0.3,2c0,0.1-0.1,0.2-0.2,0.3c-0.2,0.1-0.4,0-0.5-0.2
			c0,0-0.1,0.3-0.1,0.3c0,0.1-0.1,0.2-0.2,0.3c-0.1,0-0.2,0-0.2,0c-0.5-0.1-0.7-0.6-0.7-1.1c0,0,0,0,0-0.1c-0.2,0.1-0.6-0.1-0.7-0.3
			c-0.4-0.8-0.3-1.7-0.2-2.6c0.1-0.6,0.1-1.2,0.3-1.7c0.3-1.2,1-2.1,1.6-3.2c1.4-2.6,2.1-5.6,3.9-8c0.3-0.5,0.7-0.9,1.1-1.4
			c0.6-0.6,1.1-1.3,1.7-2c0.2,0.5,0.5,1,0.9,1.4C19.5,97,19.8,97.4,20.2,97.7z"/>
		<path class="st1" d="M42.2,73.4c-0.1,0.5-0.2,1-0.2,1.5c0,0,0,0.1,0,0.1c0,0,0,0,0,0c0,0,0,0,0,0.1c-0.2,0.3-0.5,0.5-0.7,0.9
			c-0.1,0.2-0.2,0.4-0.2,0.6c-0.2-0.2-0.4-0.7-0.5-1c-0.1-0.3,0-0.5,0.1-0.8c0.2-0.6,0.3-1.1,0.4-1.7c0.1-0.4,0-0.9,0.2-1.3
			c0-0.1,0.1-0.3,0.3-0.3c0.1,0,0.3,0,0.4,0.1C42.4,71.9,42.3,72.8,42.2,73.4z"/>
		<path class="st1" d="M26.7,87.8c0,0.1-0.1,0.3-0.2,0.3c-0.1,0.1-0.3,0.1-0.4,0c-0.3-0.1-0.6-0.1-0.8-0.4c-0.1-0.1-0.2-0.3-0.2-0.4
			c0-0.2,0.1-0.4,0.2-0.6c0.1-0.2,0.4-0.3,0.6-0.3c0.2,0,0.4,0.1,0.5,0c0.4-0.3-0.8-1.4-0.5-1.9c0.1-0.3,0.3-0.5,0.6-0.6
			c0.3-0.2,0.8-0.4,1.2-0.4c0.1,0,0.2,0,0.2,0c0.3,0.1,0.5,0.2,0.7,0.4c0.2,0.2,0.4,0.3,0.5,0.6c0.2,0.5,0.5,0.5,0.7,0.9
			c0.2,0.3,0.4,0.8,0.5,1.2c0.2,0.7,0.1,1.5-0.5,2c-0.1,0.1-0.2,0.2-0.4,0.2c0,0-0.3,0.2-0.3,0.2c0,0.2,0.1,0.4,0.2,0.6
			c0.1,0.2,0.2,0.4,0.3,0.7c0,0.1,0.1,0.2,0.1,0.3c0.2,0.7-0.3,1.5-1.1,1.6c-0.9,0.2-1.8-0.6-2.3-1.3c-0.1-0.1-0.1-0.2-0.2-0.3
			c0-0.1,0-0.2,0-0.2c0-0.1,0-0.1,0-0.2c0-0.6,0.1-1.9-0.4-2.1c0,0-0.1,0-0.1,0"/>
		<path class="st3" d="M26.5,86.4c-0.1,0.1-0.3,0-0.5,0c-0.2,0-0.5,0.1-0.6,0.3c-0.1,0.2-0.2,0.4-0.2,0.6c-0.1,0-0.1,0-0.2-0.1
			c-0.4-0.2-0.6-0.6-0.8-1C24.1,86.1,24,86,24,85.8c0-0.1,0.1-0.2,0.1-0.3c0.1-0.2,0-0.5,0-0.7c0-0.8,0.6-1.5,1.4-1.7
			c0.1,0,0.2,0,0.3-0.1c0.1-0.1,0.1-0.2,0.2-0.3c0.2-0.4,0.8-0.4,1.2-0.1c0.2,0.2,0.5,0.5,0.5,0.8c-0.4,0-0.8,0.2-1.2,0.4
			c-0.2,0.2-0.5,0.4-0.6,0.6C25.7,85.1,26.9,86.1,26.5,86.4z"/>
		<path class="st3" d="M36.2,120c-0.1,3.2-1.1,6.4-1.9,9.3c0,0.1-0.1,0.2-0.1,0.3c-0.1,0.1-0.2,0.1-0.4,0.1c0,0,0,0-0.1,0
			c-1-0.2-1.9-0.6-2.6-1.3c-0.2-0.1-0.3-0.3-0.5-0.5c0.4-2.3,0.9-4.5,1-6.8c0.1-0.7,0.1-1.5-0.1-2.2c-0.1-0.6-0.4-1.1-0.7-1.7
			c-0.8-1.8-1.7-3.5-2.7-5.2c-0.3-0.5-0.6-1-1-1.4c-0.1,0.2,0,0.5,0.1,0.7c0.5,1.8,0.9,3.5,1.3,5.3c0.1,0.5,0.2,0.9,0.2,1.4
			c-0.5-0.1-1,0.1-1.4,0.3c-0.6,0.4-0.9,1.1-1.2,1.8c-0.1,0.5-0.2,1-0.2,1.5c0.1,0.9,0.7,1.8,1.5,2.2c0,0,0.1,0,0.1,0.1
			c-0.1,0.3-0.2,0.5-0.3,0.8c-0.4,1.2-0.7,2.5-1.2,3.7c-0.2,0.5-1.8,4.5-2.1,4.5c0,0,0,0-0.1,0c-1-0.2-2-0.6-2.9-1.2
			c-0.3-0.2-0.5-0.3-0.7-0.6c-0.1-0.1-0.2-0.2-0.2-0.3c0-0.1,0-0.2,0.1-0.3c1.1-3.3,2.5-6.4,3.4-9.8c0.1-0.6,0.3-1.2,0.3-1.8
			c0-0.6-0.2-1.2-0.4-1.8c-0.5-1.7-1-3.3-1.4-5c-0.4-1.5-0.8-2.8-1.1-4.3c-0.1-0.6-0.2-1.6,0.1-2.3c0.4,0.3,0.8,0.5,1.2,0.8
			c0.2,0.1,0.4,0.2,0.6,0.2c1.9,0.4,5.6,1,7.3-0.6c0.2,0.2,0.3,0.4,0.4,0.6c0.6,1,1.3,2,1.8,2.7c1,1.5,1.4,2.7,2.2,4.4
			c0.2,0.5,0.5,0.9,0.6,1.4c-0.3,0-0.6,0.1-0.9,0.3c-0.4,0.2-0.7,0.6-0.9,1.1c-0.3,0.7-0.4,1.6-0.1,2.4c0.3,0.7,0.9,1.3,1.7,1.6
			c0.1,0.1,0.3,0.1,0.5,0.1C36,120.2,36.1,120.1,36.2,120z"/>
		<path class="st4" d="M28.6,121.4c-0.2,0.8-0.5,1.6-0.8,2.3c0,0-0.1,0-0.1-0.1c-0.8-0.4-1.4-1.3-1.5-2.2c-0.1-0.5,0-1,0.2-1.5
			c0.2-0.7,0.6-1.4,1.2-1.8c0.4-0.3,0.9-0.4,1.4-0.3C29.1,119.1,29,120.1,28.6,121.4z"/>
		<path class="st2" d="M27.3,110.5C27.2,110.5,27.3,110.5,27.3,110.5c0.1-0.6,0.7-0.8,1-1.2"/>
		<path class="st4" d="M36.2,120c-0.1,0.1-0.3,0.2-0.5,0.3c-0.2,0-0.3,0-0.5-0.1c-0.8-0.3-1.4-0.9-1.7-1.6c-0.3-0.8-0.3-1.6,0.1-2.4
			c0.2-0.4,0.5-0.8,0.9-1.1c0.3-0.2,0.6-0.2,0.9-0.3c0,0.1,0.1,0.2,0.1,0.3C36.1,116.7,36.3,118.3,36.2,120z"/>
		<path class="st5" d="M29.7,139.1c-1,0.8-3.5-0.1-4.4-0.4c-1.8-0.7-3.5-1.8-5-3c-0.1-0.1-0.3-0.3-0.3-0.5c-0.1-0.2,0-0.4,0.1-0.6
			c0.4-1.1,0.8-2.1,1.2-3.2c-0.1,0.2,1.7,0.9,1.9,1c0.2,0.1,0.9,0.1,1.1,0.3c0.1,0.1,0,0.2,0,0.3c0.1,0.2,0.2,0.3,0.3,0.5
			c0.4,0.6,1,1,1.7,1.4c0.7,0.4,1.5,0.9,2.2,1.3c0.4,0.3,0.9,0.5,1.2,0.9c0.3,0.4,0.5,0.9,0.4,1.4C30,138.8,29.9,139,29.7,139.1z"/>
		<path class="st5" d="M39.7,133.4c0.5,1.1-1.5,1.3-2.2,1.2c-2.2-0.3-4.2-1.3-6.2-2.2c-0.3-0.1-0.5-0.2-0.8-0.4
			c-0.2-0.1-0.5-0.2-0.7-0.4c0,0-0.1-0.1-0.1-0.1c0-0.1,0-0.2,0-0.2c0.2-1,0.8-1.9,1.2-2.8c0,0,0-0.1,0.1-0.1c0,0,0.1,0,0.1,0
			c0.5,0.1,0.9,0.5,1.3,0.8c0.5,0.2,1.1,0.4,1.7,0.4c0.1,0.3,0.3,0.6,0.5,0.8c0.1,0.1,0.3,0.2,0.4,0.3c1.1,0.7,2.4,1.2,3.6,1.9
			c0.3,0.1,0.6,0.3,0.8,0.6C39.6,133.2,39.6,133.3,39.7,133.4z"/>
		<path class="st6" d="M31.1,128.2C31.1,128.2,31.1,128.2,31.1,128.2"/>
		<path class="st2" d="M24.6,133.6c-0.6,0.1-1.2,0.3-1.7,0.7"/>
		<path class="st2" d="M25.3,134.3c-0.6,0.2-1.1,0.6-1.6,1c0,0,0-0.1,0-0.1"/>
		<path class="st2" d="M26.2,134.9c-0.5,0.2-0.9,0.5-1.2,0.9"/>
		<path class="st2" d="M34.4,130c-0.4,0.1-0.8,0.4-1.1,0.8"/>
		<path class="st2" d="M35.1,130.7c-0.4,0.3-0.8,0.6-1.2,1"/>
		<path class="st2" d="M36,131.2c-0.3,0.2-0.6,0.5-0.8,0.8"/>
		<path class="st2" d="M11.5,111.7c-0.1,0.8,0,1.6,0.1,2.4c0,0.3,0.1,0.5,0.3,0.7l0,0"/>
		<path class="st6" d="M10.6,114.4C10.6,114.4,10.6,114.4,10.6,114.4"/>
		<path class="st2" d="M10.6,114.5c-0.2-0.9-0.2-1.9-0.1-2.8"/>
		<path class="st1" d="M43.6,78c0.3-0.5,0.5-1.4,0-1.9c-0.2-0.2-0.3-0.2-0.3-0.6c0.1-0.7,0.5-1.2,0.3-1.9c0-0.1,0-0.1-0.1-0.2
			c-0.1-0.2-0.3-0.4-0.5-0.4c-0.2,0-0.3,0.3-0.4,0.5c-0.2,0.5-0.4,1-0.7,1.5"/>
		<path class="st2" d="M22.2,133.2c0.6,0.1,1.1,0.3,1.7,0.3c0.6,0.1,1.2,0.1,1.7-0.1c0.5-0.2,1-0.6,1.3-1.1c0-0.1,0.1-0.2,0-0.3
			c0-0.1-0.1-0.1-0.2-0.1c-0.2-0.1-0.5,0-0.8,0.1c-0.2,0.1-0.4,0.4-0.5,0.6c-0.3,0.4-0.5,0.8-0.7,1.2"/>
		<path class="st2" d="M35.1,129.3c0.1-0.1,0.2-0.2,0.3-0.3c0.1-0.1,0.2-0.1,0.4-0.1c0.2,0,0.4,0,0.5,0.1c0.2,0.1,0.2,0.4,0.1,0.6
			c-0.1,0.2-0.3,0.3-0.5,0.4c-0.2,0.1-0.4,0.1-0.6,0.1c-0.3,0-0.6,0.1-0.9,0.2C34.3,129.9,34.9,129.5,35.1,129.3z"/>
		<path class="st1" d="M28.5,88.8c0.1,0.1,0.2,0.1,0.3,0.1c0.1,0,0.2,0,0.3,0c0.1,0,0.2,0,0.3,0c0.1,0,0.4-0.2,0.5-0.2"/>
		<path class="st2" d="M27.7,85.4c0.1-0.1,0.2-0.2,0.3-0.3"/>
		<path class="st2" d="M29,84.6c0.1,0,0.2-0.1,0.3-0.1"/>
		<path class="st2" d="M29.1,87.1c0.2,0,0.4,0,0.6-0.2"/>
	</g>
	<line class="st7" x1="44.8" y1="32.3" x2="71.9" y2="16.7"/>
	<line class="st7" x1="44.1" y1="30.8" x2="76.6" y2="49.5"/>
</g>
<g id="Cobra_azul_cabeça">
	<g>
		<g>
			<path class="st8" d="M95.5,121.4c-0.8,1.1-2.4,2.2-3.5,2.6"/>
		</g>
		<g>
			<path class="st8" d="M95.7,123c-0.5,0.7-1.4,1.4-2.1,1.6"/>
		</g>
	</g>
	<g>
		<path class="st2" d="M85,100.2c0.4-0.4,0.8,0,1,0.4c0.1,0.2,0.1,0.4,0.3,0.5c0.3,0.1,0.6-0.1,0.8-0.2c0.2-0.2,0.4-0.5,0.7-0.5
			c0.2,0,0.5,0.2,0.6,0.4c0.1,0.2,0.1,0.5,0,0.7"/>
		<g>
			<path class="st4" d="M82.1,124c-5.7,0-11.2-2.8-14.5-7.8c-0.9-1.4-0.5-3.2,0.9-4.2c1.4-0.9,3.2-0.5,4.2,0.9
				c3.2,4.9,10,6.5,15.2,3.5c2.7-1.5,4.6-4.9,4.5-7.9c-0.1-2-1.1-3.5-2.9-4.1c-1.5-0.6-2.9-2.2-2.3-3.8c0.6-1.7,2.5-2.1,4.1-1.8
				c4.3,0.9,6.9,5.5,7.1,9.6c0.2,5.2-2.9,10.7-7.6,13.3C88.1,123.3,85.1,124,82.1,124z"/>
		</g>
		<circle class="st5" cx="90.2" cy="101.2" r="0.7"/>
		<path d="M69.7,118.5c0-0.1-0.3-1.5,1.7-3l-2.8,1.7L69.7,118.5z"/>
	</g>
	<line x1="122" y1="83.8" x2="119.8" y2="85.1"/>
</g>
<g id="Cubo_1">
	<line class="st7" x1="61.4" y1="101.2" x2="113.7" y2="71"/>
	<g>
		<polygon class="st9" points="61.4,81.3 44.2,91.2 44.2,111.1 61.4,121.1 78.6,111.1 78.6,91.2 		"/>
		<polygon class="st10" points="61.4,86.3 48.5,93.7 48.5,108.6 61.4,116.1 74.3,108.6 74.3,93.7 		"/>
		<line class="st8" x1="61.4" y1="90.3" x2="61.4" y2="86.3"/>
		<line class="st8" x1="70.8" y1="95.7" x2="74.3" y2="93.7"/>
		<line class="st8" x1="70.8" y1="106.6" x2="74.3" y2="108.6"/>
		<line class="st8" x1="61.4" y1="112.1" x2="61.4" y2="116.1"/>
		<line class="st8" x1="51.9" y1="106.6" x2="48.5" y2="108.6"/>
		<line class="st8" x1="51.9" y1="95.7" x2="48.5" y2="93.7"/>
		<g>
			<polygon class="st1" points="51.9,95.7 51.9,106.6 61.4,112.1 61.4,101.2 			"/>
			<polygon class="st4" points="61.4,90.3 51.9,95.7 61.4,101.2 70.8,95.7 			"/>
			<polygon class="st5" points="70.8,106.6 70.8,95.7 61.4,101.2 61.4,112.1 			"/>
		</g>
	</g>
</g>
<g id="Cobra_laranja_cauda">
	<g>
		<path class="st11" d="M123.8,79.7c0.3,0.3,0.6,0.7,0.9,1.1c1.9,2.8,2.9,6.1,2.7,9.5s-1.7,6.6-4.1,8.9c-0.5,0.5-1.1,0.9-1.6,1.4
			c-0.5,0.5-0.9,1.1-1.2,1.8c-0.1,0.2-0.2,0.4-0.4,0.5c-0.2,0.1-0.4,0.2-0.6,0c-0.1-0.1-0.2-0.2-0.2-0.3c-0.4-0.9,0-2.1,0.5-2.8
			c0.4-0.8,0.9-1.4,1.4-2.2c1.1-1.8,1.7-4,1.6-6.1c-0.1-2.1-0.9-4.2-2.4-5.8c-0.6-0.7-1.4-1.3-1.9-2c-0.3-0.4-0.5-0.9-0.6-1.3
			c-0.1-0.5,0-0.9,0.1-1.4c0.2-0.9,0.9-1.7,1.7-2.2c0.9-0.5,1.9-0.5,2.8-0.2C122.8,78.9,123.4,79.3,123.8,79.7z"/>
		<path class="st11" d="M126.4,94.4c-0.4,1.1-1,2.2-1.8,3.2"/>
	</g>
	<g>
		<path class="st7" d="M129.4,88.4c0.1,1,0,1.9-0.2,2.9"/>
		<path class="st7" d="M130.5,89.2c0,0.5,0,1-0.1,1.5"/>
	</g>
	<path d="M119.8,85.1l0.9,1c0,0,0.3-1.6,1.4-2.3"/>
</g>
<g id="Nuvem_3">
	<path class="st12" d="M137.1,59.3c-0.2,0-0.3,0-0.5,0c0-0.3,0.1-0.6,0.1-0.8c0-3.2-2.6-5.8-5.8-5.8c-2.5,0-4.6,1.5-5.4,3.7
		c-0.4-0.3-1-0.4-1.5-0.4c-1.5,0-2.8,1.2-3,2.7c-2,0.5-3.4,2.2-3.4,4.4c0,2.5,2,4.5,4.5,4.5h15c2.3,0,4.1-1.8,4.1-4.1
		C141.2,61.2,139.4,59.3,137.1,59.3z"/>
</g>
<g id="Cubo_2">
	<line class="st7" x1="76.6" y1="49.5" x2="113.7" y2="71"/>
	<g>
		<polygon class="st13" points="113.7,53.6 98.7,62.2 98.7,79.5 113.7,88.2 128.7,79.5 128.7,62.2 		"/>
		<polygon class="st14" points="113.7,58.2 102.7,64.6 102.7,77.4 113.7,83.8 124.8,77.4 124.8,64.6 		"/>
	</g>
	<g>
		<ellipse transform="matrix(1 -6.291624e-03 6.291624e-03 1 -0.4188 0.718)" class="st5" cx="113.9" cy="66.9" rx="5.2" ry="3"/>
		<path class="st1" d="M111.2,73.4c1.3,0,1.3-1.4,2.6-1.4c1.3,0,1.3,1.4,2.6,1.4c1.3,0,1.3-1.4,2.6-1.4c0.1,0,0.2,0,0.3,0v-5.2h0
			c0,0.8-0.5,1.5-1.5,2.1c-2.1,1.2-5.4,1.2-7.4,0c-1-0.6-1.5-1.4-1.5-2.2h0v5.2C109.9,72.1,109.9,73.4,111.2,73.4z"/>
		<g>
			<path class="st15" d="M110.2,66.9c0-0.3,0.1-0.5,0.2-0.7c0.1-0.1,0.3-0.2,0.4-0.2s0.3,0.1,0.4,0.2c0.1,0.2,0.2,0.4,0.2,0.7
				c0,0.3-0.1,0.5-0.2,0.7c-0.1,0.1-0.3,0.2-0.4,0.2c-0.2,0-0.3-0.1-0.4-0.2C110.3,67.4,110.2,67.2,110.2,66.9z M110.5,66.9
				c0,0.2,0,0.4,0.1,0.5c0.1,0.1,0.2,0.2,0.3,0.2c0.1,0,0.2-0.1,0.3-0.2c0.1-0.1,0.1-0.3,0.1-0.5c0-0.2,0-0.3-0.1-0.5
				c-0.1-0.1-0.2-0.2-0.3-0.2c-0.1,0-0.2,0.1-0.3,0.2C110.5,66.6,110.5,66.7,110.5,66.9z"/>
			<path class="st15" d="M112.1,66.3h-0.3l0.1-0.2h0.4v1.7h-0.3V66.3z"/>
			<path class="st15" d="M113.1,66.3h-0.3l0.1-0.2h0.4v1.7h-0.3V66.3z"/>
			<path class="st15" d="M113.7,66.9c0-0.3,0.1-0.5,0.2-0.7c0.1-0.1,0.3-0.2,0.4-0.2s0.3,0.1,0.4,0.2c0.1,0.2,0.2,0.4,0.2,0.7
				c0,0.3-0.1,0.5-0.2,0.7c-0.1,0.1-0.3,0.2-0.4,0.2c-0.2,0-0.3-0.1-0.4-0.2C113.8,67.4,113.7,67.2,113.7,66.9z M114,66.9
				c0,0.2,0,0.4,0.1,0.5c0.1,0.1,0.2,0.2,0.3,0.2c0.1,0,0.2-0.1,0.3-0.2c0.1-0.1,0.1-0.3,0.1-0.5c0-0.2,0-0.3-0.1-0.5
				c-0.1-0.1-0.2-0.2-0.3-0.2c-0.1,0-0.2,0.1-0.3,0.2C114,66.6,114,66.7,114,66.9z"/>
			<path class="st15" d="M115.4,66.9c0-0.3,0.1-0.5,0.2-0.7c0.1-0.1,0.3-0.2,0.4-0.2s0.3,0.1,0.4,0.2c0.1,0.2,0.2,0.4,0.2,0.7
				c0,0.3-0.1,0.5-0.2,0.7c-0.1,0.1-0.3,0.2-0.4,0.2c-0.2,0-0.3-0.1-0.4-0.2C115.4,67.4,115.4,67.2,115.4,66.9z M115.6,66.9
				c0,0.2,0,0.4,0.1,0.5c0.1,0.1,0.2,0.2,0.3,0.2c0.1,0,0.2-0.1,0.3-0.2c0.1-0.1,0.1-0.3,0.1-0.5c0-0.2,0-0.3-0.1-0.5
				c-0.1-0.1-0.2-0.2-0.3-0.2c-0.1,0-0.2,0.1-0.3,0.2C115.7,66.6,115.6,66.7,115.6,66.9z"/>
			<path class="st15" d="M117.1,66.3h-0.3L117,66h0.4v1.7h-0.3V66.3z"/>
		</g>
		<path class="st8" d="M106.1,75.7c1.3,0,1.3-1.4,2.6-1.4c1.3,0,1.3,1.4,2.6,1.4c1.3,0,1.3-1.4,2.6-1.4c1.3,0,1.3,1.4,2.6,1.4
			c1.3,0,1.3-1.4,2.6-1.4c1.3,0,1.3,1.4,2.6,1.4"/>
		<path class="st8" d="M106.1,73.4c1.3,0,1.3-1.4,2.6-1.4c1.3,0,1.3,1.4,2.6,1.4c1.3,0,1.3-1.4,2.6-1.4c1.3,0,1.3,1.4,2.6,1.4
			c1.3,0,1.3-1.4,2.6-1.4c1.3,0,1.3,1.4,2.6,1.4"/>
		<path class="st8" d="M106.1,77.9c1.3,0,1.3-1.4,2.6-1.4c1.3,0,1.3,1.4,2.6,1.4c1.3,0,1.3-1.4,2.6-1.4c1.3,0,1.3,1.4,2.6,1.4
			c1.3,0,1.3-1.4,2.6-1.4c1.3,0,1.3,1.4,2.6,1.4"/>
	</g>
</g>
<g id="Cubo_3">
	<g>
		<polygon class="st9" points="45.8,21.1 36.6,26.4 36.6,37 45.8,42.3 55.1,37 55.1,26.4 		"/>
		<g>
			<g>
				<g>
					<polygon class="st10" points="45.8,23.7 39,27.7 39,35.7 45.8,39.7 52.7,35.7 52.7,27.7 					"/>
					<g>
						<rect x="43.4" y="27.6" class="st5" width="5.5" height="7.3"/>
					</g>
					<g>
						<polygon class="st5" points="46.6,28.2 42.8,28.2 42.8,35.5 48.3,35.5 48.3,29.9 						"/>
						<polygon class="st5" points="46.6,29.9 46.6,28.2 48.3,29.9 						"/>
					</g>
					<rect x="43.5" y="31.3" class="st8" width="1" height="0.9"/>
					<rect x="44.5" y="31.3" class="st8" width="1" height="0.9"/>
					<rect x="45.5" y="31.3" class="st8" width="1" height="0.9"/>
					<rect x="46.5" y="31.3" class="st8" width="1" height="0.9"/>
					<rect x="44.5" y="32.2" class="st8" width="1" height="0.9"/>
					<rect x="46.5" y="32.2" class="st8" width="1" height="0.9"/>
					<rect x="43.5" y="33" class="st8" width="1" height="0.9"/>
					<rect x="45.5" y="33" class="st8" width="1" height="0.9"/>
					<rect x="46.5" y="33" class="st8" width="1" height="0.9"/>
					<polygon class="st8" points="46.5,33.9 45.5,33.9 44.5,33.9 43.5,33.9 43.5,34.8 44.5,34.8 45.5,34.8 46.5,34.8 47.5,34.8
						47.5,33.9 					"/>
					<line class="st8" x1="44.6" y1="30.5" x2="46.4" y2="30.5"/>
					<line class="st7" x1="43.5" y1="29.1" x2="44.6" y2="29.1"/>
					<line class="st7" x1="43.5" y1="29.6" x2="44.6" y2="29.6"/>
				</g>
				<rect x="43.5" y="32.2" class="st8" width="1" height="0.9"/>
			</g>
			<rect x="45.5" y="32.2" class="st8" width="1" height="0.9"/>
			<rect x="44.5" y="33" class="st8" width="1" height="0.9"/>
		</g>
	</g>
</g>
<g id="Cubo_4">
	<g>
		<polygon class="st13" points="73.5,35.9 63.3,41.8 63.3,53.6 73.5,59.5 83.7,53.6 83.7,41.8 		"/>
	</g>
	<g>
		<polygon class="st14" points="73.5,38.9 65.8,43.3 65.8,52.1 73.5,56.5 81.1,52.1 81.1,43.3 		"/>
		<line class="st7" x1="65.8" y1="43.3" x2="68.2" y2="44.6"/>
		<line class="st7" x1="73.5" y1="38.9" x2="73.5" y2="41.5"/>
		<line class="st7" x1="73.5" y1="56.5" x2="73.5" y2="53.8"/>
		<line class="st7" x1="65.8" y1="52.1" x2="68.2" y2="50.8"/>
		<g>
			<polygon class="st4" points="68.2,44.6 68.2,50.8 73.5,53.8 73.5,47.7 			"/>
			<polygon class="st5" points="73.5,41.5 68.2,44.6 73.5,47.7 78.8,44.6 			"/>
			<polygon class="st1" points="78.8,50.8 78.8,44.6 73.5,47.7 73.5,53.8 			"/>
		</g>
	</g>
	<line class="st7" x1="83.7" y1="53.6" x2="81.4" y2="52.3"/>
	<line class="st7" x1="91.5" y1="27.9" x2="107" y2="18.9"/>
</g>
<g id="Cubo_5">
	<line class="st7" x1="71.9" y1="16.7" x2="91.4" y2="27.9"/>
	<g>
		<g>
			<polygon class="st9" points="91.3,20.5 84.9,24.2 84.9,31.7 91.3,35.5 97.8,31.7 97.8,24.2 			"/>
			<polygon class="st10" points="91.3,22.4 86.5,25.2 86.5,30.8 91.3,33.6 96.2,30.8 96.2,25.2 			"/>
		</g>
		<g>
			<path class="st16" d="M93.2,27.5C93.2,27.5,93.2,27.5,93.2,27.5C93.1,27.4,93.1,27.4,93.2,27.5c0-1-0.8-1.8-1.8-1.8
				c-0.9,0-1.6,0.6-1.7,1.5c-0.7,0-1.3,0.7-1.3,1.4c0,0.7,0.6,1.4,1.3,1.4v0h3.6c0.7,0,1.2-0.5,1.2-1.2C94.4,28,93.9,27.5,93.2,27.5
				z"/>
			<path class="st17" d="M90.4,28c0,0.1,0.1,0.2,0.1,0.3c0,0.1,0.1,0.2,0.2,0.2c0.1,0,0.1,0,0.2,0c0.4-0.2,0.8-0.4,1.2-0.6"/>
		</g>
	</g>
</g>
<g id="Cubo_6">
	<g>
		<polygon class="st18" points="71.9,10.7 66.7,13.7 66.7,19.7 71.9,22.7 77.1,19.7 77.1,13.7 		"/>
		<polygon class="st19" points="71.9,12.2 68,14.4 68,18.9 71.9,21.2 75.8,18.9 75.8,14.4 		"/>
		<line class="st7" x1="68" y1="14.4" x2="69.4" y2="15.2"/>
		<line class="st7" x1="71.9" y1="12.4" x2="71.9" y2="13.7"/>
		<line class="st7" x1="68" y1="18.9" x2="69.4" y2="18.1"/>
		<line class="st7" x1="74.4" y1="15.2" x2="75.8" y2="14.4"/>
		<line class="st7" x1="71.9" y1="19.6" x2="71.9" y2="21.2"/>
		<line class="st7" x1="74.4" y1="18.1" x2="75.8" y2="18.9"/>
		<g>
			<polygon class="st5" points="69.4,15.2 69.4,18.1 71.9,19.6 71.9,16.7 			"/>
			<polygon class="st1" points="71.9,13.7 69.4,15.2 71.9,16.7 74.4,15.2 			"/>
			<polygon class="st4" points="74.4,18.1 74.4,15.2 71.9,16.7 71.9,19.6 			"/>
		</g>
	</g>
</g>
<g id="Cubo_7">
	<g>
		<polygon class="st20" points="107,14.9 103.5,16.9 103.5,20.9 107,23 110.5,20.9 110.5,16.9 		"/>
		<polygon class="st21" points="107,15.9 104.4,17.4 104.4,20.4 107,21.9 109.7,20.4 109.7,17.4 		"/>
	</g>
	<g>
		<rect x="105.6" y="19" class="st0" width="0.7" height="0.6"/>
		<rect x="106.6" y="18.5" class="st0" width="0.7" height="1.1"/>
		<rect x="107.7" y="17.5" class="st0" width="0.7" height="2"/>
		<line class="st22" x1="105.6" y1="20.1" x2="108.4" y2="20.1"/>
	</g>
</g>
<g id="Cobra_azul_cauda">
	<path class="st23" d="M118.8,29.2c-0.7,0.9-1.1,2-1.3,3c-0.3,1-0.5,2-0.9,2.7c-0.8,1.4-2.3,2.1-3.5,2c-1.3-0.1-2.5,0.8-2.6,2.1
		s0.8,2.5,2.1,2.6c0.3,0,0.6,0,0.9-0.1l0.4-0.1c2.8-0.9,4.7-3.2,5.2-5.7c0.2-1.2,0.1-2.3,0.1-3.3c-0.1-1-0.1-1.9,0.3-2.8l0,0
		c0.1-0.2,0-0.4-0.2-0.5C119.1,29,118.9,29.1,118.8,29.2z"/>
	<g>
		<path class="st8" d="M120.7,37.4c-0.2,1-0.7,1.9-1.4,2.6"/>
		<path class="st8" d="M121.5,38.5c-0.1,0.5-0.3,1-0.6,1.4"/>
	</g>
</g>
<g id="Nuvem_4">
	<path class="st12" d="M109.5,34.9c-1.2,0-2.3,0.4-3.3,1c-1.1-3.3-4.2-5.6-7.8-5.6c-4.5,0-8.2,3.7-8.2,8.2c0,4.5,3.7,8.2,8.2,8.2
		h11.1c3.2,0,5.9-2.6,5.9-5.9C115.4,37.6,112.7,34.9,109.5,34.9z"/>
</g>
<g id="Cobra_laranja_cabeça">
	<g>
		<path class="st2" d="M46,49.2c0.4,0.5,0.8,0,1-0.4c0.1-0.2,0.1-0.4,0.3-0.5c0.3-0.1,0.6,0.1,0.8,0.3c0.2,0.2,0.4,0.5,0.7,0.6
			c0.2,0,0.5-0.1,0.6-0.4s0.1-0.5,0.1-0.7"/>
		<path class="st11" d="M47.6,47.7c-0.4-1.2-1.6-2-2.9-2c-2.8,0-4.9,1.8-5.9,4.3c-1,2.5-1.3,5.2-1.7,7.9c-0.3,1.8-0.6,3.6-0.9,5.4
			c0,0.1,0,0.1,0,0.2l5.9,1c0.3,0,0.6-5.7,0.7-6.3c0.1-1,0.3-2.1,0.5-3.1c0.2-1.2,0.2-2.4,1.3-3.2c0.7-0.5,1.6-0.6,2.3-1.3
			C47.7,49.8,48,48.7,47.6,47.7z"/>
		<circle class="st5" cx="44.6" cy="48.2" r="0.7"/>
	</g>
</g>
<g id="Nuvem_1">
	<path class="st12" d="M13.8,50.1c0.1,0,0.3,0,0.4,0c0-0.2-0.1-0.5-0.1-0.7c0-2.7,2.2-4.8,4.8-4.8c2.1,0,3.8,1.3,4.5,3.1
		c0.4-0.2,0.8-0.3,1.3-0.3c1.3,0,2.4,1,2.5,2.2c1.6,0.4,2.9,1.9,2.9,3.6c0,2.1-1.7,3.7-3.7,3.7H13.8c-1.9,0-3.5-1.5-3.5-3.5
		C10.4,51.6,11.9,50.1,13.8,50.1z"/>
</g>
<g id="Nuvem_2">
	<path class="st12" d="M46.4,63c0-2.4-1.9-4.3-4.3-4.3c-0.7,0-1.4,0.2-1.9,0.5c-0.8-2.5-3.1-4.2-5.8-4.2c-0.7,0-1.4,0.1-2,0.3
		c-1.4-2.2-3.8-3.6-6.6-3.6c-4.3,0-7.8,3.5-7.8,7.8c0,4.1,3.1,7.4,7.1,7.8v0h17.4v0C44.7,67,46.4,65.2,46.4,63z"/>
</g>
</svg>
