<?xml version="1.0" encoding="utf-8"?>
<!-- Generator: Adobe Illustrator 25.4.0, SVG Export Plug-In . SVG Version: 6.00 Build 0)  -->
<svg version="1.1" xmlns="http://www.w3.org/2000/svg" xmlns:xlink="http://www.w3.org/1999/xlink" x="0px" y="0px"
	 viewBox="0 0 150 150" style="enable-background:new 0 0 150 150;" xml:space="preserve">
<style type="text/css">
	.st0{fill:#00AEEF;stroke:#000000;stroke-width:0.5;stroke-linecap:round;stroke-linejoin:round;stroke-miterlimit:10;}
	.st1{fill:#FFFFFF;stroke:#000000;stroke-width:0.5;stroke-linecap:round;stroke-linejoin:round;stroke-miterlimit:10;}
	.st2{fill:#FCB040;stroke:#000000;stroke-width:0.5;stroke-linecap:round;stroke-linejoin:round;stroke-miterlimit:10;}

		.st3{fill:none;stroke:#FCB040;stroke-width:0.5;stroke-linecap:round;stroke-linejoin:round;stroke-miterlimit:10;stroke-dasharray:2;}
	.st4{fill:none;stroke:#000000;stroke-width:0.5;stroke-linecap:round;stroke-linejoin:round;stroke-miterlimit:10;}
	.st5{fill:#FFFFFF;stroke:#FCB040;stroke-width:0.5;stroke-miterlimit:10;}
	.st6{fill:none;stroke:#00AEEF;stroke-width:0.5;stroke-miterlimit:10;stroke-dasharray:2;}
	.st7{fill:#00AEEF;stroke:#000000;stroke-width:0.5;stroke-miterlimit:10;}
	.st8{fill:#FCB040;stroke:#000000;stroke-width:0.5;stroke-miterlimit:10;}
	.st9{fill:#00AEEF;}
	.st10{fill:none;stroke:#FCB040;stroke-width:0.5;stroke-miterlimit:10;}
	.st11{fill:#FCB040;}
	.st12{fill:none;stroke:#00AEEF;stroke-width:0.5;stroke-miterlimit:10;}
	.st13{fill:#FFFFFF;stroke:#00AEEF;stroke-width:0.5;stroke-miterlimit:10;}
	.st14{fill:none;stroke:#00AEEF;stroke-width:0.5;stroke-linecap:round;stroke-linejoin:round;stroke-miterlimit:10;}
	.st15{fill:none;stroke:#FCB040;stroke-width:0.5;stroke-linecap:round;stroke-linejoin:round;stroke-miterlimit:10;}
	.st16{fill:#FFFFFF;stroke:#00AEEF;stroke-width:0.4137;stroke-miterlimit:10;}
	.st17{fill:none;stroke:#00AEEF;stroke-width:0.4137;stroke-linecap:round;stroke-linejoin:round;stroke-miterlimit:10;}
	.st18{fill:#00AEEF;stroke:#000000;stroke-width:0.4592;stroke-linecap:round;stroke-linejoin:round;stroke-miterlimit:10;}
	.st19{fill:#00AEEF;stroke:#000000;stroke-width:0.4429;stroke-linecap:round;stroke-linejoin:round;stroke-miterlimit:10;}
	.st20{stroke:#000000;stroke-width:0.5;stroke-linecap:round;stroke-linejoin:round;stroke-miterlimit:10;}
	.st21{fill:none;stroke:#1D1D1B;stroke-width:0.4431;stroke-linecap:round;stroke-linejoin:round;stroke-miterlimit:10;}
	.st22{fill:#1D1D1B;}
	.st23{fill:none;stroke:#FCB040;stroke-width:0.5034;stroke-linecap:round;stroke-linejoin:round;stroke-miterlimit:10;}
</style>
<g id="Cores">
</g>
<g id="Escada">
	<g>
		<polygon class="st0" points="39.4,115 39.4,102.7 60.9,115 60.9,127.4 		"/>
		<polygon class="st1" points="50.1,96.5 71.6,108.8 60.9,115 39.4,102.7 		"/>
		<polygon class="st2" points="50.1,84.1 50.1,96.5 71.6,108.8 71.6,96.5 		"/>
		<polygon class="st1" points="60.9,77.9 50.1,84.1 71.6,96.5 82.3,90.3 		"/>
		<polygon class="st0" points="60.9,65.6 60.9,77.9 82.3,90.3 82.3,77.9 		"/>
		<polygon class="st1" points="71.6,59.4 60.9,65.6 82.3,77.9 93,71.7 		"/>
		<polygon class="st2" points="71.6,47 71.6,59.4 93,71.7 93,59.4 		"/>
		<polygon class="st1" points="82.3,40.8 71.6,47 93,59.4 103.7,53.2 		"/>
	</g>
</g>
<g id="Cobra_laranja">
	<path class="st3" d="M106.7,45.2c3.2-3,8.3-1.4,10.8,1.6c0.7,0.9,1.3,1.9,1.7,3c0.7,2,0.8,4.3,0.3,6.6c-0.3,1.4-0.8,2.7-1.5,3.9
		c-0.7,1.1-1.4,2-2.4,2.8c-1.3,1.1-2.7,2-4.1,2.8c-0.6,0.3-1.2,0.7-1.8,1.1c-1.3,0.8-1.4,1.7-1.4,4.2c0,0.8,0,1.6-0.1,2.5
		c-0.2,2.4-0.9,6-3.9,8.9c-1,0.9-2.1,1.6-3.3,2.2c-1.5,0.8-2.9,1.6-3.3,2.7c-0.4,1-0.4,2.2-0.4,3.6c0,1.1,0,2.3-0.2,3.4
		c-0.6,3.3-2.5,6-5.7,7.9l-0.6,0.4c-1.2,0.7-2.8,1.6-3.4,2.6c-0.5,0.8-0.5,1.7-0.6,3.1c0,0.8,0,1.7-0.2,2.6l-0.1,0.8
		c-0.3,1.8-0.6,3.9-2.1,5.7c-0.8,1-1.8,1.7-2.6,2.2c-1.4,0.9-3.2,2.1-5.1,3.3c-1.1,0.7-1.2,1.8-1.2,4.2c0,0.8,0,1.6,0,2.4
		c-0.4,4.3-2.5,8.2-5.6,10.5c-1.9,1.4-4.3,2.2-6.8,2.2c-2.2,0-4.2-0.6-5.8-1.8c-3.3-2.4-5-6.2-4.5-10c0-0.3,0.1-0.9,0.6-1.5
		c0.5-0.7,1.3-1.1,2.2-1.1c0.5,0,1,0.1,1.5,0.4c0.8,0.5,1.2,1.2,1.5,1.6c0.7,1.2,1.5,2.4,2.5,2.7c0.2,0.1,0.4,0.1,0.5,0.1
		c1.3,0,2.3-2,2.5-3.8c0.1-1,0.1-2,0-3.1c0-0.9-0.1-1.8,0-2.8c0.2-4.4,2.1-7.8,5.8-10.3c0.6-0.4,1.3-0.7,2-1
		c0.8-0.4,1.9-0.8,2.1-1.3c0.5-1.2,0.5-2.5,0.4-4.1c0-0.6,0-1.2,0-1.9c0-1.3,0-2.7,0.5-4.2c1-3.5,4.8-5.8,7.5-7.4l0.6-0.4
		c0.3-0.2,0.5-0.3,0.7-0.4c0.6-0.6,0.9-1.6,0.8-3.4c-0.1-2.3,0.3-4.4,0.7-6.3c0.8-4,5.1-6.4,8.2-8.2l0.8-0.4
		c0.9-0.5,1.4-1.3,1.4-2.4l0-0.6c0.2-3.7,0.3-7.8,3.3-11c1-1.1,2.3-1.8,3.5-2.5c0.2-0.1,0.5-0.3,0.7-0.4c0.3-0.2,0.5-0.3,0.8-0.5
		c0.4-0.2,0.7-0.4,1.1-0.7c0.7-0.4,1.3-0.8,1.7-1.2c0.3-0.2,0.4-0.4,0.6-0.5c-0.2-0.3-0.4-0.6-0.6-0.8c-0.9-1.2-1.3-2.3-1.5-3.8"/>
	<path class="st4" d="M108.1,48.7c-0.6,0.2-0.7-0.4-0.7-0.8c0-0.3,0.1-0.4-0.1-0.6c-0.2-0.2-0.6-0.2-0.8-0.2
		c-0.3,0.1-0.6,0.3-0.9,0.2c-0.2-0.1-0.4-0.4-0.3-0.6s0.2-0.5,0.3-0.7"/>
	<path class="st2" d="M114.3,61.7c-1.6,1.5-3.6,2.4-5.6,3.6c-3.1,2-2.1,5.1-2.4,8.2c-0.3,3-1.1,5.5-3.3,7.6c-2,2-5.9,2.9-7,5.6
		c-0.9,2.3-0.2,5-0.7,7.4c-0.5,2.9-2.3,5-4.8,6.5c-1.5,0.9-3.7,2.1-4.7,3.6c-1.3,2-0.6,4.3-1,6.4c-0.3,1.9-0.5,3.9-1.8,5.5
		c-0.6,0.7-1.4,1.3-2.2,1.8c-1.7,1.1-3.4,2.2-5.1,3.3c-2.9,1.8-1.9,5.3-2.2,8.1c-0.3,3.4-2,7-4.8,9.1c-2.8,2.1-7.3,2.5-10.2,0.4
		c-2.6-1.9-4.1-4.9-3.7-8.1c0-0.2,0.1-0.4,0.2-0.5c0.2-0.3,0.7-0.3,1-0.1c0.3,0.2,0.5,0.5,0.7,0.9c0.9,1.5,1.9,3.1,3.7,3.6
		c3.3,1,5.3-2.6,5.6-5.5c0.2-2-0.1-4,0-6c0.2-3.8,1.8-6.6,4.9-8.8c1.4-1,4-1.4,4.7-3.2c1-2.2,0.5-4.5,0.5-6.8c0-1.2,0-2.5,0.4-3.7
		c0.9-3,4.5-5,7-6.6c0.4-0.2,0.8-0.5,1.1-0.8c1.4-1.2,1.5-3.2,1.5-4.9c-0.1-2,0.2-3.9,0.7-5.8c0.7-3.4,5.2-5.7,8-7.3
		c1.5-0.9,2.3-2.2,2.4-4c0.2-3.7,0.2-7.5,2.8-10.4c1-1.1,2.4-1.7,3.7-2.5c0.6-0.4,1.2-0.7,1.9-1.1c0.7-0.4,1.4-0.9,2-1.4
		c0.4-0.4,1.1-1,1.3-1.5c0.4-1.3-1.4-2.7-1.9-3.8c-0.3-0.8-0.4-1.7-0.1-2.5c0.5-1.5,1.8-2.3,3.3-2.5c2.2-0.3,4.2,0.9,5.6,2.5
		c0.6,0.7,1,1.5,1.3,2.4c0.6,1.8,0.6,3.7,0.2,5.6c-0.3,1.1-0.7,2.3-1.3,3.3C115.7,60.3,115,61.1,114.3,61.7z"/>
	<circle class="st1" cx="111.4" cy="49.3" r="1.2"/>
</g>
<g id="Nuvem_esquerda">
	<path class="st5" d="M44.1,39.4c0-2,1.6-3.6,3.6-3.6c0.6,0,1.1,0.1,1.6,0.4c0.7-2.1,2.6-3.6,5-3.6c0.6,0,1.2,0.1,1.7,0.3
		c1.2-1.8,3.2-3.1,5.6-3.1c3.6,0,6.6,3,6.6,6.6c0,3.5-2.7,6.3-6,6.6v0H47.4v0C45.6,42.9,44.1,41.3,44.1,39.4z"/>
</g>
<g id="Cobra_azul">
	<path class="st6" d="M42.7,129.9c-0.9,0.5-1.9,0.8-3,1c0,0,0,0-0.1,0c-3.6,0.4-6.9-1.7-9.3-4.2c-1-1-1.9-2.2-2.5-3.4
		c-1.5-2.8-2.4-6-2.8-9.8c-0.3-3.2-0.3-6.7,0-10.1c0.3-3.6,1.3-6.4,3-8.6c1.1-1.4,2.5-2.4,3.9-3.4c1.8-1.3,3.3-2.4,3.7-4
		c0.2-1.1,0.3-2.2,0.3-3.4c0.1-2.5,0.3-5.3,2.1-8.1c1-1.5,2.4-2.7,4.3-3.7c0.5-0.3,1.1-0.5,1.6-0.8c0.8-0.4,1.7-0.7,2.1-1.2
		c0.7-0.7,0.7-2,0.7-3.8c-0.1-2.2-0.2-4.3,0.7-6.7c0.3-0.7,0.6-1.6,1.3-2.4c1.4-1.6,3.2-2.6,5-3.5c0.9-0.5,1.8-1,2.6-1.5
		c1.3-0.9,1.4-2.5,1.5-5c0-0.7,0-1.5,0.1-2.2c0.4-4.2,2.9-7.5,7.2-9.6c0.3-0.2,0.7-0.3,1.1-0.5c1.4-0.7,3.1-1.4,3.5-2.4
		c0.3-0.6,0.4-1.4,0.6-2.2l0.1-0.6c0.9-4.3,4.8-7.5,9.4-7.5c0.6,0,1.2,0.1,1.7,0.2c0.7,0.1,1.3,0.3,1.8,0.6c0.3,0.2,0.6,0.5,0.9,0.7
		c1.2,1.3,1.1,3.3-0.1,4.4c-0.9,0.8-1.9,0.8-2.5,0.8l-0.2,0c-0.9,0-1.8,0.5-1.9,1.4c-0.1,0.7-0.1,1.5-0.1,2.3c0,1.4,0.1,2.9-0.5,4.5
		c-1.3,3.5-4.1,5.3-6.6,7c-0.6,0.4-1.2,0.8-1.8,1.2c-0.7,0.5-0.7,1-0.5,2.8c0.1,0.6,0.1,1.1,0.1,1.7c0,3.6-1,6.8-2.9,9.3
		c-1,1.3-2.4,2.5-4.3,3.7c-0.4,0.3-0.8,0.5-1.2,0.7c-0.8,0.4-1.5,0.8-1.8,1.3c-0.3,0.5-0.4,1.3-0.4,1.9c0,0.6,0,1.2,0,1.8
		c0,2.5,0.1,5.2-1.5,7.9c-1.2,2.1-3.2,3.6-5,4.7c-0.4,0.3-0.9,0.5-1.4,0.8c-1.2,0.6-2,1.1-2.3,1.8C49,84.8,49,86,48.9,87.3
		c0,0.9,0,1.9-0.2,2.9c-0.4,2.6-1.6,5-3.3,7c-1.2,1.4-2.8,2.3-4.1,3c-1,0.5-1.9,1-2.6,1.7c-1.4,1.3-1.5,3.8-1.5,5.9
		c0.1,2.8,0.3,5.7,1.5,8.3c0.5,1.1,1.3,1.6,2.6,2c3.1,0.8,5.1,4.2,4.5,7.4c-0.1,0.3-0.2,0.7-0.3,1"/>
	<path class="st4" d="M41.8,126.6c0.1,0.7,0.8,0.5,1.2,0.2c0.2-0.2,0.3-0.3,0.6-0.3c0.3,0.1,0.5,0.4,0.6,0.7c0.1,0.3,0.1,0.7,0.3,1
		c0.2,0.2,0.6,0.2,0.8,0s0.4-0.4,0.5-0.7"/>
	<path class="st7" d="M82.3,24.7c0.2,0.1,0.3,0.2,0.4,0.3c0.4,0.4,0.5,1.2,0,1.6c-0.4,0.3-0.9,0.3-1.4,0.3c-1.8,0.1-3.5,1.3-3.8,3.1
		c-0.3,2.2,0.3,4.3-0.5,6.5c-1.3,3.6-4.8,5.1-7.7,7.3c-2.2,1.6-1.2,4-1.2,6.2c0,2.9-0.7,5.8-2.5,8c-1,1.3-2.4,2.4-3.8,3.3
		c-1.2,0.8-2.8,1.3-3.6,2.6c-0.5,0.9-0.6,1.9-0.7,2.9c-0.1,3.1,0.4,5.9-1.3,8.7c-1,1.7-2.7,3-4.4,4c-1.6,1-3.6,1.6-4.4,3.5
		c-0.8,2-0.4,4.6-0.8,6.7c-0.4,2.2-1.4,4.3-2.8,6.1c-1.8,2.1-4.6,2.7-6.6,4.5c-2,1.8-2.2,4.9-2.1,7.4c0.1,3.1,0.4,6.3,1.8,9.1
		c0.8,1.7,2.1,2.6,3.9,3c2.4,0.6,4,2.7,3.5,5.3c-0.3,1.5-1.5,2.8-3,3.3c-2.3,0.8-5.3-0.3-7.3-1.5c-1.9-1.2-3.4-2.9-4.5-4.8
		c-1.5-2.8-2.3-5.9-2.6-9.1c-0.3-3.2-0.3-6.5,0-9.8c0.3-2.7,1-5.4,2.6-7.6c2.3-3,7.1-4.2,7.9-8.3c0.7-3.7-0.2-7.3,2.1-10.7
		c0.9-1.3,2.2-2.3,3.6-3.1c1.4-0.8,3.1-1.1,4.2-2.3c1.4-1.4,1.3-3.4,1.2-5.3c-0.1-2.1-0.1-3.8,0.6-5.9c0.2-0.6,0.5-1.3,1-1.8
		c1.9-2.1,5-3.1,7.3-4.8c2.8-2,2.1-5.6,2.4-8.5c0.4-3.9,2.7-6.3,6.1-8c1.9-0.9,4.6-1.8,5.6-3.9c0.5-1,0.6-2.1,0.8-3.2
		c0.8-4,4.9-6.4,8.8-5.7C81.6,24.3,82,24.5,82.3,24.7z"/>
	<circle class="st1" cx="39.4" cy="123.9" r="1.2"/>
</g>
<g id="Rodas_dentadas">
	<g>
		<path class="st8" d="M16.9,108.6l0.4-0.5c0.1-0.1,0.2-0.2,0.3-0.2c0,0,0.1,0,0.1,0c0.1,0,0.1,0.1,0.1,0.2l-0.1,0.5
			c0,0.2,0.1,0.3,0.3,0.3l1.6-0.5c0.2-0.1,0.4-0.3,0.4-0.5l0.1-0.5c0-0.1,0.1-0.3,0.2-0.3c0,0,0.1-0.1,0.1-0.1
			c0.1-0.1,0.2-0.1,0.3,0l0.2,0.3c0.1,0.1,0.3,0,0.5-0.1l1.4-1.6c0.2-0.2,0.2-0.4,0.1-0.6l-0.2-0.3c-0.1-0.1-0.1-0.2,0-0.3
			c0-0.1,0.1-0.1,0.1-0.2c0.1-0.1,0.2-0.2,0.3-0.3l0.4-0.1c0.2-0.1,0.4-0.3,0.4-0.5l0.4-1.8c0-0.2-0.1-0.3-0.3-0.3l-0.4,0.1
			c-0.1,0-0.2,0-0.2-0.1c0,0,0-0.1,0-0.1c0-0.1,0-0.2,0.1-0.3l0.4-0.5c0.2-0.2,0.2-0.4,0.1-0.6l-0.8-0.9c-0.1-0.1-0.3,0-0.5,0.1
			l-0.4,0.5c-0.1,0.1-0.2,0.2-0.3,0.2c0,0-0.1,0-0.1,0c-0.1,0-0.1-0.1-0.1-0.2l0.1-0.5c0-0.2-0.1-0.3-0.3-0.3L20,99
			c-0.2,0.1-0.4,0.3-0.4,0.5l-0.1,0.5c0,0.1-0.1,0.3-0.2,0.3c0,0-0.1,0.1-0.1,0.1c-0.1,0.1-0.2,0.1-0.3,0l-0.2-0.3
			c-0.1-0.1-0.3,0-0.5,0.1l-1.4,1.6c-0.2,0.2-0.2,0.4-0.1,0.6l0.2,0.3c0.1,0.1,0.1,0.2,0,0.3c0,0.1-0.1,0.1-0.1,0.2
			c-0.1,0.1-0.2,0.2-0.3,0.3l-0.4,0.1c-0.2,0.1-0.4,0.3-0.4,0.5l-0.4,1.8c0,0.2,0.1,0.3,0.3,0.3l0.4-0.1c0.1,0,0.2,0,0.2,0.1
			c0,0,0,0.1,0,0.1c0,0.1,0,0.2-0.1,0.3l-0.4,0.5c-0.2,0.2-0.2,0.4-0.1,0.6l0.8,0.9C16.5,108.8,16.7,108.8,16.9,108.6z M18.9,102.8
			c0.8-0.9,1.8-1.2,2.2-0.7c0.5,0.5,0.2,1.7-0.5,2.6c-0.8,0.9-1.8,1.2-2.2,0.7C17.9,104.9,18.2,103.7,18.9,102.8z"/>
		<path class="st8" d="M25.8,108l0.3-0.3c0.1-0.1,0.2-0.1,0.2-0.1c0,0,0,0,0.1,0c0.1,0,0.1,0.1,0,0.2l-0.1,0.4
			c-0.1,0.2,0,0.3,0.1,0.3l1.1,0c0.1,0,0.3-0.1,0.3-0.3l0.1-0.4c0-0.1,0.1-0.2,0.2-0.2c0,0,0.1,0,0.1-0.1c0.1,0,0.1,0,0.2,0l0.1,0.3
			c0,0.1,0.2,0.1,0.3,0l1.1-1c0.1-0.1,0.2-0.3,0.2-0.4l-0.1-0.3c0-0.1,0-0.2,0.1-0.2c0,0,0.1-0.1,0.1-0.1c0.1-0.1,0.1-0.1,0.2-0.1
			l0.3,0c0.1,0,0.3-0.1,0.3-0.3l0.5-1.4c0.1-0.2,0-0.3-0.1-0.3l-0.3,0c-0.1,0-0.1,0-0.1-0.1c0,0,0-0.1,0-0.1c0-0.1,0.1-0.2,0.1-0.2
			l0.3-0.3c0.1-0.1,0.2-0.3,0.2-0.4l-0.4-0.9c0-0.1-0.2-0.1-0.3,0l-0.3,0.3c-0.1,0.1-0.2,0.1-0.2,0.1c0,0,0,0-0.1,0
			c-0.1,0-0.1-0.1,0-0.2l0.1-0.4c0.1-0.2,0-0.3-0.1-0.3l-1.1,0c-0.1,0-0.3,0.1-0.3,0.3l-0.1,0.4c0,0.1-0.1,0.2-0.2,0.2
			c0,0-0.1,0-0.1,0.1c-0.1,0-0.1,0-0.2,0l-0.1-0.3c0-0.1-0.2-0.1-0.3,0l-1.1,1c-0.1,0.1-0.2,0.3-0.2,0.4l0.1,0.3
			c0,0.1,0,0.2-0.1,0.2c0,0-0.1,0.1-0.1,0.1c-0.1,0.1-0.1,0.1-0.2,0.1l-0.3,0c-0.1,0-0.3,0.1-0.3,0.3l-0.5,1.4
			c-0.1,0.2,0,0.3,0.1,0.3l0.3,0c0.1,0,0.1,0,0.1,0.1c0,0,0,0.1,0,0.1c0,0.1-0.1,0.2-0.1,0.2l-0.3,0.3c-0.1,0.1-0.2,0.3-0.2,0.4
			l0.4,0.9C25.6,108.1,25.7,108.1,25.8,108z M28,103.8c0.6-0.6,1.3-0.6,1.5-0.1c0.2,0.5-0.1,1.4-0.8,1.9c-0.6,0.6-1.3,0.6-1.5,0.1
			C27.1,105.3,27.4,104.4,28,103.8z"/>
	</g>
</g>
<g id="Gráfico_barras">
	<g>
		<g>
			<polygon class="st9" points="30.4,71.2 27.6,72.9 27.6,68.8 30.4,67.2 			"/>
			<polygon class="st9" points="34.6,68.8 31.8,70.4 31.8,63.1 34.6,61.5 			"/>
			<polygon class="st9" points="38.9,66.3 36.1,67.9 36.1,54.6 38.9,53 			"/>
		</g>
		<g>
			<path class="st10" d="M27,63.9c0.8-1.4,1.5-2.9,2.3-4.3c0.3-0.5,0.7-1.2,1.1-1.3c0.3-0.1,0.6,0.1,0.9-0.2
				c0.1-0.1,0.2-0.2,0.3-0.4c0.6-1.1,1.2-2.2,1.8-3.3c0.3-0.5,0.8-1.2,1.1-1.1c0.2,0,0.3,0.2,0.5,0.1c0.1-0.1,0.2-0.2,0.2-0.3
				c0.5-0.9,1.4-2.6,2.1-3.9"/>
			<g>
				<polygon class="st11" points="37.6,49.5 37.9,47.8 36.5,49.1 				"/>
			</g>
		</g>
	</g>
</g>
<g id="Quadrícula">
	<g>
		<line class="st10" x1="22.4" y1="81.7" x2="22.5" y2="93.4"/>
		<line class="st10" x1="25.2" y1="80" x2="25.3" y2="91.7"/>
		<line class="st10" x1="28.1" y1="78.4" x2="28.2" y2="90"/>
		<line class="st10" x1="30.3" y1="79.9" x2="20.2" y2="85.8"/>
		<line class="st10" x1="30.3" y1="82.9" x2="20.2" y2="88.9"/>
		<line class="st10" x1="30.4" y1="85.9" x2="20.2" y2="91.9"/>
	</g>
</g>
<g id="Gráfico_3_círculos">
	<g>
		<polyline class="st12" points="87.6,121.7 96.5,112.8 104.7,109.8 		"/>

			<ellipse transform="matrix(0.5054 -0.8629 0.8629 0.5054 -61.6627 135.7912)" class="st13" cx="87.6" cy="121.7" rx="2.9" ry="1.7"/>

			<ellipse transform="matrix(0.5054 -0.8629 0.8629 0.5054 -49.6059 139.0239)" class="st13" cx="96.5" cy="112.8" rx="2.4" ry="1.4"/>

			<ellipse transform="matrix(0.4192 -0.9079 0.9079 0.4192 -38.8349 158.8313)" class="st13" cx="104.7" cy="109.8" rx="1.9" ry="1.1"/>
	</g>
</g>
<g id="Cubo_3">
	<g id="cubo_atras_2_3_">
		<polygon class="st1" points="60.5,111.7 57.8,113.6 58.1,117 60.8,115 		"/>
		<polygon class="st2" points="63.5,113.1 60.5,111.7 60.8,115 63.8,116.4 		"/>
		<polygon class="st0" points="61.1,118.3 63.8,116.4 60.8,115 58.1,117 		"/>
	</g>
</g>
<g id="Cubo_2">
	<g id="cubo_atras_2_2_">
		<polygon class="st1" points="35,42.3 35.8,39 33.4,36.6 32.6,39.9 		"/>
		<polygon class="st2" points="31.7,43.2 35,42.3 32.6,39.9 29.3,40.9 		"/>
		<polygon class="st0" points="30.1,37.6 29.3,40.9 32.6,39.9 33.4,36.6 		"/>
	</g>
</g>
<g id="Cubo_1">
	<g id="cubo_atras_2_1_">
		<polygon class="st1" points="109.3,102.4 115,104.2 119.4,100.1 113.7,98.4 		"/>
		<polygon class="st2" points="108,96.6 109.3,102.4 113.7,98.4 112.4,92.5 		"/>
		<polygon class="st0" points="118.1,94.3 112.4,92.5 113.7,98.4 119.4,100.1 		"/>
	</g>
</g>
<g id="Código">
	<g>
		<line class="st14" x1="111" y1="70.6" x2="121.3" y2="64.7"/>
		<line class="st14" x1="121.4" y1="71.8" x2="127" y2="68.6"/>
		<line class="st15" x1="114.2" y1="70.5" x2="122.6" y2="65.7"/>
		<line class="st15" x1="123.7" y1="65.1" x2="128.4" y2="62.4"/>
		<line class="st15" x1="122.1" y1="64.2" x2="125.5" y2="62.2"/>
		<line class="st15" x1="114.2" y1="72.3" x2="120" y2="69"/>
		<line class="st14" x1="121.1" y1="68.4" x2="123.7" y2="66.9"/>
		<line class="st15" x1="112.1" y1="68.7" x2="113.4" y2="67.9"/>
		<line class="st15" x1="124.8" y1="66.2" x2="127.4" y2="64.7"/>
		<line class="st15" x1="116.3" y1="72.9" x2="127.9" y2="66.2"/>
	</g>
</g>
<g id="Nuvem_direita">
	<g>
		<path class="st13" d="M129.5,58.9c-0.4,0-0.8,0.1-1.1,0.2c-0.1-1.8-1.6-3.3-3.5-3.3c-0.6,0-1.1,0.1-1.6,0.4
			c-0.8-1.2-2.1-1.9-3.6-1.9c-2.4,0-4.3,1.9-4.3,4.3c0,0.1,0,0.3,0,0.4c0,0,0,0,0,0c-2.4,0-4.3,1.9-4.3,4.3s1.9,4.3,4.3,4.3h14.1
			c2.4,0,4.3-1.9,4.3-4.3S131.9,58.9,129.5,58.9z"/>
	</g>
</g>
<g id="Folha_menor">
	<g>
		<path class="st16" d="M76.4,96.5l4.4,0.4c0.2,0,0.4,0.2,0.5,0.4l2.3,5.1c0.2,0.4-0.1,0.9-0.6,0.9l-4.4-0.4c-0.2,0-0.4-0.2-0.5-0.4
			l-2.3-5.1C75.6,96.9,75.9,96.4,76.4,96.5z"/>
		<line class="st17" x1="82.5" y1="101.7" x2="78.4" y2="101.3"/>
		<line class="st17" x1="82" y1="100.7" x2="78" y2="100.3"/>
		<line class="st17" x1="81.6" y1="99.7" x2="77.5" y2="99.3"/>
		<line class="st17" x1="81.1" y1="98.6" x2="77" y2="98.2"/>
	</g>
</g>
<g id="Folha_maior">
	<g>
		<path class="st13" d="M110.3,76.5l-2.4,4.8c-0.1,0.2-0.3,0.4-0.6,0.4l-6.7,0.4c-0.6,0-1-0.6-0.7-1.1l2.4-4.8
			c0.1-0.2,0.3-0.4,0.6-0.4l6.7-0.4C110.2,75.4,110.6,76,110.3,76.5z"/>
		<line class="st14" x1="101.9" y1="81.1" x2="104.1" y2="76.7"/>
		<line class="st14" x1="103.2" y1="81" x2="105.4" y2="76.6"/>
		<line class="st14" x1="104.5" y1="80.9" x2="106.7" y2="76.5"/>
		<line class="st14" x1="106" y1="80.9" x2="108.2" y2="76.4"/>
	</g>
</g>
<g id="_x32__Linhas_curvas">
	<path class="st14" d="M101.3,87.4c0.5-1.3,1.6-2.3,2.8-2.8c0.8-0.3,1.6-0.4,2.4-0.6c0.8-0.2,1.6-0.5,2.3-1c0.6-0.6,0.9-1.5,0.6-2.3
		"/>
	<path class="st14" d="M103.8,87.6c0.4-0.9,1.3-1.5,2.2-1.8c0.9-0.3,1.9-0.4,2.8-0.8c0.9-0.4,1.7-1.1,1.8-2.1"/>
</g>
<g id="Camada_5">
	<path d="M63.1,87c0.6-0.3,2.9-1.5,2.6-2.4c-0.1-0.3-0.4-0.4-0.7-0.4s-0.5,0.1-0.8,0.2c-0.7,0.3-1.2,0.8-1.8,1.3
		c-0.8,0.6-1.7,1.1-2.6,1.5c-0.3,0.1-0.6,0.2-0.8,0.5c-0.3,0.3-0.3,0.9,0.1,1c0.4,0.1,0.7,0,1-0.1C61.3,88,62.1,87.6,63.1,87z"/>
	<path d="M48.2,107.4c0.1,0,0.2,0,0.3-0.1c1-0.2,2-0.5,3.1-0.7c1.3-0.3,2.7-0.6,3.9-1.3c0.2-0.1,0.4-0.2,0.5-0.4s0.2-0.4,0.1-0.6
		c-0.2-0.6-1.4-0.2-1.8-0.1c-0.8,0.2-1.5,0.3-2.3,0.5c-1.3,0.3-2.6,0.6-3.9,0.9V107.4z"/>
	<g>
		<g>
			<path class="st18" d="M50.6,102.6c-1-0.3-2-0.6-3-0.1c-0.6,0.3-1,1.8-1.2,2.4c-0.3,0.8-0.3,2.1,0.8,2.3c0.2,0,0.4,0,0.6,0
				c0.8-0.1,1.6-0.4,2.3-0.7c1.3-0.5,2.6-0.9,3.9-1.4c0.4-0.1,0.7-0.3,1.1-0.5c0.5-0.3,0.7-0.7,0.8-1.3c0-0.5-0.2-0.9-0.7-1
				c-0.7-0.1-1.5,0.2-2.2,0.3C52.2,102.7,51.4,102.8,50.6,102.6z"/>
		</g>
		<path class="st4" d="M51,103.8c-0.2-0.5-0.5-1-0.8-1.3"/>
		<path class="st4" d="M51.3,102.7c0,0,0,0.1,0.1,0.1c0.2,0.3,0.3,0.5,0.4,0.8"/>
		<path class="st4" d="M52.5,103.3c-0.1-0.2-0.2-0.4-0.4-0.6"/>
	</g>
	<path class="st1" d="M50.6,60.2c-0.3,0.1-0.8,0.1-1.1,0.1c-0.8-0.1-1.5-0.6-1.8-1.4c-0.3-0.6-0.3-1.2-0.3-1.9
		c-0.1-0.5-0.1-1.1,0.2-1.6c0.4-0.7,1.2-1,1.9-1.1c0.5-0.1,0.9,0,1.4,0.2c0.4,0.2,0.7,0.7,0.9,1.1c0.2,0.4,0.5,0.8,0.7,1.3
		c0.1,0.2,0.1,0.3,0.1,0.5c-0.1,0.1-0.2,0.2-0.3,0.4c-0.1,0.1,0,0.3,0,0.4c0,0.1,0,0.3,0,0.4c0,0.3-0.1,0.6-0.3,0.8
		c-0.2,0.2-0.4,0.3-0.6,0.5c-0.1,0.1-0.2,0.3-0.4,0.3C50.8,60.2,50.7,60.2,50.6,60.2z"/>
	<path class="st19" d="M58.2,87.3C58.2,87.3,58.2,87.3,58.2,87.3c0,0.2,0.1,0.4,0.2,0.6c1.3,2,3.4-1.6,4.1-2.5
		c0.7-0.9,3.3-3.2,2.1-4.5c-0.4-0.4-1.1-0.2-1.6,0.1c-0.9,0.7-1.6,1.8-2.6,2.2c-0.6,0.2-1.1,0.1-1.7,0.1c-0.3,0-0.6,0.2-0.8,0.4
		c-0.1,0.2-0.1,0.4-0.1,0.6c-0.1,0.8,0.1,1.7,0.3,2.5C58.2,87,58.2,87.1,58.2,87.3z"/>
	<path class="st1" d="M60.2,79.9c-0.1-1-0.2-1.9-0.3-2.9c-0.1-1-0.1-1.9-0.5-2.9c-0.1-0.3-0.2-0.6-0.4-0.9c-0.3-0.3-0.8-0.5-1.3-0.6
		c-4.7-0.6-9-0.2-13.1,1.5c-0.3,0.1-0.7,0.3-1,0.5c-0.8,0.1-1.5,0.3-1.6,1.1c-0.2,2.1,0.4,3.4,2.2,4.5c0.4,0.2,0.7,0.5,1,0.8
		c0.2,0.3,0.3,0.6,0.5,0.9c0.9,2.2,1.9,4.3,2.8,6.5c0.1,0.2,0.1,0.4,0.2,0.6c0,0.3-0.1,0.6-0.1,0.9c-1,3.5-0.9,7.5-1.1,11.1
		c0,0.6-0.2,1.2-0.2,1.8c0,0.1,0,0.1,0,0.2c0,0,0.1,0.1,0.1,0.1c0.6,0.2,1.3,0.3,1.9,0.1c0.3-0.1,0.6-0.2,0.7-0.4
		c0.1-0.1,0.1-0.2,0.1-0.3c0.1-0.8,0.2-1.5,0.5-2.3c0.3-0.9,0.6-1.8,0.9-2.7c0.4-1.2,0.8-2.4,1.1-3.6c0.7-2.5,1.4-5.1,0.8-7.7
		c-0.4-2.2-1.2-5.1-1.8-7.3c0,0.1,1.2-0.3,1.7-0.5c0.9-0.4,1.6-0.7,2.5-1.1c-0.1,0,0.4,1.7,0.4,1.9c0.2,0.6,0.4,1.1,0.6,1.7
		c0.3,0.7,0.5,1.4,0.7,2.2c0.1,0.6,0.2,1.1,0.4,1.7c0.1,0.2,0.1,0.4,0.3,0.5c0.1,0.1,0.2,0.1,0.4,0.2c0.7,0.2,1.6-0.1,1.9-0.8
		c0.1-0.3,0.1-0.7,0.1-1c0-0.3-0.1-0.7-0.1-1C60.4,81.7,60.3,80.8,60.2,79.9z"/>
	<g>
		<path class="st1" d="M36.5,79.5c0,0-0.1,0.1-0.1,0.1c-0.3,0.2-0.7,0-1-0.2c-0.2-0.1-0.3-0.3-0.5-0.4c-0.2,0.4-0.3,0.8-0.4,1.2
			c0,0.4-0.1,0.8-0.2,1.1c0,0.1-0.1,0.2-0.1,0.3c-0.1,0.1-0.2,0.1-0.3,0.1c-0.3-0.1-0.4-0.6-0.4-0.9c0-0.1,0.1-1.1,0.1-1.3
			c0,0.4-0.1,1.7-0.2,2.1c0,0.1,0,0.1-0.1,0.2c-0.1,0.1-0.2,0.2-0.4,0.1c-0.4-0.2-0.4-0.8-0.4-1.1c0-0.2,0-0.9,0-1.2
			c0,0.3-0.1,0.7-0.1,1.1c0,0.2,0,0.7-0.1,0.9c-0.1,0.1-0.3,0.2-0.4,0.1c-0.3-0.2-0.3-0.8-0.3-1.1c-0.1-1.3,0.2-2.7,0.8-3.8
			c0.2-0.4,0.6-0.8,0.8-0.9c0.4-0.2,1.1,0,1.5,0.2c0.4,0.3,0.5,0.8,0.7,1.3c0.2,0.5,0.2,1,0.8,1.4c0.1,0.1,0.2,0.3,0.3,0.4
			S36.6,79.3,36.5,79.5z"/>
		<path class="st1" d="M33.8,77.5c0,0.5,0.1,0.8,0.4,1.1c0.1,0.1,0.2,0.1,0.3,0.2c0.2,0.1,0.3,0.2,0.5,0.3"/>
	</g>
	<path class="st1" d="M62.6,56.3c0-0.1,0.1-0.3,0.1-0.4c0.1-0.5,0.4-0.9,0.5-1.4c0-0.1,0.1-0.2,0.1-0.2c0.1-0.1,0.3-0.1,0.4,0
		c0.2,0.2,0.1,0.7,0.1,0.9c0,0.1-0.1,0.2-0.1,0.3c0,0.1,0,0.2,0.1,0.3c0.1,0.1,0.2,0.1,0.3,0c0.3-0.1,0.5-0.6,0.6-0.9
		c0.2-0.3,0.3-0.7,0.3-1c0-0.1,0-0.2,0.1-0.3c0-0.1,0.1-0.2,0.2-0.3c0.1-0.1,0.2-0.1,0.3,0c0.3,0.2,0.2,0.8,0.2,1
		c0,0.4-0.1,0.8-0.3,1.2c0.2-0.4,0.4-0.8,0.5-1.2c0.1-0.3,0-0.7,0.3-0.9c0.1-0.1,0.2-0.1,0.4-0.1c0.4,0.2,0.2,0.9,0.1,1.2
		c-0.1,0.2-0.2,0.5-0.2,0.7c-0.1,0.2-0.1,0.4-0.2,0.6c0.1-0.1,0.1-0.2,0.2-0.4c0.1-0.1,0.1-0.3,0.2-0.4c0-0.1,0.1-0.2,0.1-0.3
		c0-0.2,0.1-0.5,0.3-0.6c0.1,0,0.3,0.1,0.3,0.2c0.2,0.4,0,0.9-0.1,1.3c0,0.1-0.1,0.2-0.1,0.3c-0.2,0.5-0.4,1-0.7,1.4
		c-0.3,0.4-0.5,0.8-0.8,1c-0.2,0.2-0.5,0.4-0.7,0.6c-0.1,0.1-0.1,0.2-0.2,0.2c-0.1,0.1-0.2,0.2-0.4,0.2c-0.1,0-0.3-0.1-0.4-0.1
		c-0.4-0.1-0.7-0.4-1-0.6c-0.2-0.1-0.4-0.3-0.4-0.5c0-0.1,0-0.3,0.1-0.4c0.1-0.3,0.1-0.7,0-1.1C62.6,56.6,62.6,56.5,62.6,56.3z"/>
	<path class="st20" d="M40.9,63.2c-3.5,2.9-6.4,6.7-7.7,11.1c-0.2,0.5-0.5,1.3-0.2,1.8c0.3,0.7,1.4,0.8,2,0.5
		c0.8-0.4,1.3-1.9,1.7-2.7c1.2-2.4,2.3-4.9,4.5-6.6c0.2-0.1,2.1-1.4,2.1-1.3c0.1,1.1-0.2,2.3-0.5,3.4c-0.3,1.1-0.6,2.4-1.1,3.4
		c-0.2,0.5-1.2,1.4-0.9,2c0.3,0.8,2.4,0.9,3.2,1c1.9,0.4,3.8,0.2,5.5-0.7c1.9-0.9,2.2-2.1,2-4.1c0-0.6-0.1-1.3,0-1.9
		c0.1-0.5,0.3-0.9,0.6-1.2c0.2-0.1,0.3-0.2,0.5-0.4c0.4-0.4,0.4-1,0.5-1.5c0.2-0.6,0.5-0.5,1.1-0.3c1.4,0.5,2.6,1,4.1,1.1
		c1,0.1,2.2,0,3-0.6c1-0.6,1.6-1.7,2.1-2.8c0.6-1.3,1.2-2.6,1.7-4c0.2-0.6-0.1-0.9-0.7-1.3c-0.3-0.2-0.6-0.3-1-0.4
		c-0.9-0.1-1.2,0.8-1.6,1.4c-0.4,0.7-0.8,1.4-1.3,2c-0.3,0.5-0.7,0.9-1,1.3c-0.3,0.4-0.8,0.3-1.3,0.2c-1.9-0.5-3.3-2-5.1-2.7
		c-1.7-0.7-3.5-0.7-5.3-0.4c-0.8,0.1-1.7,0.3-2.5,0.6C43.6,61,42.2,62.2,40.9,63.2z"/>
	<path class="st2" d="M51.1,59.7c0-0.5-0.2-1.1-0.3-1.6c-0.1-0.4-0.2-0.9,0-1.3c0.2-0.4,0.6-0.6,0.7-1c0.2-0.6,0.2-1.3-0.2-1.8
		c-0.5-0.5-1.7-0.5-2.4-0.3c-0.8,0.1-1.5,0.6-1.8,1.3c-0.2,0.4-0.3,1-0.5,1.4c-0.6,0.9-1.7,0.7-2.5,0.5c-0.9-0.2-1.9-0.6-2.8-0.6
		c-0.7,0-1.3,0.3-1.9,0.3c-0.7,0-1.3-0.1-1.9-0.4c0.2,0.4,0.4,0.8,0.9,1c0.4,0.2,0.8,0.3,1.3,0.4c0.1,0,0.2,0,0.2,0.1
		c0.1,0,0.1,0.1,0.1,0.2c0,0,0,0.1-0.1,0.1c-0.4,0.3-0.8,0.2-1.2,0.3c0.3,0.7,1.3,0.8,2,0.8c0.6,0,1.3-0.1,1.9,0.2
		c0.1,0,0.1,0.1,0.1,0.1c0,0.1,0,0.2-0.1,0.2c-0.1,0.1-0.2,0.1-0.2,0.1c-0.1,0.1-0.1,0.3-0.1,0.5c0.1,0.2,0.2,0.3,0.3,0.3
		c0.2,0.1,0.5,0.2,0.8,0.3c0.6,0.2,1.2,0,1.7-0.1c0.1,0,0.2-0.1,0.3,0c0.1,0,0.2,0.1,0.2,0.2c0,0.1,0,0.2-0.1,0.2
		c-0.1,0.2-0.9,0.5-0.9,0.6c0,0,0,0.1,0,0.1c0.7,1.3,2.7,1.3,3.8,0.9c1.1-0.3,2.2-1.1,2.6-2.2C51.1,60.3,51.1,60,51.1,59.7z"/>
	<path class="st4" d="M60.8,83.1c0.2,0.1,0.7,0.5,0.9,0.7"/>
	<path class="st4" d="M62.2,83.1c-0.2-0.2-0.4-0.4-0.7-0.5"/>
	<path class="st4" d="M62.7,82.4c-0.2-0.1-0.4-0.3-0.6-0.4"/>
	<path class="st4" d="M34.3,68c-0.9,1.2-1.5,2.5-2,3.8"/>
	<path class="st4" d="M32.7,68.5c-0.4,0.5-0.8,1.1-1,1.7"/>
</g>
<g id="Cubo_feliz">
	<g id="cubo_atras_2">
		<polygon class="st1" points="96.3,20.2 96.3,30.3 105.1,35.4 105.1,25.3 		"/>
		<polygon class="st2" points="105.1,15.1 96.3,20.2 105.1,25.3 113.9,20.2 		"/>
		<polygon class="st0" points="113.9,30.3 113.9,20.2 105.1,25.3 105.1,35.4 		"/>
	</g>
	<g>
		<g>
			<path class="st21" d="M98.5,27.7c0.3,1,1,2.2,2.1,2.9"/>
			<path class="st21" d="M102.8,30.1c-0.2,0.8-0.9,1.1-2.1,0.4"/>
		</g>
		<g>
			<ellipse transform="matrix(0.8629 -0.5054 0.5054 0.8629 0.7724 53.6402)" class="st22" cx="99.2" cy="25.4" rx="0.4" ry="0.8"/>
			<ellipse transform="matrix(0.8629 -0.5054 0.5054 0.8629 0.3388 55.2787)" class="st22" cx="102" cy="27" rx="0.4" ry="0.8"/>
		</g>
	</g>
	<g>
		<line class="st23" x1="105.1" y1="9.6" x2="105.1" y2="13"/>
		<line class="st23" x1="94" y1="14.2" x2="96.5" y2="16.6"/>
		<line class="st23" x1="89.4" y1="25.3" x2="92.9" y2="25.3"/>
		<line class="st23" x1="94" y1="36.3" x2="96.5" y2="33.9"/>
		<line class="st23" x1="105.1" y1="40.9" x2="105.1" y2="37.5"/>
		<line class="st23" x1="116.2" y1="36.3" x2="113.7" y2="33.9"/>
		<line class="st23" x1="120.8" y1="25.3" x2="117.3" y2="25.3"/>
		<line class="st23" x1="116.2" y1="14.2" x2="113.7" y2="16.6"/>
	</g>
	<circle class="st11" cx="105.1" cy="14.1" r="0.3"/>
	<circle class="st11" cx="97.2" cy="17.4" r="0.3"/>
	<circle class="st11" cx="93.9" cy="25.3" r="0.3"/>
	<circle class="st11" cx="97.2" cy="33.2" r="0.3"/>
	<circle class="st11" cx="105.1" cy="36.4" r="0.3"/>
	<circle class="st11" cx="113" cy="33.2" r="0.3"/>
	<circle class="st11" cx="116.3" cy="25.3" r="0.3"/>
	<circle class="st11" cx="113" cy="17.4" r="0.3"/>
</g>
</svg>
