<?xml version="1.0" encoding="utf-8"?>
<!-- Generator: Adobe Illustrator 25.4.0, SVG Export Plug-In . SVG Version: 6.00 Build 0)  -->
<svg version="1.1" xmlns="http://www.w3.org/2000/svg" xmlns:xlink="http://www.w3.org/1999/xlink" x="0px" y="0px"
	 viewBox="0 0 1330.6 1080" style="enable-background:new 0 0 1330.6 1080;" xml:space="preserve">
<style type="text/css">
	.st0{opacity:0.2;}
	.st1{fill:#00AEEF;}
	.st2{fill:#FCB040;}
	.st3{fill:#FFFFFF;}
	.st4{fill:#00AEEF;stroke:#000000;stroke-width:1.2;stroke-linecap:round;stroke-linejoin:round;stroke-miterlimit:10;}
	.st5{fill:#FFFFFF;stroke:#000000;stroke-width:1.2;stroke-linecap:round;stroke-linejoin:round;stroke-miterlimit:10;}
	.st6{fill:#FCB040;stroke:#000000;stroke-width:1.2;stroke-linecap:round;stroke-linejoin:round;stroke-miterlimit:10;}
	.st7{fill:#00AEEF;stroke:#000000;stroke-width:1.0236;stroke-miterlimit:10;}
	.st8{fill:#00AEEF;stroke:#000000;stroke-width:1.2;stroke-miterlimit:10;}
	.st9{fill:none;stroke:#000000;stroke-width:1.2;stroke-linecap:round;stroke-linejoin:round;stroke-miterlimit:10;}
	.st10{fill:none;stroke:#00AEEF;stroke-width:1.2;stroke-linecap:round;stroke-linejoin:round;stroke-miterlimit:10;}
	.st11{fill:#FCB040;stroke:#000000;stroke-width:1.1857;stroke-linecap:round;stroke-linejoin:round;stroke-miterlimit:10;}
	.st12{fill:#FCB040;stroke:#000000;stroke-width:1.2833;stroke-linecap:round;stroke-linejoin:round;stroke-miterlimit:10;}
	.st13{fill:none;stroke:#000000;stroke-width:1.1857;stroke-linecap:round;stroke-linejoin:round;stroke-miterlimit:10;}
	.st14{fill:#FFFFFF;stroke:#000000;stroke-width:1.1857;stroke-linecap:round;stroke-linejoin:round;stroke-miterlimit:10;}
	.st15{fill:none;stroke:#FCB040;stroke-width:1.2;stroke-linecap:round;stroke-linejoin:round;stroke-miterlimit:10;}
	.st16{fill:#FCB040;stroke:#FCB040;stroke-width:1.2;stroke-linecap:round;stroke-linejoin:round;stroke-miterlimit:10;}
	.st17{fill:#00AEEF;stroke:#00AEEF;stroke-width:1.2;stroke-linecap:round;stroke-linejoin:round;stroke-miterlimit:10;}
	.st18{fill:#FFFFFF;stroke:#FFFFFF;stroke-width:1.2;stroke-linecap:round;stroke-linejoin:round;stroke-miterlimit:10;}
	.st19{stroke:#000000;stroke-width:1.2;stroke-linecap:round;stroke-linejoin:round;stroke-miterlimit:10;}
	.st20{fill:#FCB040;stroke:#000000;stroke-width:1.2;stroke-miterlimit:10;}
	.st21{fill:#00AEEF;stroke:#000000;stroke-width:1.2;stroke-linejoin:round;stroke-miterlimit:10;}
	.st22{fill:#FCB040;stroke:#00AEEF;stroke-width:1.2;stroke-linecap:round;stroke-linejoin:round;stroke-miterlimit:10;}
	.st23{fill:#FFFFFF;stroke:#00AEEF;stroke-width:1.2;stroke-linecap:round;stroke-linejoin:round;stroke-miterlimit:10;}
	.st24{fill:none;stroke:#00AEEF;stroke-width:1.2;stroke-miterlimit:10;}
	.st25{fill:#FFFFFF;stroke:#00AEEF;stroke-width:1.2;stroke-miterlimit:10;}
	.st26{fill:#FFFFFF;stroke:#FCB040;stroke-width:1.2;stroke-miterlimit:10;}
	.st27{fill:none;stroke:#00AEEF;stroke-width:1.2;stroke-linecap:round;stroke-miterlimit:10;stroke-dasharray:4;}
	.st28{fill:none;stroke:#FFFFFF;stroke-width:1.2;stroke-linecap:round;stroke-linejoin:round;stroke-miterlimit:10;}
	.st29{fill:#FFFFFF;stroke:#FCB040;stroke-width:0.9964;stroke-linecap:round;stroke-linejoin:round;stroke-miterlimit:10;}
	.st30{fill:none;stroke:#00AEEF;stroke-width:1.2627;stroke-miterlimit:10;}
	.st31{fill:none;stroke:#00AEEF;stroke-width:1.4161;stroke-miterlimit:10;}
	.st32{fill:none;stroke:#00AEEF;stroke-width:1.1246;stroke-miterlimit:10;}
	.st33{fill:none;stroke:#FFFFFF;stroke-width:1.3;stroke-miterlimit:10;}
	.st34{fill:#FFFFFF;stroke:#000000;stroke-width:1.2;stroke-miterlimit:10;}
	.st35{fill:none;stroke:#000000;stroke-width:1.2;stroke-miterlimit:10;}
	.st36{fill:none;stroke:#FCB040;stroke-width:1.2;stroke-miterlimit:10;}
	.st37{fill:#00AEEF;stroke:#FCB040;stroke-width:1.2;stroke-miterlimit:10;}
	.st38{fill:#00AEEF;stroke:#FFFFFF;stroke-width:0.3;stroke-miterlimit:10;}
	.st39{fill:#FCB040;stroke:#FFFFFF;stroke-width:0.3;stroke-miterlimit:10;}
	.st40{fill:#FCB040;stroke:#FCB040;stroke-width:1.1712;stroke-linecap:round;stroke-linejoin:round;stroke-miterlimit:10;}
	.st41{fill:none;stroke:#FFFFFF;stroke-width:1.1712;stroke-linecap:round;stroke-linejoin:round;stroke-miterlimit:10;}

		.st42{fill:none;stroke:#FCB040;stroke-width:1.2;stroke-linecap:round;stroke-linejoin:round;stroke-miterlimit:10;stroke-dasharray:4;}
</style>
<g id="cores">
</g>
<g id="Mancha_direita_1">
</g>
<g id="Mancha_direita_2">
</g>
<g id="Mancha_direita_3">
</g>
<g id="Mancha_esquerda_1">
</g>
<g id="Mancha_esquerda_2">
</g>
<g id="Cubo_1">
	<g>
		<polygon class="st4" points="344.1,753.2 374.4,750.6 387.3,723 356.9,725.6 		"/>
		<polygon class="st5" points="326.6,728.2 344.1,753.2 356.9,725.6 339.5,700.7 		"/>
		<polygon class="st6" points="369.8,698.1 339.5,700.7 356.9,725.6 387.3,723 		"/>
	</g>
</g>
<g id="Cubo_3">
	<g>
		<polygon class="st4" points="856.6,516.6 854.6,498.3 837.7,491 839.8,509.2 		"/>
		<polygon class="st5" points="841.9,527.5 856.6,516.6 839.8,509.2 825,520.1 		"/>
		<polygon class="st6" points="823,501.9 825,520.1 839.8,509.2 837.7,491 		"/>
	</g>
</g>
<g id="Cubo_4">
	<g>
		<polygon class="st4" points="1178.5,376.3 1167.1,378.5 1163.4,389.6 1174.8,387.3 		"/>
		<polygon class="st5" points="1186.2,385 1178.5,376.3 1174.8,387.3 1182.5,396 		"/>
		<polygon class="st6" points="1171.1,398.3 1182.5,396 1174.8,387.3 1163.4,389.6 		"/>
	</g>
</g>
<g id="Cubo_5">
	<g>
		<polygon class="st4" points="521.4,495.2 508.9,510.1 515.5,528.5 528.1,513.5 		"/>
		<polygon class="st5" points="540.6,498.6 521.4,495.2 528.1,513.5 547.3,517 		"/>
		<polygon class="st6" points="534.7,531.9 547.3,517 528.1,513.5 515.5,528.5 		"/>
	</g>
</g>
<g id="Cobra_azul">
	<g>
		<path class="st7" d="M572.1,399.2c-2.9,1.2-6.3,0.8-8.9-1.2c-4.4-3.3-9.7-5.7-15.4-8.2c-2.8-1.2-5.7-2.5-8.5-4
			c-13-6.5-21.1-15-24.2-25.1c-2.9-9.6-1.1-20.9,5-30.9c4.9-8.2,11.9-14.6,18-20.3c3.7-3.4,9.4-3.2,12.8,0.5
			c3.4,3.7,3.2,9.4-0.5,12.8c-5.5,5.1-11.2,10.3-14.8,16.3c-3.4,5.7-4.6,11.6-3.1,16.2c1.6,5.2,6.7,10,15,14.2
			c2.5,1.2,5,2.4,7.7,3.6c6.4,2.8,13,5.8,19,10.4c4,3,4.7,8.7,1.7,12.7C574.9,397.7,573.6,398.6,572.1,399.2z"/>
	</g>
	<path class="st8" d="M677.5,514.3c-1.2-4.9-0.4-10.1,0.5-14.7c0.9-4.6,1.8-9,1.6-12.6c-0.3-4-1.9-7.8-4.8-10.6
		c-2.5-2.5-5.6-4.6-8.4-6.7c-1.3-1-2.4-1.7-3.1-3.2c-1.2-2.5-1.3-5.5-0.4-8.1c2-5.5,8.1-8.4,13.6-6.4c1.4,0.5,2.6,1.3,3.6,2.2
		l1.3,1.3c9.6,9,12.8,22,9.9,33.1c-1.5,5.4-4.1,9.6-6.2,13.5c-2.1,3.9-4,7.7-4.4,11.9l0,0c-0.1,0.9-0.9,1.6-1.8,1.5
		C678.3,515.5,677.7,515,677.5,514.3z"/>
	<g>
		<path class="st9" d="M565.3,187c0,3.1,3.4,2.3,5,1.3c0.9-0.5,2-1,2.9-0.5c0.9,0.5,1.1,1.7,0.9,2.8c-0.1,1-0.5,2.1-0.2,3.1
			c0.2,0.8,0.8,1.4,1.5,1.9s1.5,0.7,2.3,0.9"/>
		<path class="st8" d="M607.5,229.7c-1.1,4.1-3,7.8-4.9,11.9c-2.8,5.9-5.6,11.8-8.5,17.7c-4.1,8.7-10.8,23.2-7.9,34.9
			c3,11.8,15.5,19.7,15.6,19.8l-5.7,9.3l-5.7,9.4c-2.1-1.3-20.3-12.8-25.4-33.1c-4.9-19.2,4.3-38.9,9.3-49.5
			c1.9-4.1,4.1-8.2,6.2-12.2c3.4-6.5,5.9-13.7,4.5-21.1c-0.5-2.9-1.5-5.9-3.4-8.2c-2-2.4-4.9-3.8-6.7-6.4c-2.6-3.7-2.6-8.8-0.1-12.6
			c3-4.5,8.7-5.7,13.7-4.5c9.3,2.3,15.2,12.5,18,20.9c2,5.9,2.6,12.3,2,18.5C608.3,226.3,607.9,228,607.5,229.7z"/>
		<circle class="st5" cx="586.1" cy="195.6" r="3.2"/>
	</g>
	<g>
		<path class="st10" d="M509.9,341.3c-1,2.2-1.4,4.7-1.1,7.2"/>
		<path class="st10" d="M506.5,343.2c-0.4,1-0.5,2-0.5,3"/>
	</g>
</g>
<g id="Cobra_laranja">
	<g>
		<path class="st11" d="M587.1,487.6c-14.9,0-29.8-7.4-38.5-19.5c-10-14-11.5-33.7-3.5-49c2.7-5.1,9-7.1,14.2-4.5
			c5.1,2.7,7.1,9,4.5,14.2c-4.3,8.3-3.5,19.4,1.9,27c5.5,7.6,15.7,11.9,25,10.5c2.7-0.4,5.5-1.3,8.4-2.6c5.7-2.6,10.8-6.4,14.8-11.1
			c3.8-4.4,10.4-4.9,14.8-1.1c4.4,3.8,4.9,10.4,1.1,14.8c-6,7-13.7,12.7-22.1,16.5c-4.6,2.1-9.3,3.5-13.8,4.2
			C591.7,487.4,589.4,487.6,587.1,487.6z"/>
	</g>
	<path class="st12" d="M782.1,382.7c-1-1.2-1.6-2.9-2.3-4.2c-1.1-1.9-2.5-3.6-4.2-5.1c-4.8-4.3-11.3-3.6-16.3-2.2
		c-0.7,0.2-8.8,2.4-8.9,2.6c0.1-0.1,0.1-1.1,0.1-1.4c0.2-1,0.4-2,0.6-3c0.6-2.8,1.2-5.5,1.9-8.3c0.6-2.5,1.2-5,1.8-7.5
		c0.1-0.6,0.2-1.5,0.5-2c0.5-0.9,2.6-0.4,3.6-0.4c9.7,0.6,19.9,7.2,25.1,16.5c0.9,1.5,1.6,3.2,2.1,4.8c0.8,2.8,2.2,9-0.1,10.7
		c-0.7,0.5-1.8,0.7-2.8,0.2C782.8,383.4,782.4,383.1,782.1,382.7z"/>
	<g>
		<g>
			<path class="st13" d="M732.8,223.9c0.2,2.5,2.7,2.1,4.4,1.3c1-0.5,1.2-1.1,2.3-0.7c1.1,0.4,1.8,1.9,1.9,3
				c0.2,1.3-0.1,2.8,0.8,3.7c0.7,0.8,2,0.8,2.9,0.3c0.9-0.5,1.6-1.4,2.1-2.3"/>
			<path class="st11" d="M706.8,203.1c9.9-2.3,21-0.4,29.4,5.3c4.2,2.9,7.5,7.9,5.8,13.1c-0.9,2.7-3,4.9-5.6,6.1s-5.6,1.3-8.4,0.7
				c-5.3-1.3-9.9-5.6-15.5-5.3c-5,0.3-9.7,4.2-12.4,8.2c-1.1,1.7-2,3.5-2.6,5.5c-2.5,8.3-1.9,24.1,1.3,38.4l-20.5,4.6
				c-2-8.7-3.1-17.6-3.3-26.4c-0.3-10.8,0.6-22,6.3-31.4C687.2,212.3,696.5,205.6,706.8,203.1z"/>
			<circle class="st14" cx="731" cy="216.8" r="3.1"/>
		</g>
	</g>
	<path class="st15" d="M778.7,354.1c1.7,1.2,3.2,2.7,4.2,4.5"/>
	<path class="st15" d="M781.9,353.3c0.7,0.6,1.4,1.3,1.9,2.1"/>
</g>
<g id="Tubo_azul_esquerda">
	<g>
		<path class="st1" d="M419.3,562.7c-0.8,0-1.6-0.2-2.4-0.5c-7.3-3.2-13.7-6.9-20.3-10.8L274,480.2c-4.6-2.7-7.3-7.4-7.3-12.7
			c0-5.3,2.7-10,7.3-12.7l66.3-38.3c8.2-4.8,18.5-4.8,26.7,0l15.7,9.1c3.7,2.1,8.3,2.1,12,0l57.8-33.4c8-4.6,18-4.7,26-0.1
			l38.5,20.6c6.6,3.8,14.8,3.7,21.4-0.1l75.2-43.4c2.9-1.7,6.5-0.7,8.2,2.2c1.7,2.9,0.7,6.5-2.2,8.2l-75.2,43.4
			c-10.3,5.9-23.1,6-33.4,0.1l-38.5-20.6c-4.3-2.5-9.7-2.5-14.1,0l-57.8,33.4c-7.4,4.3-16.6,4.3-24,0L361,427
			c-4.5-2.6-10.2-2.6-14.7,0L280,465.3c-1.2,0.7-1.3,1.7-1.3,2.3c0,0.6,0.2,1.6,1.3,2.3l122.6,71.2c6.4,3.7,12.4,7.2,19.1,10.1
			c3,1.3,4.4,4.9,3.1,7.9C423.8,561.4,421.6,562.7,419.3,562.7z"/>
	</g>
</g>
<g id="Tubo_preto_esquerda">
</g>
<g id="Tubo_laranja_esquerda">
	<g>
		<path class="st2" d="M352.5,812.5c-3.8,0-7.5-1-10.9-2.9l-119-69c-4.6-2.6-7.3-7.4-7.3-12.6c0-5.3,2.7-10,7.3-12.6l286-165.4
			L294.5,426.8c-5.3-3.1-8.5-8.6-8.6-14.8c0-6.2,3.2-11.7,8.5-14.8l178.2-103.5c9.3-5.4,20.9-5.4,30.3,0l102.6,59.2
			c2.9,1.7,3.9,5.3,2.2,8.2s-5.3,3.9-8.2,2.2L497,304.1c-5.6-3.2-12.6-3.2-18.2,0L300.5,407.6c-2.3,1.3-2.5,3.5-2.5,4.4
			c0,0.9,0.3,3.1,2.5,4.4l223.1,128.4c1.9,1.1,3,3,3,5.2s-1.1,4.1-3,5.2l-295,170.6c-1.1,0.6-1.3,1.7-1.3,2.2c0,0.6,0.2,1.6,1.3,2.2
			l119,69c3,1.7,6.7,1.7,9.6,0l93.4-53.5c2.9-1.6,6.5-0.6,8.2,2.2s0.6,6.5-2.2,8.2l-93.4,53.5C359.9,811.6,356.2,812.5,352.5,812.5z
			"/>
	</g>
</g>
<g id="Tubo_preto_direita">
</g>
<g id="Tubo_laranja_direita">
	<g>
		<path class="st2" d="M860.7,646.2c-2.1,0-4.1-1.1-5.2-3c-1.6-2.9-0.7-6.5,2.2-8.2l165.4-94.7c1.1-0.6,1.3-1.7,1.3-2.2
			s-0.2-1.6-1.3-2.2l-119.4-69c-4.3-2.5-6.9-7-6.9-12c0-5,2.6-9.5,7-12l114.9-66c0.5-0.3,0.6-0.8,0.6-1.1c0-0.3-0.1-0.8-0.6-1.1
			l-158.9-91.7c-3.8-2.2-8.5-2.2-12.3,0L663,390c-2.9,1.7-6.5,0.7-8.2-2.2c-1.7-2.9-0.7-6.5,2.2-8.2l184.4-107.1
			c7.5-4.3,16.8-4.3,24.3,0l158.9,91.7c4.2,2.4,6.6,6.7,6.6,11.5c0,4.8-2.5,9.1-6.7,11.5c-0.7,0.4-1.5,0.8-2.2,1.3
			c-2,1.2-4.1,2.3-6.1,3.5c-3.1,1.8-6.1,3.5-9.2,5.3c-3.9,2.2-7.7,4.4-11.6,6.6c-4.4,2.5-8.8,5-13.2,7.6c-4.7,2.7-9.3,5.4-14,8
			c-4.7,2.7-9.4,5.4-14.1,8.1c-4.5,2.6-8.9,5.1-13.4,7.7c-4,2.3-7.9,4.6-11.9,6.8c-3.2,1.9-6.4,3.7-9.7,5.6c-1.8,1-3.7,2-5.5,3
			c-1.4,0.8-4.1,1.9-4.6,3.6c-0.2,0.7,0.1,1.5,0.6,2.1c1,1.1,2.5,1.7,3.8,2.4c2.4,1.4,4.7,2.7,7.1,4.1c3.3,1.9,6.6,3.8,9.8,5.7
			c4,2.3,7.9,4.6,11.9,6.9c4.4,2.6,8.8,5.1,13.3,7.7c4.6,2.7,9.3,5.4,13.9,8c4.6,2.7,9.3,5.4,13.9,8c4.4,2.5,8.8,5.1,13.2,7.6
			c3.9,2.3,7.9,4.5,11.8,6.8c3.2,1.9,6.5,3.7,9.7,5.6c2.3,1.3,4.6,2.7,7,4c1.2,0.7,2.3,1.3,3.5,2c0.1,0.1,0.2,0.1,0.3,0.2
			c4.6,2.6,7.3,7.4,7.3,12.6c0,5.3-2.7,10-7.3,12.6l-165.4,94.7C862.8,646,861.7,646.2,860.7,646.2z"/>
	</g>
</g>
<g id="Tubo_azu_direita">
	<g>
		<path class="st1" d="M782.4,513.5c-0.9,0-1.8-0.2-2.6-0.6c-3-1.5-4.2-5.1-2.7-8c3.5-7.2,9.6-11,15-14.3c0.8-0.5,1.7-1.1,2.5-1.6
			c0.5-0.3,1-0.6,1.4-0.9c1.6-1,3.2-2.1,4.8-3.1c0.8-0.5,1.7-1.1,2.5-1.6c0.7-0.5,1.7-0.9,2.2-1.6c0.1-0.1,0.1-0.2,0.2-0.4
			c0.3-1.2-2.2-2.1-3.1-2.5c-3.1-1.7-6.3-3.5-9.4-5.2c-1.8-1-3.6-2-5.4-3c-3.7-2-5.9-5.8-5.9-9.9c0-4.2,2.1-8,5.7-10.1
			c1.2-0.7,2.5-1.4,3.7-2.2c3.5-2,6.9-4,10.4-6.1c5.3-3.1,10.7-6.2,16-9.4c6.9-4,13.8-8,20.6-12c8.1-4.7,16.1-9.4,24.2-14.1
			c8.9-5.2,17.8-10.4,26.7-15.6c9.4-5.5,18.8-10.9,28.1-16.4c9.5-5.6,19-11.1,28.6-16.7c9.3-5.4,18.6-10.9,27.9-16.3
			c8.7-5.1,17.5-10.2,26.2-15.3c7.8-4.6,15.7-9.1,23.5-13.7c6.6-3.8,13.2-7.7,19.7-11.5c5-2.9,9.9-5.8,14.9-8.7
			c1.8-1,3.6-2.1,5.3-3.1c1.5-0.9,3.5-1.5,4.5-3.1c0.2-0.3,0.3-0.6,0.2-0.9c-0.2-1-1.6-1.6-2.4-2.1c-0.9-0.5-1.9-1-2.8-1.5
			c-2-1.2-4.1-2.4-6.1-3.5c-5-2.9-10.1-5.8-15.1-8.7c-8.8-5.1-17.5-10.1-26.3-15.2c-0.9-0.5-1.8-1.1-2.7-1.6
			c-4.5-2.6-10.2-2.6-14.7,0l-121.5,70.6c-8.1,4.7-18.2,4.7-26.3,0l-75-43.1c-3.8-2.2-8.5-2.2-12.3,0l-102,59.5
			c-2.9,1.7-6.5,0.7-8.2-2.2s-0.7-6.5,2.2-8.2l102-59.5c7.5-4.4,16.9-4.4,24.4-0.1l75,43.1c4.4,2.5,9.9,2.5,14.3,0L992,242.6
			c8.2-4.8,18.5-4.8,26.8,0l56.9,32.9c3.8,2.2,6.1,6.1,6.1,10.5c0,4.4-2.2,8.3-6,10.5c-0.1,0.1-0.3,0.1-0.4,0.2
			c-0.4,0.2-0.7,0.4-1.1,0.6c-0.6,0.4-1.2,0.7-1.8,1.1c-0.8,0.5-1.7,1-2.5,1.4c-1,0.6-2.1,1.2-3.1,1.8c-1.2,0.7-2.5,1.4-3.7,2.2
			c-1.4,0.8-2.9,1.7-4.3,2.5c-1.6,0.9-3.2,1.9-4.8,2.8c-1.8,1-3.6,2.1-5.3,3.1c-1.9,1.1-3.9,2.3-5.8,3.4c-2.1,1.2-4.2,2.4-6.2,3.6
			c-2.2,1.3-4.4,2.6-6.6,3.9c-2.3,1.4-4.7,2.7-7,4.1c-2.5,1.4-4.9,2.9-7.4,4.3c-2.6,1.5-5.1,3-7.7,4.5c-2.6,1.5-5.3,3.1-7.9,4.6
			c-2.7,1.6-5.5,3.2-8.2,4.8c-2.8,1.6-5.6,3.3-8.4,4.9c-2.9,1.7-5.7,3.3-8.6,5c-2.9,1.7-5.8,3.4-8.7,5.1c-2.9,1.7-5.9,3.4-8.8,5.2
			c-3,1.7-5.9,3.5-8.9,5.2c-3,1.7-6,3.5-9,5.2c-3,1.7-6,3.5-9,5.2c-3,1.7-6,3.5-9,5.2c-3,1.7-5.9,3.5-8.9,5.2
			c-2.9,1.7-5.9,3.4-8.8,5.2c-2.9,1.7-5.8,3.4-8.7,5.1c-2.9,1.7-5.7,3.3-8.6,5c-2.8,1.6-5.6,3.3-8.4,4.9c-2.7,1.6-5.5,3.2-8.2,4.8
			c-2.6,1.5-5.3,3.1-7.9,4.6c-2.6,1.5-5.1,3-7.7,4.5c-2.4,1.4-4.9,2.9-7.3,4.3c-2.3,1.4-4.7,2.7-7,4.1c-2.2,1.3-4.4,2.6-6.6,3.9
			c-2.1,1.2-4.1,2.4-6.2,3.6c-1.9,1.1-3.9,2.2-5.8,3.4c-1.8,1-3.5,2.1-5.3,3.1c-1.6,0.9-3.2,1.9-4.8,2.8c-1.4,0.8-2.8,1.7-4.3,2.5
			c-1.2,0.7-2.5,1.4-3.7,2.2c-1,0.6-2.1,1.2-3.1,1.8c-0.8,0.5-1.6,1-2.5,1.4c-0.6,0.3-1.5,0.8-1.7,1.5c0,0.1,0,0.3,0,0.4
			c0,0.1,0,0.3,0,0.4c0.1,0.2,0.2,0.3,0.4,0.5c0.6,0.7,1.6,1,2.4,1.5c0.9,0.5,1.8,1,2.6,1.5c1.8,1,3.7,2.1,5.5,3.1
			c1.2,0.7,2.5,1.4,3.7,2.1c0.5,0.3,1,0.7,1.5,0.8c3.8,2.1,6.2,6,6.4,10.4c0.1,4.4-2,8.4-5.7,10.8l-11.6,7.5
			c-0.9,0.6-1.8,1.1-2.7,1.7c-4.6,2.9-8.6,5.3-10.6,9.4C786.8,512.3,784.7,513.5,782.4,513.5z"/>
	</g>
</g>
<g id="Cubo_2">
	<g>
		<polygon class="st4" points="467.2,367.1 443.2,372.9 436.2,396.5 460.2,390.7 		"/>
		<polygon class="st5" points="484.1,385 467.2,367.1 460.2,390.7 477.2,408.6 		"/>
		<polygon class="st6" points="453.2,414.4 477.2,408.6 460.2,390.7 436.2,396.5 		"/>
	</g>
</g>
<g id="Cubo_secretária">
	<polygon class="st16" points="643.6,216.8 643.6,340.2 528.8,406.4 528.8,283 	"/>
	<polygon class="st17" points="758.3,283 758.3,406.4 643.6,340.2 643.6,216.8 	"/>
	<polygon class="st17" points="643.6,472.7 643.6,481.8 528.8,415.5 528.8,406.4 	"/>
	<polygon class="st16" points="758.3,406.4 758.3,415.5 643.6,481.8 643.6,472.7 	"/>
	<polygon class="st18" points="758.4,406.4 643.2,472.7 528.5,406.4 643.2,340.2 	"/>
</g>
<g id="Homem">
	<path class="st19" d="M673.9,379.5c-0.1,0.1-0.2,0.1-0.2,0.1c-0.9,0.4-3.1-0.6-3.9-1.1c-2.1-0.8-4.4-1.4-6.5-2.3
		c-2.1-0.9-4.2-2.1-5.5-4c-0.7-1-1.2-2.2-2-3.2c-1.1-1.3-2.6-2.5-4-3.3c-0.3-0.2-0.6-0.4-0.8-0.7c-0.2-0.5,0-1,0.2-1.5
		c0.5-1,1.2-2,1.9-2.9c0.1-0.1,0.2-0.3,0.4-0.4c0.2-0.1,0.5,0,0.7,0c6.5,1.5,12.9,3,19.4,4.6c1.4,0.3,3.4,0.2,4.1,1.8
		c0.8,2.1,0.7,5.4-0.2,7.4c-0.3,0.7-0.8,1.4-1.3,2.1C675.7,376.9,674.7,378.9,673.9,379.5z"/>
	<path class="st20" d="M650.1,341.2c-0.5,2.2-1,4.6-2.2,6.2c-0.6,0.7-1.3,1.3-2.1,1.9c-1.1,0.9-2.1,1.7-3.1,2.6
		c-0.8,0.8-1.6,1.3-2.5,1.9c-0.2,0.1-0.3,0.2-0.5,0.2c-0.1,0-0.2-0.1-0.3-0.1c-2.2-1-4.2-2.2-6.2-3.6c1.1-1.2,2.5-2.1,3.7-3.2
		c1.3-1.3,2.5-2.6,3.7-4c1.4-1.7,2.5-3.9,3.5-6c0.3,0.4,0.6,0.7,0.8,1.1c0.4,0.6,0.8,1.2,1.3,1.7
		C647.2,340.8,648.6,341.4,650.1,341.2L650.1,341.2z"/>
	<path class="st21" d="M680.7,348.5c0,0.2,0,0.4-0.1,0.5c-0.2,0.4-1.2,0.5-1.9,0.6c-0.3,0-0.6,0.1-0.8,0.1c-0.2,0-0.5,0.1-0.7,0.1
		c0.5,2.6,0.3,5.3,0.3,7.9c0,0.4,0,0.7,0,1.1c0.1,2.1,0.3,4.1,0.7,6.2c0.1,0.3,0.1,0.6,0,0.9c-0.1,0.4-0.6,0.7-0.9,0.9
		c-4.3,2.1-9.5,1.5-14.1,0.2c-0.5-0.1-1-0.3-1.5-0.5c-2.8-0.9-5.5-2.1-7.8-3.9c-0.5-0.4-1-0.8-1.4-1.3c0.2,0.2,1.8-2.7,1.8-3
		c0.4-1.1,0.5-2.3,0.6-3.5c0.1-2.5-0.1-5-0.5-7.4c-0.2-1.2-0.3-2.4-0.8-3.6c-0.6-1.4-1.7-2.7-3.3-2.7c-1.6,0-3-0.1-4.2-1.3
		c-0.5-0.5-0.9-1.1-1.3-1.7c-0.2-0.3-0.5-0.7-0.8-1.1c-0.4-0.5-0.8-1.1-0.8-1.7c-0.1-0.9,0.6-1.5,1-2.2c1.4-2.4,2.1-3.9,3.5-6.3
		c0.8-1.4,2.2-3.4,3.9-3.7c0,0.4-0.1,0.8-0.1,1.1c0,0.3,0.1,0.7,0.4,0.9c0.6,0.3,0.8-0.3,1.2-0.3c0.7-0.1,0.9,0.9,1.2,1.4
		c0.2,0.3,0.4,0.6,0.6,0.8c0.4,0.4,1,0.6,1.6,0.3c0.1,0,0.2-0.1,0.3-0.1c0.5,0,0.5,0.7,0.6,1c0.2,0.8,0.9,1.5,1.6,1.8
		s1.7,0.4,2.5,0.2c0.5-0.1,1-0.2,1.4-0.5c0.5-0.3,0.9-0.8,1.2-1.3c0.5-0.9,0.8-1.8,1.1-2.8c0.2-0.7,0.4-1.2,0.3-1.9
		c0-0.1,0-0.2-0.1-0.2c2.6,1.3,5,3.2,7.4,4.8c1.3,0.8,2.4,1.9,3.4,3c2.6,2.7,4.3,5.3,4.5,9C681.1,343.1,680.8,345.8,680.7,348.5z"/>
	<path class="st19" d="M663.6,319.7c0,0.1-0.1,0.1-0.1,0.2c-0.5-0.6-1.3-1.3-2-0.6c0,0,0,0-0.1,0.1c0,0-0.1,0.1-0.1,0.1
		c-0.1,0.1-0.1,0.2-0.2,0.3c-0.1,0.1-0.1,0.2-0.2,0.3l-0.1,0.1c0,0.1-0.1,0.1-0.1,0.2l0,0l0,0c0,0.1-0.1,0.1-0.1,0.2
		c-0.1,0.2-0.2,0.4-0.3,0.5c0,0,0,0-0.1,0c-0.2,0-0.4-0.2-0.6-0.4c-0.1-0.2-0.2-0.3-0.4-0.5c-0.2-0.3-0.5-0.5-0.7-0.7
		c-0.1-0.1-0.3-0.2-0.4-0.3c-0.1-0.1-0.2-0.2-0.3-0.3c-0.2-0.2-0.3-0.4-0.5-0.6c-0.1-0.1-0.2-0.2-0.4-0.3c-0.5-0.3-1.1-0.2-1.7,0
		c-0.1,0-0.2,0.1-0.4,0.2c-0.1,0-0.2,0.1-0.4,0.2c0,0,0,0-0.1,0c-1.1,0.6-2.7,0.8-3.9,0.2c-0.9-0.4-1.7-1.7-2-2.7
		c-0.3-0.7-0.3-1.5,0.1-2.2c0.5-0.9,1.6-1.3,2.4-1.9c0.9-0.7,1.5-1.8,2.3-2.6c0.8-0.8,2-1.3,3.1-1.4c1.2-0.2,2.3,0,3.5,0.2
		c0.8,0.2,1.7,0.5,2.4,1.1c0.6,0.5,0.6,1.4,1.4,1.8c0.3,0.2,0.5,0.3,0.7,0.6c0.5,0.9,0.7,2.1,0.6,3.1
		C665,316.3,664.6,318.1,663.6,319.7z"/>
	<path class="st9" d="M670.8,348.9c-0.6-0.1-1.3-0.3-1.9-0.5c0.1-2.4,0.1-4.8,0.1-7.2"/>
	<path class="st9" d="M654,345.3c-0.2-1.2-0.9-2.3-1.3-3.4c-0.5-1.2-0.9-2.4-1.3-3.6"/>
	<path class="st6" d="M665.4,325.8c-0.3,1-0.6,1.9-1.1,2.8c-0.3,0.5-0.7,1-1.2,1.3c-0.4,0.3-0.9,0.4-1.4,0.5
		c-0.8,0.1-1.7,0.1-2.5-0.2s-1.5-1-1.6-1.8c-0.2-0.7-0.2-1.1-1-0.9c-0.5,0.1-1.1,0-1.5-0.4c-0.2-0.2-0.4-0.5-0.6-0.8
		c-0.5-0.7-0.6-1.4-1.6-1c-0.7,0.3-1.2-0.3-1.2-1c0-0.4,0.1-0.8,0.2-1.2c0-0.3,0-0.6-0.1-1c-0.2-0.7-0.7-1.2-1-1.9
		c-0.1-0.1-0.7-2.2-0.4-2.2c0.8,0.2,1.6,0.5,2.4,0.5c0.7,0,1.3-0.2,1.9-0.5c0,0,0,0,0.1,0c0.1-0.1,0.2-0.1,0.3-0.2
		c0.1-0.1,0.2-0.1,0.4-0.2c1.2-0.5,2.3-0.2,3.1,0.7c0.5,0.5,0.6,1.2,1.1,1.6c0,0,0,0,0.1-0.1c0.2-1,0.6-1.7,1.5-2.1
		c0.3-0.1,0.7-0.2,1-0.1c0.1,0,0.3,0.1,0.4,0.2c0.6,0.5,0.9,1.3,0.8,2.1c0,0.2-0.1,0.5-0.1,0.7c0,0.4,0.4,0.9,0.7,1.2
		c0.4,0.5,0.8,0.9,1.2,1.4C666,324.2,665.6,324.9,665.4,325.8z"/>
	<path class="st9" d="M653.5,321.5c0.3,0.2,0.4,0.3,0.8,0.2"/>
	<path class="st9" d="M656.1,327.5c0.2,0,0.6-0.1,0.8-0.2c0.8-0.3,1.6-0.7,2.2-1.2"/>
</g>
<g id="Secretária_desktop">
	<polygon class="st22" points="649.8,457.3 690.1,434 690.1,384.1 649.8,407.3 	"/>
	<polygon class="st23" points="609.6,337.6 690.1,384.1 649.8,407.3 569.3,360.8 	"/>
	<g>
		<path class="st24" d="M621.3,355.8c1-0.5,2.5-0.5,3.5,0l31.4,18.3c1,0.6,0.9,1.5,0,2l-5.5,3.2c-1,0.5-2.5,0.5-3.5,0L615.8,361
			c-1-0.6-0.9-1.5,0-2L621.3,355.8z"/>
	</g>
	<line class="st24" x1="653.5" y1="377.6" x2="618.7" y2="357.3"/>
	<line class="st24" x1="644.9" y1="377.9" x2="654" y2="372.8"/>
	<line class="st24" x1="641.4" y1="375.7" x2="650.5" y2="370.6"/>
	<line class="st24" x1="637.7" y1="373.6" x2="646.7" y2="368.4"/>
	<polygon class="st17" points="649.8,457.3 569.3,410.8 569.3,360.9 649.8,407.3 	"/>
</g>
<g id="Braço_homem">
	<path class="st6" d="M678.7,349.6c-0.1,3.1-0.5,6.2-1.2,9.2c-0.2,1-0.5,2-0.8,3c-0.2,0.7-0.5,1.4-1,1.9c-0.4,0.4-1,0.6-1.5,0.7
		c-2.7,0.9-5.5,1.7-8.4,2c-1.4,0.1-2.8,0.1-4.1,0.1c-2.2,0-4.4,0.1-6.5,0.9c-1.4,0.5-2.6,1.3-4.1,1.7c-1.3,0.3-2.7,0.2-4.1,0
		c-1.7-0.2-3.4,0.3-5,0.9c-0.7,0.3-1.4,0.6-2.1,0.4c0-0.5,0-1,0.1-1.5c0-0.1,0.1-0.3,0.1-0.4c0.1-0.1,0.2-0.2,0.4-0.2
		c0.8-0.4,2.9-0.9,3.7-1.2c-0.8,0-2.7,0.1-3.4,0.1c-0.1,0-0.1,0-0.2,0c0,0,0-0.1,0-0.1c-0.1-1.6,0.9-3.2,1.2-4.8
		c0.1-0.4,3.6-0.7,4.1-0.7c1.2-0.1,2.2,0.2,3.4,0.4c2.7,0.4,5.5-0.1,8.2-0.9c3.9-1.1,8-2.6,12.1-3c-0.3-3.1,0-6.2,0.9-9.2
		c1.1,0.2,2.1,0.6,3.2,0.7c1.1,0.1,2.4,0.2,3.5,0.1c0.2,0,0.5-0.1,0.7-0.1C678.1,349.7,678.4,349.7,678.7,349.6z"/>
</g>
<g id="Écran_desktop">
	<g>
		<path class="st3" d="M643.3,383.2c0,2.8-1.9,3.9-4.3,2.5l-31.8-18.4c-2.4-1.4-4.3-4.7-4.3-7.5v-24.7c0-2.8,1.9-3.9,4.3-2.5
			l31.8,18.4c2.4,1.4,4.3,4.7,4.3,7.5V383.2z"/>
		<path class="st10" d="M643.3,383.2c0,2.8-1.9,3.9-4.3,2.5l-31.8-18.4c-2.4-1.4-4.3-4.7-4.3-7.5v-24.7c0-2.8,1.9-3.9,4.3-2.5
			l31.8,18.4c2.4,1.4,4.3,4.7,4.3,7.5V383.2z"/>
	</g>

		<ellipse transform="matrix(0.8629 -0.5054 0.5054 0.8629 -96.0503 363.2502)" class="st24" cx="621.4" cy="358.6" rx="3.8" ry="6.6"/>
</g>
<g id="Pilha_folhas">
	<g>
		<polygon class="st23" points="746,403 719.9,418.2 693.9,403.2 720,388 		"/>
		<polygon class="st23" points="746,398.1 719.9,413.2 693.9,398.2 720,383.1 		"/>
		<polygon class="st23" points="746,393.1 719.9,408.2 693.9,393.2 720,378.1 		"/>
		<polygon class="st23" points="746,388.1 719.9,403.3 693.9,388.3 720,373.1 		"/>
		<polygon class="st23" points="746,383.2 719.9,398.3 693.9,383.3 720,368.2 		"/>
		<polygon class="st23" points="746,378.2 719.9,393.3 693.9,378.3 720,363.2 		"/>
	</g>
</g>
<g id="Folha_voar">
	<polygon class="st23" points="535.8,361.9 545.6,384.2 515.2,386.5 505.4,364.1 	"/>
</g>
<g id="Código">
	<g>
		<line class="st10" x1="565.7" y1="299.1" x2="596.7" y2="281.2"/>
		<line class="st10" x1="565.7" y1="320.9" x2="584.2" y2="310.2"/>
		<line class="st10" x1="586.8" y1="308.7" x2="594.4" y2="304.3"/>
		<line class="st10" x1="597" y1="302.8" x2="614" y2="292.9"/>
		<line class="st10" x1="575.4" y1="299" x2="600.8" y2="284.3"/>
		<line class="st10" x1="604.1" y1="282.4" x2="618.4" y2="274.1"/>
		<line class="st10" x1="599.2" y1="279.8" x2="609.5" y2="273.8"/>
		<line class="st10" x1="575.4" y1="304.4" x2="593" y2="294.2"/>
		<line class="st10" x1="596.1" y1="292.4" x2="604.1" y2="287.8"/>
		<line class="st10" x1="568.8" y1="293.4" x2="572.8" y2="291.1"/>
		<line class="st10" x1="607.4" y1="285.9" x2="615.4" y2="281.3"/>
		<line class="st10" x1="581.7" y1="306.2" x2="616.8" y2="285.9"/>
		<line class="st10" x1="575.4" y1="320.7" x2="590.6" y2="311.9"/>
		<line class="st10" x1="593" y1="310.5" x2="598.7" y2="307.2"/>
		<line class="st10" x1="601.1" y1="305.9" x2="604.1" y2="304.1"/>
	</g>
</g>
<g id="Nuvem_azul">
	<path class="st25" d="M577.5,254c-1.5,0-2.9,0.2-4.3,0.6c-0.5-6.9-6.2-12.4-13.2-12.4c-2.2,0-4.3,0.5-6.1,1.5
		c-2.9-4.4-7.9-7.3-13.6-7.3c-8.9,0-16.2,7.3-16.2,16.2c0,0.5,0,1,0.1,1.4c0,0,0,0-0.1,0c-9.1,0-16.4,7.3-16.4,16.4
		c0,9.1,7.3,16.4,16.4,16.4h53.4c9.1,0,16.4-7.3,16.4-16.4C593.9,261.3,586.6,254,577.5,254z"/>
	<path class="st25" d="M1081.8,549.3c-3.6,0-7,0.5-10.3,1.4c-1.1-16.4-14.8-29.4-31.5-29.4c-5.3,0-10.2,1.3-14.6,3.6
		c-6.9-10.5-18.8-17.5-32.3-17.5c-21.3,0-38.6,17.3-38.6,38.6c0,1.2,0.1,2.3,0.2,3.4c-0.1,0-0.1,0-0.2,0
		c-21.6,0-39.1,17.5-39.1,39.1c0,21.6,17.5,39.1,39.1,39.1h127.3c21.6,0,39.1-17.5,39.1-39.1
		C1120.9,566.8,1103.4,549.3,1081.8,549.3z"/>
</g>
<g id="Nuvem_laranja">
	<path class="st26" d="M769.1,311.9c-0.4,0-0.9,0-1.3,0.1c0.1-0.8,0.2-1.6,0.2-2.4c0-9-7.3-16.2-16.2-16.2
		c-6.9,0-12.9,4.4-15.2,10.5c-1.3-0.7-2.7-1.2-4.3-1.2c-4.4,0-8,3.3-8.4,7.6c-5.5,1.3-9.7,6.3-9.7,12.3c0,7,5.7,12.6,12.6,12.6h42.2
		c6.4,0,11.6-5.2,11.6-11.6S775.5,311.9,769.1,311.9z"/>
	<path class="st26" d="M386.3,483.2c-0.8,0-1.6,0-2.4,0.1c0.2-1.4,0.3-2.9,0.3-4.4c0-16.6-13.4-30-30-30c-12.8,0-23.8,8.1-28.1,19.4
		c-2.3-1.4-5-2.2-7.9-2.2c-8.1,0-14.7,6.2-15.5,14.1c-10.3,2.5-17.9,11.7-17.9,22.7c0,12.9,10.5,23.4,23.4,23.4h78.1
		c11.9,0,21.6-9.6,21.6-21.6C407.9,492.9,398.2,483.2,386.3,483.2z"/>
</g>
<g id="Mão_chave">
</g>
<g id="Brilho_chave">
</g>
<g id="Tracejado_azul">
	<path class="st27" d="M643.7,653c0,41.1-33.3,74.4-74.4,74.4c-25,0-47.2-12.4-60.7-31.3"/>
</g>
<g id="Cubo_rubik">
	<g>
		<g>
			<g>
				<polygon class="st6" points="613.5,649 598.9,689.4 626.8,689.4 641.5,649.2 				"/>
				<polygon class="st4" points="628.2,608.5 599.9,608.4 585.2,648.9 613.5,649 				"/>
				<polygon class="st6" points="641.5,649.2 656.3,608.6 628.2,608.5 613.5,649 				"/>
				<polygon class="st5" points="626.8,689.4 655.4,689.4 669.9,649.3 641.5,649.2 				"/>
				<polygon class="st4" points="656.3,608.6 641.5,649.2 669.9,649.3 684.6,608.7 				"/>
				<polygon class="st6" points="614.8,567.4 599.9,608.4 628.2,608.5 643.1,567.4 				"/>
				<polygon class="st5" points="643.1,567.4 628.2,608.5 656.3,608.6 671.4,567.4 				"/>
				<polygon class="st6" points="671.4,567.4 656.3,608.6 684.6,608.7 699.5,567.4 				"/>
				<polygon class="st5" points="585.2,648.9 570.5,689.4 598.9,689.4 613.5,649 				"/>
				<polygon class="st4" points="541.3,672.5 570.5,689.4 585.2,648.9 556,631.9 				"/>
				<polygon class="st5" points="614.8,567.4 585.5,550.6 570.6,591.6 599.8,608.6 				"/>
				<polygon class="st6" points="570.6,591.6 556,631.9 585.2,648.9 599.8,608.6 				"/>
				<polygon class="st4" points="585.5,550.6 614.8,567.4 643.1,567.4 613.8,550.6 				"/>
				<polygon class="st4" points="669.9,550.6 642.1,550.6 671.4,567.4 699.5,567.4 				"/>
				<polygon class="st6" points="613.8,550.6 643.1,567.4 671.4,567.4 642.1,550.6 				"/>
			</g>
			<g>
				<polygon class="st6" points="642.8,665.8 628.2,706.1 656.1,706.1 670.8,665.9 				"/>
				<polygon class="st6" points="657.5,625.3 629.2,625.2 614.5,665.6 642.8,665.8 				"/>
				<polygon class="st6" points="670.8,665.9 685.6,625.4 657.5,625.3 642.8,665.8 				"/>
				<polygon class="st6" points="656.1,706.1 684.7,706.1 699.2,666.1 670.8,665.9 				"/>
				<polygon class="st6" points="685.6,625.4 670.8,665.9 699.2,666.1 713.9,625.5 				"/>
				<polygon class="st6" points="644.1,584.2 629.2,625.2 657.5,625.3 672.4,584.2 				"/>
				<polygon class="st6" points="672.4,584.2 657.5,625.3 685.6,625.4 700.7,584.2 				"/>
				<polygon class="st6" points="700.7,584.2 685.6,625.4 713.9,625.5 728.8,584.2 				"/>
				<polygon class="st5" points="614.5,665.6 599.8,706.1 628.2,706.1 642.8,665.8 				"/>
				<polygon class="st6" points="570.6,689.2 599.8,706.1 614.5,665.6 585.3,648.7 				"/>
				<polygon class="st4" points="644.1,584.2 614.8,567.4 599.9,608.4 629.2,625.3 				"/>
				<polygon class="st5" points="599.9,608.4 585.3,648.7 614.5,665.6 629.2,625.3 				"/>
				<polygon class="st23" points="602.4,618.2 592.8,644.6 612,655.8 621.6,629.3 				"/>
				<polygon class="st23" points="604.9,627.8 600.2,640.7 609.5,646.1 614.2,633.3 				"/>
				<polygon class="st4" points="614.8,567.4 644.1,584.2 672.4,584.2 643.1,567.4 				"/>
				<polygon class="st5" points="699.2,567.4 671.4,567.4 700.7,584.2 728.8,584.2 				"/>
				<polygon class="st6" points="643.1,567.4 672.4,584.2 700.7,584.2 671.4,567.4 				"/>
			</g>
			<line class="st28" x1="599.9" y1="608.4" x2="644.1" y2="584.2"/>
			<line class="st28" x1="614.8" y1="567.4" x2="629.2" y2="625.2"/>
			<polygon class="st9" points="644.1,584.2 614.8,567.4 599.9,608.4 629.2,625.3 			"/>
			<g>
				<g>
					<polygon class="st6" points="682.6,655.3 682.6,691.6 714.1,709.8 714.1,673.5 					"/>
					<polygon class="st6" points="714.1,637.2 682.6,655.3 714.1,673.5 745.6,655.3 					"/>
					<polygon class="st6" points="745.6,691.6 745.6,655.3 714.1,673.5 714.1,709.8 					"/>
				</g>
				<g>
					<polygon class="st6" points="682.6,619 682.6,655.3 714.1,673.5 714.1,637.2 					"/>
					<polygon class="st6" points="714.1,600.8 682.6,619 714.1,637.2 745.6,619 					"/>
					<polygon class="st6" points="745.6,655.3 745.6,619 714.1,637.2 714.1,673.5 					"/>
				</g>
				<g>
					<polygon class="st6" points="682.6,582.7 682.6,619 714.1,637.2 714.1,600.8 					"/>
					<polygon class="st4" points="714.1,564.5 682.6,582.7 714.1,600.8 745.6,582.7 					"/>
					<polygon class="st4" points="745.6,619 745.6,582.7 714.1,600.8 714.1,637.2 					"/>
				</g>
				<g>
					<polygon class="st6" points="651.2,673.5 651.2,709.8 682.6,728 682.6,691.6 					"/>
					<polygon class="st6" points="682.6,655.3 651.2,673.5 682.6,691.6 714.1,673.5 					"/>
					<polygon class="st4" points="714.1,709.8 714.1,673.5 682.6,691.6 682.6,728 					"/>
				</g>
				<g>
					<polygon class="st6" points="651.2,637.2 651.2,673.5 682.6,691.6 682.6,655.3 					"/>
					<polygon class="st6" points="682.6,619 651.2,637.2 682.6,655.3 714.1,637.2 					"/>
					<polygon class="st5" points="714.1,673.5 714.1,637.2 682.6,655.3 682.6,691.6 					"/>
				</g>
				<g>
					<polygon class="st6" points="651.2,600.8 651.2,637.2 682.6,655.3 682.6,619 					"/>
					<polygon class="st6" points="682.6,582.7 651.2,600.8 682.6,619 714.1,600.8 					"/>
					<polygon class="st6" points="714.1,637.2 714.1,600.8 682.6,619 682.6,655.3 					"/>
				</g>
				<g>
					<polygon class="st6" points="619.7,691.6 619.7,728 651.2,746.1 651.2,709.8 					"/>
					<polygon class="st6" points="651.2,673.5 619.7,691.6 651.2,709.8 682.6,691.6 					"/>
					<polygon class="st5" points="682.6,728 682.6,691.6 651.2,709.8 651.2,746.1 					"/>
				</g>
				<g>
					<polygon class="st5" points="619.7,655.3 619.7,691.7 651.2,709.8 651.2,673.5 					"/>
					<polygon class="st6" points="651.2,637.2 619.7,655.3 651.2,673.5 682.6,655.3 					"/>
					<polygon class="st6" points="682.6,691.7 682.6,655.3 651.2,673.5 651.2,709.8 					"/>
				</g>
				<g>
					<polygon class="st6" points="619.7,619 619.7,655.3 651.2,673.5 651.2,637.2 					"/>
					<polygon class="st5" points="651.2,600.8 619.7,619 651.2,637.2 682.6,619 					"/>
					<polygon class="st29" points="651.2,610.2 636,619 651.2,627.8 666.4,619 					"/>
					<polygon class="st4" points="682.6,655.3 682.6,619 651.2,637.2 651.2,673.5 					"/>
				</g>
			</g>
		</g>
		<line class="st24" x1="655.7" y1="574.6" x2="684" y2="574.6"/>
		<line class="st24" x1="658.2" y1="567.4" x2="683.7" y2="582"/>
		<polygon class="st9" points="680.1,584.2 690.4,578.3 671.4,567.4 643.1,567.4 672.4,584.2 		"/>
		<polygon class="st9" points="714.1,564.5 682.6,582.7 714.1,600.8 745.6,582.7 		"/>

			<ellipse transform="matrix(0.9912 -0.1324 0.1324 0.9912 -71.4999 83.5272)" class="st30" cx="592.5" cy="579.6" rx="11.6" ry="16"/>

			<ellipse transform="matrix(0.9912 -0.1324 0.1324 0.9912 -71.4999 83.5272)" class="st31" cx="592.5" cy="579.6" rx="6.8" ry="9.4"/>
		<path class="st32" d="M707.5,661.2L707.5,661.2l2.4-1.6v-3.7l-2.4,1.2v0l-1.4-3l0,0l1.6-3l-2.3-1.3l-1.8,2.9l0,0l-3.3,0.3l0,0
			l-0.2-2.6l-3.2,1.8l-0.2,2.9l0,0l-3.3,3.5l0,0l-1.8-0.7l-2.3,3.9l1.6,1.2l0,0l-1.4,4.6v0l-2.4,1.6v3.7l2.4-1.2v0l1.4,3l0,0l-1.6,3
			l2.3,1.3l1.8-2.9l0,0l3.3-0.3l0,0l0.2,2.6l3.2-1.8l0.2-2.9l0,0l3.3-3.5l0,0l1.8,0.7l2.3-3.9l-1.6-1.2l0,0L707.5,661.2z
			 M698.4,671.6c-3.5,2-6.2,0.4-6.2-3.6s2.8-8.8,6.2-10.8s6.2-0.4,6.2,3.6S701.8,669.6,698.4,671.6z"/>
		<line class="st28" x1="599.4" y1="657.1" x2="584.7" y2="697.6"/>
		<line class="st28" x1="577.9" y1="668.9" x2="607.2" y2="685.9"/>
		<polygon class="st9" points="570.6,689.2 599.8,706.1 614.5,665.6 585.3,648.7 		"/>

			<ellipse transform="matrix(0.8629 -0.5054 0.5054 0.8629 -276.0895 419.451)" class="st33" cx="634.9" cy="718.5" rx="8.5" ry="14.8"/>
		<line class="st10" x1="714.1" y1="673.5" x2="745.6" y2="620.2"/>
		<line class="st10" x1="714.1" y1="637.2" x2="745.6" y2="655.3"/>
		<polygon class="st9" points="745.6,655.3 745.6,619 714.1,637.2 714.1,673.5 		"/>
		<path class="st2" d="M673.7,643c0-0.7-0.1-1.4-0.2-1.9l1.6-2l-1.7-2.4l-1.6,2c-0.8-0.5-1.9-0.6-3.1-0.3v-2.2l-3.4,1.9v2.2
			c-1.2,1.1-2.3,2.4-3.1,3.9l-1.6-0.1l-1.7,4.3l1.6,0.1c-0.2,0.8-0.2,1.5-0.2,2.2s0.1,1.4,0.2,1.9l-1.6,2l1.7,2.4l1.6-2
			c0.8,0.5,1.9,0.6,3.1,0.3v2.2l3.4-1.9v-2.2c1.2-1,2.3-2.4,3.1-3.9l1.6,0.1l1.7-4.3l-1.6-0.1C673.6,644.4,673.7,643.7,673.7,643z
			 M666.9,650.7c-1.9,1.1-3.4,0.2-3.4-1.9c0-2.1,1.5-4.7,3.4-5.8c1.9-1.1,3.4-0.2,3.4,1.9S668.8,649.6,666.9,650.7z"/>
	</g>
</g>
<g id="Mão_AI">
	<g>
		<path class="st34" d="M634.8,555.8c-2.9,2.8-7,4-11.1,4.3c-15.7,1-21.9-15.6-31.9-24.1c-1.9-1.6-4.2-3.7-6.8-4
			c-1.7-0.2-3.3,0.1-5,0.4c-6.8,1.3-13.3,3.7-19.8,5.8c1.7,0.9,3.3,1.9,4.8,2.9c3.7,2.6,6.4,6.1,8.2,10.1
			c4.6,9.9,6.8,20.6,11.4,30.5c2.7,5.8,8.9,11.8,6.4,18.7c-2.3,6.6-10,9.5-16.6,8c-2.8-0.6-5.4-2.1-7.6-3.9
			c-2.2-1.9-4.3-4.4-5.8-6.9c-2-3.4-3.4-7.1-5.2-10.6c-2.3-4.5-4.1-9.5-6.5-14c-0.6-1.2-1.2-2.3-1.9-3.4c-2.1-3.2-6.1-4.4-9.8-5.1
			c-6.1-1.1-12.2-0.7-18.4-0.1c-1.7,0.1-3.5,0.3-5.1,1c-2.4,1-3.4,2.6-1.4,4.4c1.5,1.3,3.4,2.2,4.9,3.5c2.2,1.9,4.5,3.6,6.4,5.8
			c3.7,4.1,6.6,8.8,9.1,13.6c0.5,0.9,0.9,1.8,1.3,2.7c1.8,3.9,3.5,7.7,6.1,11.4c3.6,5.1,7.7,9.6,12.1,14c2.4,2.4,4.9,4.8,6.5,7.8
			c2.8,5.3,1.5,12.7-4.5,15.2c-4.7,2-10.4,1.4-15-0.6c-10.7-4.7-18.3-15.4-24.2-25.1c-2-3.3-3.8-6.7-6.4-9.4
			c-5.9-6.1-14.7-4.6-22.4-3.5c-11.2,1.7-24,2.7-33.7-4.5c-3.6-2.6-6.5-5.6-8.7-9.1c-1.6-2.6-2.9-5.4-3.8-8.6
			c-1.8-6.9-1.6-14.4,0.4-21.1c2.1-7.3,6.4-13.9,12.5-18.4c0.3-0.2,0.6-0.4,0.8-0.6c15.2-10.3,32-18,49.2-24.2
			c18.6-6.8,37.4-12.5,56.7-17.2c8.5-2,17.4-4.2,26.2-2.8c9.5,1.5,16.6,8,22.3,15.3c0.7,0.9,1.3,1.7,2,2.6
			c6.2,8.2,12.1,16.9,20.4,23c2.1,1.6,4.4,3,5.7,5.3C639,548.2,637.7,553,634.8,555.8z"/>
		<path class="st34" d="M549.6,572.9c-0.4,4.9-2.1,9.8-5,13.8c-2.5,3.6-6,6.6-9.9,8.6c-0.4-0.9-0.9-1.8-1.3-2.7
			c-2.5-4.9-5.4-9.6-9.1-13.6c-1.9-2.2-4.2-3.9-6.4-5.8c-1.5-1.3-3.4-2.2-4.9-3.5c-2-1.7-1-3.4,1.4-4.4c1.6-0.6,3.4-0.8,5.1-1
			c6.2-0.6,12.3-1,18.4,0.1c3.7,0.7,7.7,1.9,9.8,5.1C548.3,570.6,549,571.7,549.6,572.9z"/>
		<path class="st34" d="M441.2,561.8c-2,6.8-2.2,14.2-0.4,21.1c0.8,3.2,2.1,6.1,3.8,8.6c-2,0.1-4-0.3-5.8-1.2c-4.1-2-6.9-6-8.3-10.3
			c-0.2-0.7-0.4-1.3-0.5-2c-1.7-7.5-0.6-16.6,2.6-23.3c1.3-2.6,3.2-5.8,5.5-8c0.9-0.9,1.9-1.6,3-2c3.9-1.7,8.4-1.9,12.6-1.3
			C447.6,547.9,443.3,554.5,441.2,561.8z"/>
		<path class="st34" d="M438.1,546.7c-2.4,2.2-4.3,5.4-5.5,8c-3.2,6.7-4.3,15.8-2.6,23.3c-2.8-0.5-5.7-0.3-8.1-2.4
			c-6.4-5.5-3.9-17.5-0.3-23.9c1.2-2.2,2.7-4.2,4.8-5.5C429.9,543.9,434.4,544.8,438.1,546.7z"/>
		<path class="st35" d="M534.1,531.2c9.1,0.1,18.2,2.5,26.2,6.9"/>
	</g>
	<g>
		<path class="st36" d="M494.2,540.1c-0.4-0.4-0.8-0.8-1.2-1.1"/>
		<path class="st36" d="M484,541.4c0.3-0.4,0.6-0.8,0.9-1.1"/>
		<path class="st36" d="M476.4,546.2c-0.4,0-0.8,0.1-1.2,0.1"/>
		<path class="st36" d="M468,561.2c-0.3-0.3-0.5-0.7-0.7-1"/>
		<path class="st36" d="M505.8,553.9c-0.2-0.5-0.5-1-0.9-1.4"/>
		<path class="st36" d="M503.5,561.9c-0.4,0.3-0.8,0.5-1.3,0.7"/>
		<path class="st36" d="M495.9,570.4c0.1-0.4,0.2-0.8,0.3-1.2"/>
		<path class="st36" d="M480.2,575.2c-0.3-0.3-0.6-0.6-0.9-0.9"/>
		<polygon class="st36" points="484.8,566.3 477.1,557.3 487.2,549 494.9,558 		"/>
		<path class="st37" d="M474.4,557.2l13.2-10.8l4.4,5.2l6.1-5.2c2-1.8,2.4-4.8,0.8-6.6c-1.4-1.7-3.9-1.9-5.8-0.7
			c-2.2-1.4-5.3-1.1-7.6,0.8c-0.1,0.1-0.3,0.3-0.4,0.4c-2.3-0.4-4.8,0.3-6.9,2c-1.4,1.1-2.4,2.6-2.9,4.1c-1.8,0.3-3.5,1-5.1,2.3
			c-3.8,3-5,7.9-2.9,11.5c-1.7,1.7-2,4.3-0.5,6c1.6,1.9,4.7,2,6.9,0.3l5.1-4L474.4,557.2z"/>
		<path class="st37" d="M495.9,570.4c1.7-0.2,3.3-0.8,4.7-2c2.1-1.7,3.1-4.2,2.9-6.6c0.2-0.1,0.3-0.2,0.5-0.4c2.3-2,3-5.1,1.8-7.6
			c1.4-1.8,1.5-4.4,0.1-6c-1.6-1.9-4.6-2-6.6-0.2l-6.1,5.2l4.5,5.2L484.5,569l-4.5-5.2l-5.1,4c-2.2,1.7-2.7,4.6-1,6.6
			c1.5,1.7,4.2,2,6.4,0.8c3.4,2.8,8.8,2.8,12.6-0.2C494.3,573.7,495.3,572.1,495.9,570.4z"/>
		<path class="st15" d="M472.7,553.6l-2.6,2.1c-0.5,0.4-0.6,1.1-0.3,1.6l2.8,3.3c0.4,0.5,0.3,1.2-0.3,1.6l-5.4,4.2"/>
		<line class="st15" x1="481.6" y1="547" x2="477.8" y2="542.4"/>
		<path class="st15" d="M491.5,543.8l1.9,2.2c0.4,0.5,1.1,0.5,1.6,0l4.8-4.2"/>
		<path class="st15" d="M499.6,554l2.4,2.8c0.4,0.5,0.3,1.2-0.2,1.6l-3.2,2.7c-0.5,0.4-0.6,1.2-0.2,1.6l3.5,4"/>
		<path class="st15" d="M492.8,567.5l-3.9,3.2c-0.5,0.4-0.6,1.1-0.2,1.6l3.1,3.5"/>
		<line class="st15" x1="479.8" y1="570.3" x2="474.2" y2="574.7"/>
		<g>
			<path class="st1" d="M484.5,558.9l-1.7-2l-1.7,0.5l-0.6-0.7l7.4-2.2l-3.6,6.7l-0.7-0.8L484.5,558.9z M485,558l1.2-2.1l-2.4,0.7
				L485,558z"/>
			<path class="st1" d="M490.6,558.2l-5.2,4.3l-0.6-0.7l5.2-4.3L490.6,558.2z"/>
		</g>
		<path class="st26" d="M482.8,548.4c-0.9,0.7-2.2,0.7-2.8-0.1c-0.7-0.8-0.5-2,0.4-2.8c0.9-0.7,2.1-0.7,2.8,0.1
			C483.9,546.5,483.7,547.7,482.8,548.4z"/>
		<path class="st26" d="M492.7,545.3c-0.9,0.7-2.1,0.7-2.8-0.1c-0.7-0.8-0.5-2,0.4-2.8c0.9-0.7,2.1-0.7,2.8,0.1
			C493.8,543.3,493.6,544.5,492.7,545.3z"/>
		<path class="st26" d="M473.9,555c-0.9,0.7-2.2,0.7-2.9-0.1c-0.7-0.8-0.5-2,0.5-2.7c0.9-0.7,2.2-0.7,2.8,0.1
			C475,553,474.8,554.3,473.9,555z"/>
		<path class="st26" d="M481.1,571.8c-0.9,0.7-2.2,0.7-2.9-0.1c-0.7-0.8-0.5-2,0.4-2.8c0.9-0.7,2.2-0.7,2.9,0.1
			C482.2,569.8,482,571.1,481.1,571.8z"/>
		<path class="st26" d="M494.1,568.9c-0.9,0.7-2.2,0.7-2.9-0.1c-0.7-0.8-0.6-2.1,0.3-2.8c0.9-0.7,2.2-0.7,2.9,0.1
			C495.1,566.9,495,568.2,494.1,568.9z"/>
		<path class="st26" d="M500.9,555.5c-0.9,0.7-2.1,0.7-2.8-0.1c-0.7-0.8-0.5-2.1,0.3-2.8c0.9-0.7,2.1-0.7,2.8,0.1
			C501.9,553.5,501.8,554.7,500.9,555.5z"/>
	</g>
</g>
<g id="Mão_jupyter">
	<g>
		<path class="st5" d="M596.8,742.6c-2.4,16-25.8,17.4-38.1,18c-10.2,0.5-19.4,3.6-29.2,6c-15.6,3.8-29.5-0.2-39.9-9.3
			c-7-6.1-12.3-14.4-15.6-24.2c-2-5.9-2.9-11.5-2.8-17c0-5.3,1-10.7,2.8-16.4c1.9-6.1,6.2-10.7,10-15.7c4.1-5.4,8.4-10.7,12.6-16
			c2.6-3.3,4.5-6.8,5.8-10.8c0.3-1.2,0.6-2.4,0.8-3.6c0.6-4.2,0.4-8.4-0.4-12.5c-0.6-3.4-2.9-5.9-2.6-9.4c0.8-10.1,15.2-5,19.5-1.2
			c2.9,2.5,5.3,5.5,7.1,8.9c2.9,5.3,4.2,11.5,3.8,17.5c3.5-0.6,7.2-0.7,10.5-0.9c5.1-0.4,10.1-1.4,15-2.8c4.2-1.1,9.7-3.8,14-1.2
			c5.7,3.5,5,12.9,1,17.4c-2.9,3.2-7,5-11.2,6.1c-4.2,1.1-8.5,1.5-12.6,2.7c-4,1.1-8.4,3-10.5,6.7c-2.3,4-4.8,7.8-7.4,11.6
			c-1,1.5-1.4,4.7,1.5,4.4c0.9-0.1,1.7-0.7,2.5-1.3c3-2.5,5.6-5.3,8.4-7.8c3-2.7,8.3-3.2,12.2-3.2c7.8-0.1,15.4,1.4,23.3,1.1
			c2-0.1,4-0.3,6,0c2.9,0.4,5.6,1.8,7.5,3.9c4.8,5.5,2.2,13.3-4,16c-5.2,2.3-10.1,2.6-15.6,2.9c-5,0.3-12-1-16.2,2.1
			c-1.1,0.8-2,2-2.9,3.1c-1.7,2.1-3.3,4.3-4.9,6.4c-1.2,1.6-3.8,3.8-4.4,5.7c-1,3.4,2.5,5.6,5.5,5.7c6.2,0.2,12.4,0.4,18.6,0.6
			c3.7,0.1,7.5,0.2,11.2-0.5c3.9-0.8,9.3-3.6,13.3-2.8C595.4,733.3,597.4,738.9,596.8,742.6z"/>
		<path class="st5" d="M489.6,757.2c-3.4,2.6-7.2,4.8-11.2,3.9c-2.6-0.6-4.7-2.3-6.5-4.3c-0.4-0.4-0.7-0.8-1-1.2
			c-5.5-6.8-8.7-15.3-9.2-24.1v0c-0.1-2.2-0.1-4.5,0.8-6.5c1-2.4,2.9-4.2,4.8-5.9c1.2-1.1,2.5-2.1,3.9-3c0,5.6,0.9,11.1,2.8,17
			C477.3,742.8,482.6,751.1,489.6,757.2z"/>
		<path class="st5" d="M471.9,756.8c-4.7,3.6-10.4,5.7-15.1,0.4c-3-3.5-4.7-8.1-4.7-12.6c0-5,1.5-7.9,5.7-10.6
			c1.2-0.8,2.6-1.6,3.8-2.4c0.5,8.7,3.8,17.2,9.2,24.1C471.2,756,471.5,756.4,471.9,756.8z"/>
		<path class="st9" d="M508.9,672.8c3.2-1.2,5.4-4,7.6-6.6c2.8-3.5,6-7,10.2-8.5c1.2-0.5,2.5-0.8,3.9-1"/>
	</g>
	<g>
		<path class="st2" d="M488.7,715.7c0,0.3,0.1,0.6,0.1,1c0.3,1.8,0.8,3.5,1.6,5.1c0.9,2,2.1,3.8,3.5,5.4c1,1.2,2.1,2.2,3.2,3.2
			c1.2,1,2.4,1.9,3.7,2.7c2.4,1.4,5,2.4,7.8,2.8c1.8,0.2,3.5,0.2,5.3-0.3c0.1,0,0.3-0.1,0.4-0.1c-0.5,0.7-4,2.6-5.8,3.1
			c-2.1,0.6-4.2,0.8-6.3,0.4c-2.1-0.3-4.1-1.1-5.9-2.3C488.8,732,486.8,722.6,488.7,715.7z"/>
		<path class="st2" d="M495.5,704.8c4.8-4.1,12.3-5.7,18.6-1.8c7,4.6,9,13.9,7.1,21.2c0-0.2,0-0.4-0.1-0.5c-0.2-2.2-0.9-4.2-1.7-6.1
			c-0.9-2-2.1-3.8-3.5-5.4c-1.3-1.5-2.8-2.9-4.4-4c-1-0.7-2-1.3-3-1.8c-1.9-1-3.9-1.7-6.1-2c-2.1-0.3-4.3-0.3-6.4,0.3
			C495.8,704.7,495.6,704.8,495.5,704.8C495.5,704.8,495.5,704.8,495.5,704.8z"/>
		<path class="st1" d="M480.9,728.1c0.9-1.5,3-2.2,4.5-1c1.4,1.1,1.7,3.3,0.7,5c-1,1.6-3.1,2.1-4.5,0.9
			C480.2,731.9,479.9,729.6,480.9,728.1z"/>
		<path class="st1" d="M524,712.7c-1.1-0.9-1.4-2.7-0.5-4.1c0.9-1.4,2.5-1.8,3.6-0.9c1.1,0.9,1.3,2.7,0.5,4.1
			C526.7,713.1,525.1,713.6,524,712.7z"/>
		<path class="st1" d="M500.9,714.3c0.4-0.2,0.8-0.2,1.2-0.2c1.1,0.1,2.2,1.2,1.9,3c-0.2,1.3-0.9,2.3-1.9,3
			c-1.3,0.9-2.7,0.1-3.1-0.8c-0.2-0.3-0.2-0.7-0.2-1.1c-0.1,0-0.1,0.1-0.1,0.1c-0.5,0.8-1.1,1.7-1.6,2.5c-0.1,0.1-0.1,0.1-0.2,0.1
			c-0.2-0.2-0.4-0.3-0.6-0.4c-0.1-0.1-0.1-0.1,0-0.2c0.8-1.3,1.7-2.7,2.5-4.1c0.6-0.9,1.2-1.9,1.7-2.8c0-0.1,0.1-0.1,0.1-0.2
			c0.1-0.3,0.1-0.3,0.3-0.1c0.1,0.1,0.3,0.2,0.4,0.3c0.1,0.1,0.1,0.2,0,0.3C501.1,713.9,501,714.1,500.9,714.3z M499.8,716.3
			c-0.1,0.2-0.2,0.3-0.3,0.5c-0.4,0.7-0.4,1.5,0.1,2.1c0.5,0.6,1.2,0.7,1.8,0.4c0.8-0.5,1.3-1.3,1.5-2.3c0.1-0.7,0-1.2-0.5-1.6
			c-0.6-0.5-1.5-0.4-2.1,0.1C500.2,715.7,500,716,499.8,716.3z"/>
		<path class="st1" d="M514.4,727.6c-0.5-0.4-1-0.8-1.5-1.1c-0.1-0.1-0.1-0.1-0.2,0.1c-0.6,0.9-0.4,2.2,0.4,2.8
			c0.4,0.3,0.9,0.6,1.4,0.7c0.1,0,0.1,0,0.1,0.1c-0.1,0.2-0.2,0.4-0.2,0.6c0,0.1-0.1,0.1-0.1,0.1c-0.6-0.2-1.2-0.5-1.7-0.9
			c-0.4-0.3-0.7-0.7-0.9-1.3c-0.4-1.1-0.2-2.1,0.4-3c0.3-0.5,0.7-1,1.2-1.3c1.3-0.9,2.9-0.5,3.5,1c0.3,0.7,0.2,1.4,0,2.1
			c-0.2,0.4-0.4,0.8-0.6,1.2c-0.1,0.1-0.1,0.1-0.2,0C515.3,728.4,514.9,728,514.4,727.6z M514.5,726.6c0.4,0.3,0.7,0.6,1.1,0.9
			c0.1,0,0.1,0.1,0.2,0c0.5-0.7,0.4-1.8-0.1-2.3c-0.6-0.6-1.7-0.4-2.2,0.4c-0.1,0.1,0,0.1,0,0.2C513.7,726,514.1,726.3,514.5,726.6z
			"/>
		<path class="st1" d="M495.6,715.6c-0.6,0.3-1.1,0.3-1.6,0.1c-0.7-0.3-1.2-0.8-1.3-1.7c0-0.5,0.1-1,0.3-1.5
			c0.2-0.4,0.5-0.8,0.7-1.2c0.5-0.8,1-1.5,1.4-2.3c0.1-0.1,0.1-0.1,0.2-0.1c0.2,0.2,0.4,0.3,0.6,0.4c0.1,0.1,0.1,0.1,0,0.2
			c-0.6,0.9-1.1,1.8-1.7,2.7c-0.2,0.3-0.3,0.6-0.4,0.9c-0.4,1,0.1,1.6,0.8,1.8c0.6,0.2,1.2-0.1,1.6-0.7c0.6-1,1.3-2.1,1.9-3.1
			c0.1-0.1,0.1-0.2,0.2-0.1c0.2,0.2,0.4,0.3,0.6,0.4c0.1,0.1,0.1,0.1,0,0.2c-0.7,1.2-1.4,2.3-2.2,3.5c-0.3,0.5-0.7,1-1,1.6
			c0,0.1-0.1,0.1-0.2,0c-0.2-0.1-0.4-0.3-0.5-0.4c-0.1-0.1-0.1-0.1,0-0.2C495.4,716.2,495.5,715.9,495.6,715.6z"/>
		<path class="st1" d="M505.1,722.4c0.5-0.4,0.9-0.8,1.4-1.2c0.8-0.7,1.5-1.3,2.3-2c0.1-0.1,0.1-0.1,0.2,0c0.2,0.2,0.4,0.3,0.7,0.5
			c0.1,0,0.1,0.1,0,0.1c-1.8,1.4-3.5,2.9-5.3,4.2c-0.6,0.4-1.2,0.7-1.9,0.8c-0.4,0-0.8,0-1.2-0.1c-0.1,0-0.1,0-0.1-0.1
			c0.1-0.3,0.2-0.5,0.2-0.8c0-0.1,0.1-0.1,0.1-0.1c0.8,0.2,1.5,0,2.2-0.5c0.2-0.1,0.3-0.3,0.4-0.6c0.4-1.7,0.7-3.4,1.1-5.1
			c0.1-0.3,0.1-0.6,0.2-0.9c0-0.1,0-0.1,0.1-0.1c0.2,0.2,0.5,0.4,0.7,0.5c0.1,0.1,0.1,0.1,0.1,0.2c-0.4,1.7-0.8,3.3-1.3,5
			C505.1,722.3,505.1,722.4,505.1,722.4z"/>
		<path class="st1" d="M502.7,698c-0.6,1-1.8,1.3-2.6,0.7c-0.8-0.6-1-1.9-0.4-2.9c0.6-1,1.8-1.3,2.6-0.7
			C503.1,695.7,503.3,697,502.7,698z"/>
		<path class="st1" d="M512.8,719.9c-0.1,0.1-0.1,0.2-0.2,0.3c-0.2,0.4-0.4,0.7-0.7,1.1c-0.1,0.1-0.1,0.2,0,0.2
			c0.3,0.2,0.6,0.5,1,0.7c0.1,0.1,0.1,0.1,0,0.2c-0.1,0.2-0.2,0.3-0.3,0.5c-0.1,0.1-0.1,0.1-0.2,0c-0.3-0.3-0.6-0.5-1-0.8
			c-0.1-0.1-0.1-0.1-0.2,0c-0.6,0.9-1.2,1.9-1.7,2.8c-0.1,0.2-0.2,0.4-0.3,0.6c-0.1,0.3,0,0.6,0.2,0.8c0.1,0.1,0.3,0.2,0.5,0.3
			c0.1,0,0.1,0.1,0,0.1c-0.1,0.2-0.2,0.4-0.3,0.6c0,0-0.1,0.1-0.1,0c-0.5-0.2-1-0.4-1.2-1c-0.3-0.6-0.1-1.2,0.2-1.8
			c0.2-0.4,0.5-0.8,0.7-1.2c0.4-0.7,0.8-1.3,1.2-2c0.1-0.1,0.1-0.2,0-0.2c-0.2-0.1-0.3-0.3-0.5-0.4c-0.1-0.1-0.1-0.1,0-0.2
			c0.1-0.2,0.2-0.3,0.3-0.5c0.1-0.1,0.1-0.1,0.2,0c0.2,0.1,0.3,0.2,0.5,0.4c0.1,0.1,0.2,0.1,0.3-0.1c0.2-0.3,0.4-0.7,0.6-1
			c0.1-0.1,0.1-0.1,0.2-0.1C512.3,719.7,512.5,719.8,512.8,719.9z"/>
		<path class="st1" d="M492,710.7c-0.4,0.6-0.9,1.4-1.3,2.2c-0.4,0.7-0.9,1.1-1.6,1.4c-0.4,0.2-0.9,0.1-1.3-0.1
			c-0.2-0.1-0.3-0.2-0.5-0.3c-0.1,0-0.1-0.1,0-0.2c0.1-0.2,0.2-0.4,0.3-0.6c0-0.1,0.1-0.1,0.1,0c0.2,0.2,0.5,0.2,0.8,0.2
			c0.4,0,0.7-0.2,1-0.6c0.2-0.3,0.4-0.6,0.6-0.9c1-1.5,1.9-3.1,2.9-4.6c0.1-0.1,0.1-0.2,0.2-0.1c0.2,0.2,0.4,0.3,0.6,0.4
			c0.1,0.1,0.1,0.1,0,0.2C493.2,708.8,492.7,709.7,492,710.7z"/>
		<path class="st1" d="M519,728.5c0.1,0,0.1-0.1,0.2-0.1c0.6-0.5,1.4-0.5,1.9,0c0.1,0.1,0.1,0.1,0,0.2c-0.1,0.2-0.3,0.4-0.4,0.7
			c-0.1,0.1-0.1,0.1-0.2,0c-0.6-0.5-1.3-0.5-1.9,0.1c-0.2,0.2-0.4,0.4-0.5,0.7c-0.5,0.9-1.1,1.8-1.6,2.6c-0.1,0.1-0.1,0.2-0.3,0.1
			c-0.2-0.2-0.4-0.3-0.5-0.4c-0.1-0.1-0.1-0.1,0-0.2c0.7-1.1,1.4-2.3,2.1-3.4c0.4-0.6,0.7-1.2,1-1.7c0.1-0.1,0.1-0.1,0.1,0
			c0.2,0.1,0.4,0.3,0.6,0.4c0.1,0.1,0.1,0.1,0,0.2c-0.2,0.3-0.3,0.5-0.5,0.8C519.1,728.4,519,728.4,519,728.5z"/>
	</g>
</g>
<g id="Mão_python">
	<g>
		<path class="st5" d="M763,505.8c1.6-2.1,3.4-4.1,5.9-5.2c4.4-2,9.4,1.2,12.8,3.8c3.6,2.7,7.9,5.4,8.1,10.3c0,1.2-0.4,2.4-0.9,3.5
			c-0.8,1.8-1.8,3.6-2.9,5.2"/>
		<path class="st5" d="M806.8,587.3c3.2,3.5,6.6,6.7,10.5,9.3c2.8,1.8,5.9,3.3,9.2,4.1c1.7,0.4,3.4,0.7,5.1,0.8
			c1.6,0.1,3.7-0.4,5.2,0.3c3.7,1.7,3,8.1,1.6,11c-3,6.1-10.3,9.4-16.9,9.3c-8.4-0.1-16.7-3.9-24.3-7.2"/>
		<path class="st5" d="M750,510.1c3.1-4.3,8.1-5.4,13-4.3c1.5,0.3,3,0.8,4.4,1.5c6.5,3,13.1,8.4,17.4,14.1c0.5,0.7,0.9,1.3,1.2,2
			c2.7,5.1,1.7,11-1.6,15.8"/>
		<path class="st5" d="M782.2,570.7c1.2,1.5,2.3,4.3,2.9,6.1c2.7,8.3,7.8,19.8-2.5,25.3c-6.1,3.3-13.6,1.1-20.6,1.1
			c-4.4,0-8.9,0.6-13.3,0.9c-0.3,0-0.6,0-0.9,0.1c-5.1,0.2-13.2,1.3-17.6-1.9c-4.3-3.4-4.7-10.2-1-14.1c1.5-1.6,3.5-2.7,5.6-3.5
			c6.6-2.5,14-2.4,20.2-6.1c0.8-0.5,1.7-1.1,2-2c1.1-3-2.5-6.4-4-8.7c-2-2.9-3.8-5.9-5.2-9.2c-1-2.5-2-5.6-5.7-4.9
			c-1.7,0.3-2.9,1.8-3.9,3.2c-3.5,5-5.8,10.7-8.7,16c-2.6,4.9-5.9,9.6-10.4,12.8c-7.1,5-18.2,6.9-25.4,1.2c-3-2.4-6.8-9.6-3-12.9
			c1.8-1.5,4.4-1.4,6.3-2.8c2.2-1.7,4.3-3.6,6.1-5.7c9.1-10.6,10.6-25.6,15.7-38.1c1.1-2.7,2.3-5.4,4-7.8c5-7,14.8-11.2,23.3-10.1
			c1.3,0.2,2.6,0.4,3.8,0.8c7.9,2.1,14.8,7.4,20.6,13c5.1,4.9,9.7,10.3,13.9,16.1c4.2,5.8,7.9,12,11.1,18.4c3.2,6.4,5.9,13,8.1,19.9
			c3.2,9.9,8.9,26.6-1,34.6c-1.6,1.3-3.5,2.1-5.4,2.8c-1.2,0.4-2.4,0.7-3.6,1c-9.7,2.3-19.1,2.1-29,2c-3.8,0-7.7-0.1-11.1-1.7
			c-5.1-2.4-6.4-7.4-4.9-11.9"/>
	</g>
	<g>
		<path class="st38" d="M771,533.1c-6.2-3.8-6.6-1.2-6.6-1.2l-0.8,2.5l5.9,3.7l-0.2,0.7l-8.3-5.1c0,0-3.8-2.8-5.7,2.6
			c-1.8,5.4,1.7,7.4,1.7,7.4l2.1,1.3l0.8-2.5c0,0,0.9-3.1,4.4-0.9l5.9,3.7c0,0,3.3,2.2,4.2-0.8l1.6-4.9
			C776,539.8,777.5,537.1,771,533.1z M767.2,532.8c0.6,0.4,0.9,1.1,0.8,1.6c0,0,0,0,0,0c-0.2,0.5-0.8,0.7-1.4,0.3c0,0,0,0,0,0
			c-0.6-0.4-0.9-1.1-0.8-1.6c0,0,0,0,0,0C766,532.6,766.6,532.5,767.2,532.8C767.2,532.8,767.2,532.8,767.2,532.8z"/>
		<path class="st39" d="M764.1,554.8c6.2,4.1,6.6,1.5,6.6,1.5l0.8-2.5l-5.9-3.9l0.2-0.7l8.3,5.4c0,0,3.8,3,5.7-2.6
			c1.8-5.7-1.7-7.8-1.7-7.8l-2.1-1.3l-0.8,2.6c0,0-0.9,3.2-4.4,0.9l-5.9-3.8c0,0-3.3-2.1-4.2,0.7l-1.6,4.6
			C759.1,548.1,757.6,550.5,764.1,554.8L764.1,554.8z M767.9,555.3c-0.6-0.4-0.9-1.1-0.8-1.6c0,0,0,0,0,0c0.2-0.5,0.8-0.6,1.4-0.2
			c0,0,0,0,0,0c0.6,0.4,0.9,1.1,0.8,1.6c0,0,0,0,0,0C769.1,555.6,768.5,555.7,767.9,555.3L767.9,555.3L767.9,555.3z"/>
	</g>
</g>
<g id="Mão_machine_learning">
	<g>
		<path class="st5" d="M835.8,686c-0.5,1.3-1,2.5-1.6,3.7c-5.1,10.4-13,20-21.8,27.7c-3.2,2.8-6.6,6.2-10.1,8.6
			c-12.6,8.6-25.9,18.1-40.7,22.3c-13.1,3.7-34.7,4.7-47.4-3.8c-3,0-5.9-0.2-8.8-0.4c-15-1.2-30-5.7-41.7-15.1
			c-3-2.4-5.8-5.3-7.7-8.6c-2.5,0.1-5.1,0-7.7-0.6c-4-0.9-5.7-3.3-7.3-6.8c-2.5-5.4,0.5-12.2,5.3-15.7c4.8-3.5,11-4.6,16.9-5.2
			c14.2-1.6,28.5-1.5,42.6-3.4c12.3-1.7,27.1-5,36.1-14.2c5-5.1,9.2-11.2,11.3-18.2c2.6-8.9,1.3-19.2-4.8-26.1
			c-3.1-3.5-7.3-6-11.4-8.4c-6.9-4-14.3-4.8-21.9-6.7c-4.2-1-7.6-2-11.5-3.8c-7.2-3.3-14.9-9.4-13-18.1c1.5-6.7,11.8-4.5,17-4.5
			c6.5,0,12.9,0,19.4,0.1c9.3,0,17.3,2.2,25.9,5.5c8.8,3.4,17,8,26.2,10.2c5.8,1.4,11.8,2,17.6,3.6c9.8,2.7,19.8,7.6,27.3,14.4
			c0.3,0.3,0.7,0.6,1,0.9c1.9,1.7,3.7,3.4,5.2,5.4c6,7.5,8.1,18.7,9.1,27.9C840.5,666.2,839.3,676.9,835.8,686z"/>
		<path class="st5" d="M714.2,744.4c12,0.2,24.1-1.2,36.1-2.6"/>
		<path class="st5" d="M656,720.3c4.8-0.2,9.6-1.1,14.5-0.7c8.5,0.6,16.9,1.9,25.4,2.5c18.1,1.4,36.2-2.3,53.2-8.7"/>
		<path class="st5" d="M849.8,669.9L849.8,669.9c-0.6,2.2-1.5,4.3-2.8,6.2c-2.7,4.3-6.7,7.5-11.2,9.9c3.5-9.1,4.7-19.8,3.6-29.3
			c-1-9.3-3.1-20.4-9.1-27.9c-1.6-2-3.4-3.7-5.2-5.4c2.5-0.4,5.1-0.2,7.6,0.4c2.1,0.6,4,1.5,5.7,2.6c9.4,6.4,11.9,20.7,12.6,31.3
			C851.2,661.8,850.9,666,849.8,669.9z"/>
		<path class="st5" d="M857.8,665.4c-2.4,2-5.1,3.4-8.1,4.5c1.2-3.9,1.5-8.1,1.2-12.2c-0.7-10.6-3.2-24.9-12.6-31.3
			c0.1,0.1,1.9-0.9,2.1-0.9c0.9-0.3,1.8-0.5,2.7-0.6c2.9-0.4,6-0.1,8.7,1.4c2.9,1.6,4.5,4.4,5.9,7.3
			C862.4,643,867.5,657.3,857.8,665.4z"/>
	</g>
	<g>
		<path class="st40" d="M795.5,698.8c2.1,0.1,5.3-1.9,7.2-2.7c3.2-1.3,6.3-2.6,9.4-4c1.6-0.7,5.1-1.8,5.6-3.5
			c0.5-1.8-1.4-5.9-1.8-7.6c-0.4-1.8-1.4-3.3-1.1-5.3c0.3-2,1.7-4.1,2.6-6c2.1-4.3,2.8-7.8,2.5-12.1c-0.7-8.5-6.2-15.7-15-15.6
			c-5.8,0.1-12.3,2-17.6,5.6c-5,3.4-8.6,7.9-9.7,13.9c-0.5,2.9-2.7,6.6-0.1,8.5c1.6,1.1-2,6.2-2.7,7.5c-0.8,1.4-2.3,3.2-1.1,4.4
			c1.1,1,3-0.7,4,0.2c0.7,0.6,0,1.7-0.3,2.7c-0.2,0.7-0.2,1.6,0.4,1.8c0.4,0.1,0.8,0,1.2,0.2c-0.4,0.7-0.7,1.5-0.5,2.2
			c0.3,1,1.2,1.6,1.4,2.7c0.2,1.3-0.6,2.7-0.5,4.1c0.1,0.9,0.5,1.8,1.2,2.3c1.6,1.1,4.9-1.2,6.7-2c2.7-1.1,4-0.4,6,1.2
			c0.4,0.3,1.2,1.5,1.7,1.5C795.3,698.8,795.4,698.8,795.5,698.8z"/>
		<g>
			<path class="st1" d="M811.3,663.8L811.3,663.8l1.6-0.5l-0.1-2.1l-1.6,0.3l0,0l-1-2l0,0l1-1.5l-1.6-1.1l-1.2,1.3l0,0l-2.3-0.4l0,0
				l-0.2-1.6l-2.1,0.5l-0.1,1.6l0,0l-2.2,1.5l0,0l-1.3-0.8l-1.4,1.9l1.1,1l0,0l-0.8,2.5l0,0l-1.6,0.5l0.1,2.1l1.6-0.3l0,0l1,2l0,0
				l-1,1.5l1.6,1.1l1.2-1.4l0,0l2.3,0.4l0,0l0.2,1.6l2.1-0.5l0.1-1.6l0,0l2.2-1.5l0,0l1.3,0.7l1.4-1.9l-1.1-1l0,0L811.3,663.8z
				 M805.4,668.3c-2.3,0.6-4.2-0.8-4.3-3.2c-0.1-2.3,1.7-4.6,4-5.2c2.3-0.6,4.2,0.9,4.3,3.2C809.4,665.4,807.7,667.7,805.4,668.3z"
				/>
			<path class="st1" d="M795.9,662.8L795.9,662.8l1.2-0.1l0.3-1.6l-1.1-0.1l0,0l-0.3-1.7l0,0l1-0.9L796,657l-1.1,0.8l0,0l-1.5-0.8
				l0,0l0.2-1.2l-1.5-0.1l-0.3,1.2l0,0l-1.8,0.6l0,0l-0.7-0.8l-1.3,1.1l0.6,1l0,0l-1,1.7l0,0l-1.2,0l-0.3,1.7l1.1,0.1l0,0l0.3,1.8
				l0,0l-1,0.9l0.8,1.2l1-0.8l0,0l1.5,0.8l0,0l-0.2,1.2l1.5,0l0.3-1.2l0,0l1.8-0.7l0,0l0.7,0.8l1.3-1.1l-0.6-1l0,0L795.9,662.8z
				 M791,664.9c-1.7-0.1-2.7-1.6-2.4-3.3c0.4-1.8,2-3.2,3.7-3.1c1.7,0.1,2.7,1.6,2.4,3.3C794.3,663.6,792.7,665,791,664.9z"/>
			<path class="st1" d="M796.6,670.6L796.6,670.6l0.7-0.8l-0.8-0.9l-0.8,0.7l0,0l-1.3-0.5l0,0l0.1-1l-1.3,0.1l-0.2,1l0,0l-1.4,0.7
				l0,0l-0.6-0.6l-1,1l0.5,0.7l0,0l-0.7,1.4l0,0l-1,0.1l-0.2,1.3l0.9,0l0,0l0.4,1.4l0,0l-0.7,0.8l0.8,0.9l0.8-0.7l0,0l1.3,0.5l0,0
				l-0.1,1l1.3-0.1l0.2-1l0,0l1.4-0.7l0,0l0.6,0.6l1-1L796,675l0,0l0.7-1.4l0,0l1-0.1l0.2-1.3l-0.9,0l0,0L796.6,670.6z M794.8,674.7
				c-1.1,1.1-2.7,1.2-3.5,0.3c-0.8-1-0.6-2.6,0.5-3.7c1.1-1.1,2.7-1.2,3.5-0.2C796.1,672,795.9,673.6,794.8,674.7z"/>
		</g>
		<g>
			<path class="st41" d="M786.3,669.2c-1.8-0.9-3.1-2.5-3.5-4.8c-0.3-1.4-0.2-2.8,0.2-4.1"/>
			<path class="st41" d="M782.9,660.4c0.8-3.1,3.2-5.9,6.3-7.2c3.5-1.4,6.9-0.4,8.7,2.2"/>
		</g>
		<path class="st41" d="M799.1,656.9c1.3-1.3,2.9-2.4,4.6-3.1c5.7-2.2,11.3,0.4,12.4,5.9c1.1,5.5-2.6,11.9-8.3,14.2
			c-2.6,1.1-5.1,1.1-7.2,0.4"/>
		<path class="st41" d="M799.1,674.1c-0.6,2.6-2.6,5.1-5.2,6.2c-3.7,1.5-7.2-0.2-8-3.8c-0.4-2.2,0.2-4.5,1.6-6.4"/>
	</g>
</g>
<g id="Mão_pandas">
</g>
<g id="Tracejado_laranja">
	<path class="st42" d="M589.4,522.1c5.8-1.6,12-2.5,18.3-2.5c28,0,52.1,17,62.3,41.3"/>
</g>
<g id="Seta_azul">
	<path class="st1" d="M720,495.4l-9.9,5.7c-0.2,0.1-0.2,0.3,0,0.4l2.4,1.4c0.1,0.1,0.2,0.2,0.1,0.3l-9,15.6
		c-0.5,0.9-1.3,1.7-2.3,2.3l-5.7,3.2c-2.1,1.1-3.8,2.8-4.9,4.9l-10.8,18.7c-0.1,0.1,0,0.2,0,0.3l3.3,3.3c0.1,0.1,0.3,0.1,0.4-0.1
		l10.7-18.6c1.2-2,2.9-3.7,4.9-4.9l5.7-3.2c0.9-0.5,1.7-1.3,2.3-2.3l9.8-16.8c0.1-0.1,0.2-0.2,0.3-0.1l2.7,1.6
		c0.2,0.1,0.4,0,0.4-0.2v-11.4C720.4,495.4,720.2,495.3,720,495.4z"/>
</g>
<g id="Gráfico_barras">
	<g>
		<path class="st2" d="M595.6,779l-4.4,2.6c-0.4,0.2-0.8,0-0.8-0.6v-6.6c0-0.6,0.3-1.2,0.8-1.5l4.4-2.6c0.4-0.2,0.8,0,0.8,0.6v6.6
			C596.3,778.1,596,778.7,595.6,779z"/>
		<path class="st2" d="M605.1,773.4l-4.5,2.6c-0.4,0.2-0.7,0-0.7-0.6v-14.8c0-0.5,0.3-1.2,0.7-1.4l4.5-2.6c0.4-0.2,0.7,0,0.7,0.6
			V772C605.9,772.6,605.5,773.2,605.1,773.4z"/>
		<path class="st2" d="M614.8,767.9l-4.5,2.6c-0.4,0.2-0.7,0-0.7-0.6v-26.7c0-0.5,0.3-1.2,0.7-1.4l4.5-2.6c0.4-0.2,0.7,0,0.7,0.6
			v26.7C615.5,767,615.2,767.6,614.8,767.9z"/>
	</g>
</g>
<g id="Gráfico_3_bolas">
	<g>
		<line class="st36" x1="869.7" y1="755.3" x2="894.2" y2="733.8"/>
		<line class="st36" x1="850.6" y1="757.2" x2="780.2" y2="717"/>
		<circle class="st36" cx="860.8" cy="763.1" r="11.8"/>
		<circle class="st36" cx="773.8" cy="713.3" r="7.4"/>
		<circle class="st36" cx="900.6" cy="728.2" r="8.5"/>
	</g>
</g>
<g id="Seta_laranja">
	<polygon class="st2" points="478.5,609.9 470.8,613.4 472.3,622.4 480,619 487.6,615.5 486.2,606.4 484.8,597.4 477.1,600.9 	"/>
</g>
</svg>
