<?xml version="1.0" encoding="UTF-8"?>
<svg id="Layer_1" data-name="Layer 1" xmlns="http://www.w3.org/2000/svg" width="296.83mm" height="83.21mm" viewBox="0 0 841.4 235.88">
  <g>
    <path d="M215.98,0H19.9C8.91,0,0,8.91,0,19.9v120.96c0-3.81.47-7.5,1.35-11.04.38-1.52.83-3.01,1.35-4.46.41-1.13.86-2.23,1.35-3.31.42-.94.87-1.86,1.35-2.76.43-.8.88-1.59,1.35-2.36.43-.7.89-1.39,1.35-2.07.44-.63.89-1.25,1.35-1.85.44-.57.89-1.13,1.35-1.68.44-.52.89-1.03,1.35-1.53.44-.48.89-.95,1.35-1.41.44-.44.89-.87,1.35-1.29.44-.41.9-.8,1.35-1.19.44-.38.9-.74,1.35-1.1.45-.35.9-.69,1.35-1.03.45-.33.9-.65,1.35-.96.44-.3.9-.58,1.35-.87.45-.28.9-.55,1.35-.81.45-.26.9-.51,1.35-.76.45-.24.9-.47,1.35-.69.45-.22.9-.42,1.35-.63.45-.2.9-.4,1.35-.59.45-.18.9-.36,1.35-.53.45-.17.9-.32,1.35-.48.45-.15.9-.31,1.35-.45.45-.14.9-.26,1.35-.39.45-.12.9-.23,1.35-.34.45-.11.9-.22,1.35-.31.45-.09.9-.17,1.35-.25.45-.08.9-.16,1.35-.22.45-.06.9-.12,1.35-.17.45-.05.9-.09,1.35-.13.45-.04.9-.08,1.35-.1.45-.02.9-.03,1.35-.04.38,0,.77-.03,1.15-.03.07,0,.13,0,.2,0,.45,0,.9.02,1.35.03.45.02.9.03,1.35.06.45.03.9.06,1.35.1.45.04.9.1,1.35.15.45.06.91.1,1.35.17.45.07.9.16,1.35.24.45.08.91.17,1.35.27.45.1.91.2,1.35.31.45.11.9.24,1.35.37.45.13.91.25,1.35.39.46.14.9.3,1.35.46.45.16.91.33,1.35.5.45.18.91.35,1.35.54.46.19.9.41,1.35.61.46.21.91.43,1.35.66.45.23.91.46,1.35.7.46.25.91.52,1.35.78.46.27.91.55,1.35.84.46.29.91.59,1.35.89.46.32.91.63,1.35.96.46.34.91.7,1.35,1.06.46.37.91.75,1.35,1.14.46.4.91.81,1.35,1.22.46.43.91.87,1.35,1.32.46.47.91.95,1.35,1.44.46.51.91,1.04,1.35,1.57.46.57.92,1.14,1.35,1.73.47.63.92,1.27,1.35,1.92.47.71.92,1.43,1.35,2.16.48.8.93,1.63,1.35,2.46.48.94.94,1.89,1.35,2.86.5,1.18.95,2.38,1.35,3.6.54,1.63,1,3.3,1.35,5.01.62,3,.95,6.1.95,9.28v-45.83c0-2.02.15-4.01.4-5.96.29-2.24.75-4.43,1.35-6.56.39-1.37.84-2.72,1.35-4.03.42-1.07.86-2.12,1.35-3.15.42-.88.88-1.75,1.35-2.6.43-.77.88-1.52,1.35-2.26.43-.68.89-1.35,1.35-2,.44-.61.89-1.21,1.35-1.8.44-.55.89-1.1,1.35-1.63.44-.51.89-1,1.35-1.49.44-.47.89-.92,1.35-1.37.44-.43.89-.86,1.35-1.27.44-.4.89-.79,1.35-1.17.44-.37.9-.72,1.35-1.07.44-.34.9-.67,1.35-1,.45-.32.9-.63,1.35-.93.45-.29.9-.59,1.35-.87.44-.27.9-.53,1.35-.78.45-.25.9-.5,1.35-.73.45-.23.9-.47,1.35-.69.45-.21.9-.41,1.35-.61.45-.2.9-.38,1.35-.57,5.26-2.11,11-3.29,17-3.29,25.3,0,45.83,20.62,45.83,45.83h-45.83v45.83c0,14.38-6.63,27.21-17,35.61-.45.36-.89.72-1.35,1.06-.44.33-.9.65-1.35.97-.45.31-.9.61-1.35.9-.45.29-.9.57-1.35.84-.45.27-.9.53-1.35.78-.45.25-.9.48-1.35.71-.45.23-.9.45-1.35.66-.45.21-.9.42-1.35.61-.45.19-.9.37-1.35.54-.45.18-.9.35-1.35.51-.45.16-.9.31-1.35.46-.45.14-.9.27-1.35.4-.45.13-.9.26-1.35.37-.45.11-.9.21-1.35.31-.45.1-.9.19-1.35.28-.45.08-.9.17-1.35.24-.45.07-.9.12-1.35.18-.45.06-.9.12-1.35.16-.45.04-.9.07-1.35.1-.45.03-.9.06-1.35.07-.45.02-.9.03-1.35.03-.13,0-.27.01-.4.01-.32,0-.64-.02-.95-.02-.45,0-.91-.01-1.35-.03-.45-.02-.9-.07-1.35-.1-.45-.04-.9-.07-1.35-.12-.45-.05-.9-.11-1.35-.17-.45-.06-.9-.14-1.35-.21-.45-.08-.91-.15-1.35-.24-.46-.09-.9-.2-1.35-.31-.45-.11-.91-.21-1.35-.33-.45-.12-.91-.25-1.35-.39-.45-.14-.9-.29-1.35-.44-.45-.15-.91-.3-1.35-.47-.46-.17-.9-.35-1.35-.54-.46-.19-.91-.38-1.35-.58-.45-.2-.91-.4-1.35-.62-.46-.22-.91-.46-1.35-.7-.46-.24-.91-.49-1.35-.75-.45-.26-.91-.52-1.35-.8-.46-.28-.91-.57-1.35-.87-.46-.31-.91-.62-1.35-.95-.46-.33-.91-.67-1.35-1.01-.46-.36-.91-.72-1.35-1.09-.46-.38-.91-.77-1.35-1.17-.46-.42-.91-.85-1.35-1.29-.46-.45-.91-.92-1.35-1.39-.46-.49-.91-1-1.35-1.52-.46-.54-.92-1.09-1.35-1.66-.47-.6-.92-1.21-1.35-1.83-.47-.67-.92-1.34-1.35-2.04-.47-.75-.93-1.51-1.35-2.29-.48-.88-.93-1.78-1.35-2.69-.49-1.05-.94-2.12-1.35-3.21-.52-1.38-.97-2.79-1.35-4.22-.66-2.46-1.12-5-1.35-7.6-.13-1.38-.2-2.77-.2-4.18,0,3.51-.41,6.92-1.15,10.2-.37,1.62-.82,3.2-1.35,4.75-.41,1.18-.86,2.33-1.35,3.46-.42.96-.87,1.89-1.35,2.81-.43.82-.88,1.63-1.35,2.42-.43.72-.88,1.42-1.35,2.11-.44.64-.89,1.27-1.35,1.88-.44.58-.89,1.15-1.35,1.7-.44.53-.89,1.05-1.35,1.55-.44.48-.89.96-1.35,1.42-.44.44-.9.87-1.35,1.3-.44.41-.9.81-1.35,1.2-.44.38-.9.75-1.35,1.11-.45.35-.89.7-1.35,1.04-.45.33-.9.65-1.35.96-.44.3-.9.59-1.35.87-.45.28-.9.55-1.35.82-.45.26-.9.52-1.35.77-.45.24-.9.47-1.35.69-.45.22-.9.43-1.35.64-.45.2-.9.41-1.35.6-.45.19-.9.36-1.35.53-.45.17-.9.33-1.35.49-.45.15-.9.31-1.35.45-.45.14-.9.26-1.35.38-.45.12-.9.24-1.35.35-.45.11-.9.22-1.35.31-.45.09-.9.17-1.35.25-.45.08-.9.16-1.35.23-.45.07-.9.12-1.35.17-.45.05-.9.1-1.35.14-.45.04-.9.08-1.35.1-.45.03-.9.04-1.35.05-.45.01-.9.03-1.35.03v29.3c0,10.99,8.91,19.9,19.9,19.9h196.08c10.99,0,19.9-8.91,19.9-19.9V19.9c0-10.99-8.91-19.9-19.9-19.9Z" fill="#f78e21"/>
    <path d="M148.94,69.82c2.52,0,4.58-2.06,4.58-4.58s-2.06-4.58-4.58-4.58-4.58,2.06-4.58,4.58,2.06,4.58,4.58,4.58Z" fill="#f78e21"/>
  </g>
  <g>
    <path d="M348.45,177.89h-33.29v-110.14h-31.65v-26.92h96.38v26.92h-31.44v110.14Z" fill="#f78e21"/>
    <path d="M426.53,177.89h-33.29V40.83h38.84l36.37,73.77,35.96-73.77h39.04v137.06h-33.29v-78.29l-41.71,83.84-41.92-83.84v78.29Z" fill="#f78e21"/>
    <path d="M555.57,90.55v-28.56l53.63-24.86v140.76h-31.44v-97.2l-22.19,9.86Z" fill="#f78e21"/>
    <path d="M657.08,82.75v9.04c7.4-8.84,16.44-12.74,29.59-12.74,9.04,0,17.88,2.26,25.48,6.58,16.03,9.25,24.45,24.86,24.45,45.41,0,31.03-18.9,50.55-48.91,50.55-12.95,0-23.01-3.9-30.62-11.92v50.14h-31.23V82.75h31.23ZM657.08,131.45c0,15.41,8.84,25.48,22.4,25.48s23.84-10.69,23.84-25.28c0-15.41-9.66-26.71-22.81-26.71s-23.43,10.89-23.43,26.51Z" fill="#f78e21"/>
    <path d="M808.52,82.75h32.88l-51.99,137.47h-33.5l17.06-44.18-33.08-93.29h33.08l16.44,49.93,19.11-49.93Z" fill="#f78e21"/>
  </g>
</svg>